<svg width="136" height="60" fill="none" xmlns="http://www.w3.org/2000/svg"><g opacity=".6" fill="#fff"><path d="M58 15.6a2.84 2.84 0 0 1 1.44.372c.432.24.772.568 1.02.984.256.416.384.88.384 1.392 0 .512-.124.98-.372 1.404a2.745 2.745 0 0 1-1.032.996c-.432.24-.912.36-1.44.36h-1.608V24H55v-8.4h3Zm-.024 4.176a1.44 1.44 0 0 0 1.044-.408c.288-.272.432-.612.432-1.02 0-.408-.144-.744-.432-1.008a1.44 1.44 0 0 0-1.044-.408h-1.584v2.844h1.584ZM64.492 24.144c-.544 0-1.048-.14-1.512-.42a3.183 3.183 0 0 1-1.092-1.164 3.224 3.224 0 0 1-.408-1.596c0-.584.136-1.116.408-1.596a3.087 3.087 0 0 1 1.092-1.152 2.814 2.814 0 0 1 1.512-.432c.544 0 1.044.144 1.5.432.464.28.832.664 1.104 1.152a3.18 3.18 0 0 1 .408 1.596c0 .576-.136 1.108-.408 1.596a3.15 3.15 0 0 1-1.104 1.164c-.456.28-.956.42-1.5.42Zm0-1.224c.312 0 .596-.084.852-.252.264-.168.472-.4.624-.696.152-.296.228-.632.228-1.008s-.076-.712-.228-1.008a1.756 1.756 0 0 0-.624-.696 1.52 1.52 0 0 0-.852-.252c-.312 0-.6.084-.864.252-.256.168-.46.4-.612.696a2.175 2.175 0 0 0-.228 1.008c0 .376.076.712.228 1.008.152.296.356.528.612.696.264.168.552.252.864.252ZM74.024 22.056l1.272-4.128h1.308L74.6 24h-1.092l-1.236-3.852L71.06 24h-1.092l-2.004-6.072h1.356l1.26 4.104 1.308-4.104h.828l1.308 4.128ZM82.935 20.832c0 .256-.024.472-.072.648h-4.5c.08.456.272.816.576 1.08.304.264.672.396 1.104.396.312 0 .576-.06.792-.18.216-.12.388-.272.516-.456h1.368c-.12.304-.308.596-.564.876a2.87 2.87 0 0 1-.924.684c-.36.176-.752.264-1.176.264-.552 0-1.06-.14-1.524-.42-.456-.28-.82-.66-1.092-1.14a3.35 3.35 0 0 1-.396-1.62c0-.584.136-1.116.408-1.596a3.087 3.087 0 0 1 1.092-1.152 2.793 2.793 0 0 1 1.5-.432c.536 0 1.024.136 1.464.408.44.264.788.628 1.044 1.092.256.464.384.98.384 1.548Zm-2.892-1.86c-.416 0-.78.14-1.092.42-.312.272-.508.636-.588 1.092h3.288c-.072-.448-.256-.812-.552-1.092a1.484 1.484 0 0 0-1.056-.42ZM84.106 24v-6.072h.984l.24.672h.06c.128-.184.324-.364.588-.54.264-.184.568-.276.912-.276.2 0 .368.016.504.048v1.32a2.653 2.653 0 0 0-.54-.048c-.424 0-.768.136-1.032.408-.264.272-.396.648-.396 1.128V24h-1.32ZM93.599 20.832c0 .256-.024.472-.072.648h-4.5c.08.456.272.816.576 1.08.304.264.672.396 1.104.396.312 0 .576-.06.792-.18.216-.12.388-.272.516-.456h1.368c-.12.304-.308.596-.564.876a2.87 2.87 0 0 1-.924.684c-.36.176-.752.264-1.176.264-.552 0-1.06-.14-1.524-.42-.456-.28-.82-.66-1.092-1.14a3.35 3.35 0 0 1-.396-1.62c0-.584.136-1.116.408-1.596a3.087 3.087 0 0 1 1.092-1.152 2.793 2.793 0 0 1 1.5-.432c.536 0 1.024.136 1.464.408.44.264.788.628 1.044 1.092.256.464.384.98.384 1.548Zm-2.892-1.86c-.416 0-.78.14-1.092.42-.312.272-.508.636-.588 1.092h3.288c-.072-.448-.256-.812-.552-1.092a1.484 1.484 0 0 0-1.056-.42ZM97.218 24.144c-.496 0-.96-.136-1.392-.408a3.064 3.064 0 0 1-1.02-1.14 3.459 3.459 0 0 1-.384-1.632c0-.6.128-1.14.384-1.62a2.946 2.946 0 0 1 1.02-1.14c.432-.28.896-.42 1.392-.42.28 0 .54.048.78.144.248.088.452.196.612.324.16.12.268.224.324.312h.06V15.6h1.32V24h-.984l-.24-.684h-.06c-.128.176-.356.36-.684.552a2.266 2.266 0 0 1-1.128.276Zm.144-1.224c.296 0 .568-.08.816-.24.248-.168.444-.4.588-.696.152-.304.228-.644.228-1.02s-.076-.712-.228-1.008a1.636 1.636 0 0 0-.588-.696 1.425 1.425 0 0 0-.816-.252c-.296 0-.568.084-.816.252-.248.16-.448.392-.6.696a2.275 2.275 0 0 0-.216 1.008c0 .376.072.716.216 1.02.152.296.352.528.6.696.248.16.52.24.816.24ZM108.027 24.144a2.29 2.29 0 0 1-1.14-.276c-.32-.192-.544-.376-.672-.552h-.06l-.24.684h-.984v-8.4h1.32v2.964h.06c.056-.088.164-.192.324-.312.16-.128.36-.236.6-.324.248-.096.512-.144.792-.144.496 0 .956.14 1.38.42.432.272.776.652 1.032 1.14.256.48.384 1.02.384 1.62 0 .6-.128 1.144-.384 1.632-.256.48-.6.86-1.032 1.14a2.507 2.507 0 0 1-1.38.408Zm-.144-1.224c.296 0 .568-.08.816-.24.248-.168.444-.4.588-.696.152-.304.228-.644.228-1.02s-.076-.712-.228-1.008a1.636 1.636 0 0 0-.588-.696 1.425 1.425 0 0 0-.816-.252c-.296 0-.568.084-.816.252-.248.16-.448.392-.6.696a2.275 2.275 0 0 0-.216 1.008c0 .376.072.716.216 1.02.152.296.352.528.6.696.248.16.52.24.816.24ZM115.755 17.928h1.356l-2.52 6.408c-.28.696-.572 1.184-.876 1.464a1.47 1.47 0 0 1-1.044.42c-.24 0-.456-.04-.648-.12v-1.2a.905.905 0 0 0 .408.084c.232 0 .424-.06.576-.18.16-.112.292-.304.396-.576l.144-.384-2.388-5.916h1.416l1.62 4.308 1.56-4.308Z"/></g><path d="M60.12 44.24c3.12 0 4.84-1.72 4.84-4 0-5.04-7.32-3.48-7.32-6.52 0-1.06.82-1.86 2.32-1.86 1.48 0 2.4.96 2.48 2.32h2.32c-.12-2.48-1.94-4.42-4.8-4.42-2.92 0-4.64 1.7-4.64 3.92 0 4.98 7.32 3.52 7.32 6.62 0 1.02-.82 1.84-2.5 1.84-1.72 0-2.68-1-2.82-2.44H55c.12 2.62 2.02 4.54 5.12 4.54ZM70.729 44.24c.54 0 .94-.1 1.2-.2v-2c-.2.1-.44.14-.7.14-.9 0-1.5-.52-1.5-1.64v-4.68h2.2v-1.98h-2.2v-2.6h-1.9v1.52c0 .78-.42 1.2-1.22 1.2h-.72v1.86h1.66v4.86c0 2.22 1.34 3.52 3.18 3.52ZM82.945 38.72c0-2.88-2.12-5.08-4.82-5.08-2.72 0-5 2.34-5 5.3 0 3 2.22 5.3 5.02 5.3 2.22 0 3.88-1.58 4.44-3.04h-2.28c-.36.52-1.04 1.06-2.18 1.06-1.44 0-2.52-.92-2.8-2.46h7.5c.06-.22.12-.6.12-1.08Zm-4.82-3.1c1.36 0 2.44 1.02 2.68 2.52h-5.48c.28-1.54 1.42-2.52 2.8-2.52ZM87.196 44V30h-2.2v14h2.2ZM92.137 44V30h-2.2v14h2.2ZM98.579 33.64c-2.44 0-3.82 1.62-4 3.32h2.2c.12-.66.68-1.34 1.78-1.34 1.14 0 1.88.74 1.88 1.96v.34h-1.62c-2.78 0-4.7 1.28-4.7 3.3 0 1.66 1.42 3.02 3.4 3.02 1.62 0 2.56-.86 2.96-1.38h.1l.4 1.14h1.64v-6.24c0-2.46-1.56-4.12-4.04-4.12Zm-.6 8.74c-1.1 0-1.66-.56-1.66-1.34 0-.92.8-1.54 2.52-1.54h1.6v.64c0 1.2-.96 2.24-2.46 2.24ZM108.736 44.24c.54 0 .94-.1 1.2-.2v-2c-.2.1-.44.14-.7.14-.9 0-1.5-.52-1.5-1.64v-4.68h2.2v-1.98h-2.2v-2.6h-1.9v1.52c0 .78-.42 1.2-1.22 1.2h-.72v1.86h1.66v4.86c0 2.22 1.34 3.52 3.18 3.52ZM120.952 38.72c0-2.88-2.12-5.08-4.82-5.08-2.72 0-5 2.34-5 5.3 0 3 2.22 5.3 5.02 5.3 2.22 0 3.88-1.58 4.44-3.04h-2.28c-.36.52-1.04 1.06-2.18 1.06-1.44 0-2.52-.92-2.8-2.46h7.5c.06-.22.12-.6.12-1.08Zm-4.82-3.1c1.36 0 2.44 1.02 2.68 2.52h-5.48c.28-1.54 1.42-2.52 2.8-2.52Z" fill="#fff"/><path fill-rule="evenodd" clip-rule="evenodd" d="m42.208 40.318.025-.015a2.55 2.55 0 0 0 .933-3.375l-2.906-5.536L18.382 42.98l7.826 4.539a3.572 3.572 0 0 0 3.584 0l12.416-7.2ZM15.94 34.347l17.554-19.719-3.702-2.146a3.573 3.573 0 0 0-3.584 0l-12.416 7.2c-.545.316-.997.77-1.312 1.318a3.613 3.613 0 0 0-.48 1.8v2.7c0 1.67.35 3.321 1.03 4.845a11.862 11.862 0 0 0 2.91 4v.002Z" fill="#fff" fill-opacity=".6"/><path fill-rule="evenodd" clip-rule="evenodd" d="m42.208 19.682-.419-.243-10.016 9.25 8.4 7.313c1.325 1.152 1.816 2.833 1.303 4.743l.732-.423A3.612 3.612 0 0 0 44 37.199v-14.4a3.611 3.611 0 0 0-1.792-3.117ZM27.57 32.638l-11.574-8.97c-1.304-1.015-1.893-2.535-1.625-4.321l-.579.335c-.545.316-.997.77-1.312 1.318a3.613 3.613 0 0 0-.48 1.8v14.4c0 .633.164 1.255.479 1.803a3.591 3.591 0 0 0 1.313 1.32l3.315 1.922 10.463-9.607Z" fill="#fff"/><rect x=".5" y=".5" width="135" height="59" rx="7.5" stroke="#fff" stroke-opacity=".35"/></svg>