<svg fill="none" version="1.1" id="svg329" xmlns="http://www.w3.org/2000/svg" viewBox="0 0 371 123">
  <g clip-path="url(#clip0_119_37)" id="g235">
    <path fill="url(#pattern0)" id="rect233" d="M0 0h200v123H0z"/>
  </g>
  <path d="M155 35V9h-5V2h17v7h-5v26h-7Zm30 0 6-33h10l6 33h-8l-1-5h-5l-1 5h-7Zm9-11h3l-1-11a151 151 0 0 1-1-2v3l-1 10Zm40-8 4-1 1-2v-2l-1-2-3-1h-1v8Zm-7 19V2h11l6 2 2 6v2l-1 4-3 2 3 2 1 4v10l1 1h-8V25l-1-3-4-1v14h-7Zm41 0V2h7v15a12 12 0 0 1 1-3l4-12h8l-7 14 7 19h-8l-3-12-2 3v9h-7Zm47-24v16l1 2 1 1 2-1 1-2V11l-1-2-2-1-1 1-1 2Zm-7 1c0-3 0-6 2-7 2-2 4-3 7-3 4 0 6 1 8 3l2 7v14l-2 7c-2 2-4 3-8 3-3 0-5-1-7-3-2-1-2-4-2-7V12Zm44 23-5-33h8l1 14a302 302 0 0 1 1 11 497 497 0 0 1 1-11l1-14h8l-5 33h-10Z" fill="#C7C5B3" id="path237"/>
  <path d="M157 120V69h-9V57h33v12h-10v51h-14Zm49-47v31l1 4c0 1 1 2 3 2l3-2 1-4V73l-1-4-3-2c-2 0-3 1-3 2l-1 4Zm-15 2c0-6 2-11 5-14s8-5 14-5 11 2 14 5 5 8 5 14v26c0 7-2 12-5 15s-8 5-14 5-11-2-14-5-5-8-5-15V75Zm66-2v31l1 4 3 2c2 0 3-1 3-2l1-4V73l-1-4-3-2c-2 0-3 1-3 2l-1 4Zm-15 2c0-6 2-11 5-14s8-5 14-5 11 2 14 5 5 8 5 14v26c0 7-2 12-5 15s-8 5-14 5-11-2-14-5-5-8-5-15V75Zm52 45V57h14v51h16v12h-30Zm40-22h14v5l1 5 3 2 4-2 1-3-1-4-4-4-3-3-10-8-3-6-2-7c0-5 2-10 5-13 4-3 8-4 14-4s10 1 13 4 4 7 4 12v5h-13v-4l-1-5-4-1-3 1-1 4c0 2 3 6 10 11l1 1 10 10 1 5 1 5c0 5-2 9-5 12s-8 5-14 5-11-2-14-5-4-7-4-13v-5Z" fill="#C7C5B3" id="path239"/>
  <g id="g327" transform="translate(-123 -1)">
    <svg viewBox="0 0 496 496" xml:space="preserve" version="1.1" id="svg325">
      <path d="M136 416V230c0-36-30-67-68-67S0 194 0 230v186z" fill="#a3b2b0" id="path241"/>
      <path d="M72 416h64V230c0-36-30-67-68-67" fill="#90a09d" id="path243"/>
      <path d="M144 480c0 4-7 8-11 8H7c-4 0-7-4-7-8v-26c0-4 3-6 7-6h126c4 0 11 2 11 6z" fill="#a3b2b0" id="path245"/>
      <path d="M0 454c0-4 3-6 7-6h126c4 0 11 2 11 6v26c0 4-5 8-10 8" fill="#90a09d" id="path247"/>
      <path fill="#4c5655" d="M16 416h104v32H16Z" id="path249"/>
      <path fill="#414c4b" d="M72 416h48v32" id="path251"/>
      <path d="M0 231v185h136V231l-2-15H2c-2 7-2 10-2 15z" fill="#798483" id="path253"/>
      <g fill="#616b6a" id="g259">
        <path d="M134 216H72v200h64V231c0-5 0-8-2-15z" id="path255"/>
        <circle cx="70.4" cy="260" r="16" id="circle257"/>
      </g>
      <path d="M70 245c9 0 16 7 16 16s-7 15-16 15" fill="#798483" id="path261"/>
      <path d="M86 316c0 9-8 16-16 16s-16-7-16-16 7-15 16-15 16 6 16 15z" fill="#616b6a" id="path263"/>
      <path d="M70 300c9 0 16 7 16 15 0 9-7 16-16 16" fill="#798483" id="path265"/>
      <circle cx="70.4" cy="371.2" r="16" fill="#616b6a" id="circle267"/>
      <path d="M70 356c9 0 16 7 16 15 0 9-7 16-16 16" fill="#798483" id="path269"/>
      <path d="M312 416V230c0-36-26-222-64-222s-64 185-64 222v186z" fill="#f4cc25" id="path271"/>
      <path d="M248 416h64V230c0-36-26-222-64-222" fill="#e8b21a" id="path273"/>
      <path d="M320 480c0 4-5 8-9 8H185c-4 0-9-4-9-8v-26c0-4 5-5 9-5h125c4 0 9 1 9 5v26z" fill="#f4cc25" id="path275"/>
      <path d="M176 454c0-4 5-6 9-6h125c4 0 9 2 9 6v26c0 4-4 8-8 8" fill="#e8b21a" id="path277"/>
      <path fill="#4c5655" d="M200 416h96v32h-96z" id="path279"/>
      <path fill="#414c4b" d="M248 416h48v32" id="path281"/>
      <path d="M184 231v185h128V231l-1-15H185Z" fill="#eaaa0a" id="path283"/>
      <g fill="#d87f09" id="g289">
        <path d="M311 216h-63v200h64V231Z" id="path285"/>
        <circle cx="248" cy="260" r="16" id="circle287"/>
      </g>
      <path d="M248 245c9 0 16 7 16 16s-7 15-16 15" fill="#eaaa0a" id="path291"/>
      <path d="M264 316c0 9-7 16-16 16s-16-7-16-16 7-15 16-15 16 6 16 15z" fill="#d87f09" id="path293"/>
      <path d="M248 300c9 0 16 7 16 15 0 9-7 16-16 16" fill="#eaaa0a" id="path295"/>
      <circle cx="248" cy="371.2" r="16" fill="#d87f09" id="circle297"/>
      <path d="M248 356c9 0 16 7 16 15 0 9-7 16-16 16m120-123v184h112V248H370Z" fill="#eaaa0a" id="path299"/>
      <path d="M480 248h-56v200h56z" fill="#d87f09" id="path301"/>
      <path d="M496 480c0 4-3 8-7 8H363c-4 0-11-4-11-8v-26c0-4 7-5 11-5h126c4 0 7 1 7 5z" fill="#ce351b" id="path303"/>
      <path d="M352 454c0-4 7-6 11-6h126c4 0 7 2 7 6v26c0 4-3 8-7 8" fill="#ad1905" id="path305"/>
      <path d="M368 187v181h112V187c0-5-2-9-3-11H370Z" fill="#ce351b" id="path307"/>
      <g fill="#ad1905" id="g313">
        <path d="M478 176h-54v192h56V187c0-4 0-8-2-11z" id="path309"/>
        <circle cx="425.6" cy="216.8" r="16" id="circle311"/>
      </g>
      <path d="M426 201c8 0 16 7 16 16s-8 15-16 15" fill="#ce351b" id="path315"/>
      <circle cx="425.6" cy="272" r="16" fill="#ad1905" id="circle317"/>
      <path d="M426 256c8 0 16 7 16 15 0 9-8 16-16 16" fill="#ce351b" id="path319"/>
      <circle cx="425.6" cy="327.2" r="16" fill="#ad1905" id="circle321"/>
      <path d="M426 312c8 0 16 7 16 16s-8 16-16 16m52-168c0 6-4 8-8 8h-95c-3 0-6-5-6-8s3-8 6-8h97c3 0 6 3 6 8z" fill="#ce351b" id="path323"/>
    </svg>
  </g>
</svg>