<?xml version="1.0" standalone="no"?>
<!DOCTYPE svg PUBLIC "-//W3C//DTD SVG 20010904//EN"
 "http://www.w3.org/TR/2001/REC-SVG-20010904/DTD/svg10.dtd">
<svg version="1.0" xmlns="http://www.w3.org/2000/svg"
 width="2048.000000pt" height="2048.000000pt" viewBox="0 0 2048.000000 2048.000000"
 preserveAspectRatio="xMidYMid meet">
<metadata>
Created by potrace 1.14, written by Peter Selinger 2001-2017
</metadata>
<g transform="translate(0.000000,2048.000000) scale(0.100000,-0.100000)"
fill="#000000" stroke="none">
<path d="M12373 18429 c1 -10 5 -19 9 -19 4 0 8 -6 8 -14 0 -8 7 -16 15 -20 8
-3 12 -12 9 -21 -4 -8 1 -17 10 -21 9 -3 14 -10 11 -14 -3 -4 2 -13 10 -20 8
-7 15 -21 15 -32 0 -10 7 -21 15 -24 8 -4 15 -15 15 -26 0 -10 5 -16 10 -13 6
3 10 -3 10 -14 0 -12 5 -21 10 -21 6 0 10 -7 10 -15 0 -8 5 -15 11 -15 5 0 7
-5 4 -11 -4 -6 1 -17 11 -25 11 -9 12 -12 4 -8 -8 4 -5 -4 8 -18 12 -13 22
-29 22 -35 0 -6 7 -16 15 -23 8 -7 12 -16 9 -21 -3 -5 0 -9 5 -9 6 0 11 -7 11
-15 0 -8 4 -15 10 -15 5 0 12 -11 16 -25 3 -14 10 -25 16 -25 5 0 6 -4 3 -10
-3 -5 -1 -10 4 -10 6 0 11 -7 11 -15 0 -8 5 -15 11 -15 6 0 9 -6 6 -12 -2 -7
5 -21 16 -30 11 -10 17 -18 13 -18 -4 0 2 -13 13 -29 12 -16 21 -34 21 -41 0
-6 4 -8 10 -5 5 3 7 0 4 -8 -3 -8 2 -20 11 -27 8 -7 15 -19 15 -26 0 -8 3 -14
8 -14 8 0 47 -81 44 -92 -1 -5 4 -7 11 -5 6 1 11 -4 10 -10 -2 -7 2 -13 8 -13
5 0 7 -4 4 -10 -3 -5 -1 -10 4 -10 6 0 11 -5 11 -11 0 -6 14 -31 30 -56 17
-24 30 -48 30 -54 0 -5 5 -9 11 -9 5 0 7 -5 4 -11 -4 -5 3 -19 16 -30 12 -10
17 -19 10 -19 -9 0 -9 -4 1 -15 7 -8 18 -20 23 -27 15 -19 39 -72 37 -80 -1
-5 5 -8 13 -8 9 0 12 -6 8 -17 -4 -11 -3 -14 5 -9 8 5 12 0 12 -13 0 -12 4
-21 8 -21 5 0 14 -16 22 -35 8 -19 18 -35 22 -35 5 0 7 -4 4 -9 -4 -5 -2 -11
2 -13 5 -1 15 -15 23 -29 8 -15 27 -51 43 -80 16 -30 36 -60 45 -67 12 -11 13
-12 1 -7 -8 4 -6 -2 6 -12 11 -10 19 -23 17 -29 -2 -6 3 -17 12 -24 8 -7 15
-21 15 -32 0 -10 4 -17 9 -14 9 6 38 -52 33 -66 -1 -5 3 -8 8 -8 6 0 15 -11
20 -25 5 -14 14 -25 20 -25 6 0 8 -5 5 -10 -3 -6 1 -17 9 -26 9 -8 16 -22 16
-30 0 -8 5 -14 10 -14 6 0 10 -7 10 -16 0 -9 7 -22 16 -28 13 -10 20 -28 23
-59 1 -5 6 -5 11 -2 6 3 10 -3 10 -15 0 -12 5 -18 10 -15 6 3 10 -3 10 -14 0
-12 5 -21 11 -21 5 0 7 -4 4 -10 -3 -5 -1 -10 5 -10 6 0 8 -4 5 -10 -3 -5 -1
-10 5 -10 6 0 9 -4 6 -9 -3 -5 1 -12 10 -15 8 -3 12 -10 9 -16 -3 -5 -1 -10 4
-10 6 0 11 -7 11 -15 0 -8 5 -15 11 -15 5 0 7 -4 4 -10 -3 -5 -1 -10 5 -10 6
0 8 -4 5 -10 -3 -5 -1 -10 5 -10 6 0 8 -4 5 -10 -3 -5 -1 -10 4 -10 6 0 11 -7
11 -15 0 -9 7 -18 15 -21 8 -4 13 -10 10 -14 -3 -5 1 -15 9 -23 8 -8 12 -17 9
-21 -4 -3 -2 -6 3 -6 6 0 16 -16 24 -35 8 -19 16 -35 19 -35 4 0 12 -15 20
-32 8 -18 22 -44 33 -57 10 -13 16 -27 13 -31 -3 -4 2 -10 10 -14 8 -3 15 -12
15 -21 0 -8 4 -15 9 -15 8 0 24 -37 22 -52 -1 -5 3 -8 7 -8 5 0 17 -18 28 -40
10 -22 23 -40 27 -40 5 0 5 -4 2 -10 -3 -5 -1 -10 5 -10 6 0 8 -4 5 -10 -3 -5
-1 -10 4 -10 6 0 11 -7 11 -15 0 -8 5 -15 10 -15 6 0 10 -8 10 -18 0 -10 9
-25 20 -35 12 -10 18 -22 15 -27 -3 -6 -2 -10 3 -10 5 0 17 -18 27 -40 10 -22
24 -45 31 -51 8 -6 11 -15 8 -20 -3 -5 0 -9 5 -9 6 0 11 -6 11 -14 0 -7 7 -19
15 -26 8 -7 12 -16 9 -21 -3 -5 2 -12 10 -15 9 -3 13 -10 10 -16 -3 -5 3 -18
15 -29 12 -11 21 -26 21 -34 0 -8 4 -15 8 -15 9 0 47 -71 44 -82 -1 -5 3 -8
10 -8 6 0 8 -3 5 -6 -4 -4 3 -15 15 -25 11 -11 18 -19 14 -19 -6 0 22 -58 34
-70 3 -3 14 -22 25 -42 11 -21 24 -38 28 -38 5 0 7 -7 3 -15 -3 -8 -2 -15 3
-15 4 0 18 -20 30 -45 12 -25 27 -45 32 -45 5 0 9 -9 9 -20 0 -11 5 -20 11
-20 5 0 7 -4 4 -10 -3 -5 -1 -10 5 -10 6 0 8 -4 5 -10 -3 -5 -1 -10 4 -10 6 0
11 -6 11 -14 0 -7 7 -19 15 -26 8 -7 12 -16 9 -21 -3 -5 -1 -9 4 -9 4 0 16
-16 25 -35 9 -19 22 -35 29 -35 6 0 8 -3 5 -6 -7 -7 32 -87 46 -92 4 -2 7 -10
7 -18 0 -8 5 -14 10 -14 6 0 10 -7 10 -15 0 -8 5 -15 10 -15 6 0 10 -5 10 -11
0 -5 -6 -7 -12 -4 -7 4 1 -6 17 -20 17 -15 24 -24 16 -20 -9 5 -8 -1 4 -19 10
-14 22 -26 28 -26 6 0 8 -3 4 -6 -7 -7 19 -61 39 -82 8 -7 12 -18 9 -23 -4 -5
-1 -9 4 -9 6 0 11 -7 11 -15 0 -9 7 -18 15 -21 8 -4 12 -10 9 -15 -3 -5 0 -9
6 -9 6 0 9 -4 5 -9 -3 -5 1 -15 8 -23 7 -7 23 -34 37 -60 14 -27 29 -48 33
-48 5 0 5 -4 2 -10 -3 -5 -1 -10 5 -10 6 0 8 -4 5 -10 -3 -5 -2 -10 2 -10 5 0
14 -9 21 -21 11 -17 11 -20 0 -14 -7 3 -5 0 4 -8 10 -8 15 -17 11 -20 -3 -4
-1 -7 5 -7 7 0 12 -6 12 -13 0 -7 9 -23 20 -34 14 -15 16 -23 7 -26 -7 -3 -5
-6 5 -6 9 -1 20 -6 24 -13 5 -7 3 -8 -5 -3 -9 5 -9 1 1 -14 7 -12 16 -21 21
-21 4 0 6 -4 2 -9 -3 -5 1 -15 7 -23 7 -7 24 -34 37 -60 13 -27 28 -48 34 -48
5 0 6 -7 3 -15 -3 -9 1 -18 9 -21 8 -4 15 -13 15 -21 0 -8 5 -11 10 -8 6 4 10
3 9 -2 -1 -4 -1 -19 0 -33 1 -20 3 -22 11 -10 8 12 10 11 10 -7 0 -13 4 -23
10 -23 5 0 9 -3 9 -7 -3 -20 2 -34 11 -28 6 3 10 -1 10 -10 0 -9 9 -30 21 -46
11 -16 17 -33 14 -39 -3 -5 1 -10 9 -10 14 0 17 -5 16 -25 -1 -3 6 -13 15 -21
8 -9 12 -20 9 -26 -4 -7 -2 -8 4 -4 7 4 12 1 12 -8 0 -9 5 -16 11 -16 5 0 8
-4 4 -9 -3 -5 0 -15 7 -23 7 -7 20 -26 28 -43 8 -16 21 -36 28 -43 7 -8 10
-18 7 -23 -4 -5 -1 -9 4 -9 6 0 11 -7 11 -15 0 -8 4 -15 9 -15 8 0 24 -37 22
-52 -1 -5 4 -7 10 -5 6 1 13 -7 15 -18 1 -11 8 -21 14 -23 5 -2 8 -8 4 -13 -3
-5 0 -9 6 -9 6 0 9 -4 6 -9 -4 -5 -2 -11 3 -13 5 -1 11 -10 13 -18 2 -8 11
-21 21 -28 9 -7 17 -22 17 -33 0 -10 4 -19 9 -19 5 0 11 -7 15 -15 3 -8 0 -14
-7 -12 -7 1 -11 -6 -9 -17 2 -11 -1 -15 -7 -11 -10 5 -15 -8 -8 -19 1 -3 -8
-15 -21 -28 -12 -14 -19 -28 -15 -31 3 -4 1 -7 -5 -7 -7 0 -12 -7 -12 -16 0
-9 -5 -12 -12 -8 -7 4 -10 4 -6 -1 9 -10 -29 -85 -43 -85 -6 0 -7 -4 -4 -10 3
-5 1 -10 -4 -10 -6 0 -10 -3 -9 -7 3 -10 -53 -107 -64 -111 -5 -2 -6 -8 -2
-13 3 -5 0 -9 -6 -9 -6 0 -8 -4 -5 -10 3 -5 1 -10 -5 -10 -7 0 -9 -7 -6 -16 3
-8 2 -13 -3 -10 -8 6 -18 -9 -19 -28 0 -5 -6 -12 -14 -17 -7 -5 -13 -12 -13
-16 0 -4 -10 -22 -22 -39 -12 -17 -20 -34 -16 -38 3 -3 1 -6 -5 -6 -7 0 -12
-7 -12 -15 0 -8 -4 -15 -10 -15 -5 0 -10 -7 -10 -15 0 -8 -8 -23 -17 -33 -10
-10 -19 -25 -21 -32 -2 -8 -12 -26 -23 -41 -10 -15 -19 -31 -19 -37 0 -5 -7
-15 -15 -22 -8 -7 -13 -16 -10 -20 3 -4 -2 -11 -11 -14 -8 -3 -12 -10 -9 -16
3 -5 1 -10 -4 -10 -6 0 -11 -9 -11 -20 0 -11 -5 -19 -11 -18 -6 2 -13 -5 -14
-14 -2 -10 -12 -30 -22 -45 -11 -15 -23 -36 -26 -45 -4 -10 -11 -18 -17 -18
-6 0 -9 -4 -5 -9 3 -5 -1 -16 -9 -23 -7 -8 -17 -24 -20 -36 -4 -12 -11 -22
-16 -22 -8 0 -23 -38 -21 -52 1 -5 -3 -8 -9 -8 -5 0 -17 -15 -25 -32 -18 -39
-65 -121 -74 -128 -3 -3 -16 -25 -29 -50 -32 -64 -45 -84 -60 -93 -7 -5 -10
-12 -7 -16 2 -5 -2 -14 -10 -21 -8 -7 -12 -16 -9 -21 3 -5 0 -9 -5 -9 -6 0
-11 -7 -11 -15 0 -8 -3 -15 -8 -15 -4 0 -14 -15 -21 -32 -8 -18 -22 -39 -30
-46 -13 -11 -13 -12 -1 -7 11 5 10 2 -2 -7 -9 -8 -20 -26 -23 -41 -4 -15 -10
-25 -14 -23 -3 2 -17 -19 -31 -47 -14 -29 -33 -61 -42 -71 -10 -10 -15 -23
-12 -28 3 -4 1 -8 -3 -8 -5 0 -17 -16 -27 -35 -11 -19 -23 -35 -28 -35 -5 0
-6 -5 -2 -12 4 -6 1 -16 -7 -22 -8 -6 -23 -29 -34 -51 -19 -39 -35 -66 -75
-125 -11 -16 -20 -36 -20 -45 0 -8 -9 -20 -19 -27 -10 -6 -17 -18 -14 -25 3
-7 1 -13 -3 -13 -5 0 -20 -21 -33 -47 -14 -27 -33 -57 -42 -68 -10 -11 -19
-24 -20 -30 -4 -25 -12 -34 -23 -28 -6 3 -8 3 -4 -2 8 -9 -31 -85 -44 -85 -4
0 -7 -3 -6 -7 2 -12 -14 -45 -31 -65 -9 -10 -16 -22 -16 -26 -1 -4 -13 -26
-28 -49 -15 -24 -27 -47 -27 -53 0 -5 -3 -10 -8 -10 -4 0 -13 -15 -21 -33 -8
-17 -17 -34 -21 -37 -14 -12 -59 -98 -53 -104 3 -3 -1 -6 -11 -6 -9 0 -14 -4
-11 -10 3 -5 3 -10 -2 -10 -4 0 -17 -20 -28 -45 -11 -25 -23 -45 -27 -45 -5 0
-8 -7 -8 -15 0 -8 -5 -15 -11 -15 -5 0 -8 -4 -5 -8 3 -5 -5 -19 -18 -33 -12
-13 -21 -30 -18 -37 2 -6 -1 -12 -7 -12 -6 0 -11 -7 -11 -15 0 -8 -3 -15 -8
-15 -4 0 -16 -19 -26 -42 -10 -24 -21 -45 -26 -48 -9 -6 -55 -84 -75 -127 -8
-18 -20 -33 -25 -33 -6 0 -10 -3 -9 -7 2 -15 -13 -53 -21 -53 -9 0 -25 -40
-22 -53 1 -4 -3 -6 -10 -5 -7 2 -12 -2 -13 -9 0 -7 -8 -21 -17 -33 -10 -11
-15 -20 -13 -20 3 0 -5 -17 -19 -37 -14 -20 -22 -41 -19 -46 3 -6 1 -7 -5 -3
-7 4 -12 1 -12 -8 0 -9 -5 -16 -11 -16 -5 0 -7 -5 -4 -10 3 -6 -1 -13 -10 -16
-9 -4 -14 -13 -11 -20 3 -8 1 -14 -5 -14 -6 0 -7 -4 -4 -10 3 -5 1 -10 -4 -10
-6 0 -11 -5 -11 -10 0 -6 -9 -20 -20 -32 -10 -11 -22 -34 -25 -49 -4 -16 -10
-27 -15 -24 -4 3 -15 -13 -24 -35 -9 -22 -21 -40 -27 -40 -5 0 -7 -4 -4 -10 3
-5 1 -10 -5 -10 -6 0 -8 -4 -5 -10 3 -5 1 -10 -4 -10 -6 0 -11 -6 -11 -14 0
-7 -7 -19 -15 -26 -8 -7 -12 -16 -9 -21 3 -5 -2 -12 -10 -15 -9 -3 -13 -10
-10 -15 3 -5 -2 -12 -10 -15 -9 -3 -14 -10 -11 -14 3 -5 -3 -16 -12 -26 -10
-10 -17 -20 -15 -23 1 -3 -5 -14 -13 -24 -8 -9 -15 -24 -15 -32 0 -8 -4 -15
-10 -15 -5 0 -10 -7 -10 -15 0 -8 -4 -15 -9 -15 -8 0 -24 -37 -22 -52 1 -5 -4
-8 -9 -8 -6 0 -15 -10 -20 -22 -6 -13 -19 -36 -30 -53 -10 -16 -27 -46 -37
-65 -9 -19 -19 -37 -22 -40 -7 -6 -29 -43 -49 -82 -7 -16 -18 -28 -23 -28 -6
0 -8 -4 -5 -9 3 -4 -3 -19 -14 -31 -11 -13 -20 -29 -20 -35 0 -7 -7 -18 -15
-25 -8 -7 -13 -15 -10 -19 2 -4 -5 -15 -16 -24 -10 -9 -19 -26 -19 -37 0 -12
-4 -18 -10 -15 -9 6 -14 -8 -11 -28 1 -4 -6 -10 -14 -13 -8 -3 -12 -10 -9 -15
3 -5 0 -9 -6 -9 -6 0 -8 -4 -5 -10 3 -5 2 -10 -4 -10 -6 0 -13 -11 -17 -25 -3
-14 -10 -25 -14 -25 -7 0 -22 -42 -17 -47 1 -1 -7 -8 -17 -16 -12 -9 -16 -19
-11 -27 5 -8 4 -11 -3 -6 -6 4 -18 -6 -27 -24 -8 -16 -12 -30 -8 -30 5 0 0 -5
-9 -11 -10 -5 -18 -17 -18 -24 0 -8 -4 -15 -10 -15 -5 0 -10 -6 -10 -14 0 -8
-7 -22 -16 -30 -8 -9 -13 -16 -9 -16 3 0 -4 -15 -17 -32 -13 -18 -23 -35 -23
-38 0 -3 -10 -19 -22 -36 -12 -17 -20 -34 -16 -37 3 -4 -2 -9 -11 -13 -9 -3
-14 -9 -11 -14 2 -4 -5 -17 -16 -28 -11 -12 -17 -22 -13 -22 4 0 -1 -9 -10
-19 -10 -11 -16 -23 -13 -28 3 -4 44 -7 91 -6 47 1 88 -2 91 -8 4 -5 12 -6 18
-2 19 12 151 11 159 -1 6 -8 8 -8 8 0 0 6 11 10 25 8 14 -2 36 -6 50 -8 13 -2
22 0 20 5 -3 4 4 7 15 6 11 -1 20 -5 20 -10 0 -5 7 -3 17 4 13 11 17 11 20 2
3 -9 10 -10 24 -3 14 8 19 7 19 -2 0 -10 2 -10 9 1 6 9 11 10 15 2 4 -6 13 -8
19 -4 17 10 37 13 37 4 0 -4 9 -7 20 -7 11 0 20 4 20 7 0 4 13 4 29 -1 15 -4
34 -4 41 0 7 5 25 4 39 -2 17 -6 27 -6 29 1 2 6 9 8 15 4 6 -3 63 -7 126 -8
64 0 122 -4 129 -8 6 -5 12 -4 12 1 0 10 147 8 157 -2 3 -3 12 -1 20 5 10 9
13 8 13 -2 0 -9 3 -10 8 -4 4 7 40 9 95 5 49 -3 97 -2 108 2 10 4 19 4 19 0 0
-11 104 -8 112 3 5 7 8 7 8 0 0 -6 48 -10 124 -10 82 0 122 -3 118 -10 -3 -5
1 -5 9 2 16 13 36 12 57 0 6 -5 12 -4 12 0 0 10 87 10 96 0 4 -4 13 -2 21 4
10 9 13 8 13 -1 0 -10 3 -10 14 -1 10 8 16 9 21 1 4 -7 12 -7 26 0 13 8 19 7
19 0 0 -7 6 -8 18 -1 13 7 23 6 30 -1 9 -9 12 -9 12 2 0 10 3 11 11 3 7 -7 21
-8 40 -3 17 5 31 5 34 -1 4 -5 14 -5 26 1 10 6 19 7 19 2 0 -10 50 -9 67 1 6
4 14 3 18 -3 9 -14 45 6 45 25 0 8 5 15 11 15 5 0 7 5 4 10 -3 6 -1 10 5 10 6
0 8 5 5 10 -3 6 -1 10 5 10 6 0 8 5 5 10 -3 6 1 10 9 10 9 0 15 3 15 8 -3 19
3 33 24 53 12 12 16 19 10 15 -19 -11 -16 2 7 26 11 12 20 28 20 35 0 7 5 13
10 13 6 0 10 9 10 21 0 11 5 17 10 14 6 -3 10 1 10 10 0 9 9 29 20 45 11 17
29 44 41 61 12 17 22 37 23 45 1 8 10 24 19 34 9 11 14 20 10 20 -3 0 1 8 10
18 10 10 14 22 10 25 -3 4 -1 7 5 7 7 0 12 7 12 15 0 8 4 15 9 15 8 0 22 34
18 45 -1 2 7 11 18 19 11 9 16 16 12 16 -5 0 -1 7 7 16 9 8 16 22 16 30 0 8 3
14 8 14 4 0 16 20 27 45 11 25 23 45 28 45 4 0 7 7 7 15 0 9 6 18 14 21 8 3
13 11 10 18 -2 6 4 21 15 33 11 11 17 24 14 27 -4 3 -2 6 4 6 5 0 18 18 28 40
10 22 22 40 27 40 5 0 7 4 3 9 -3 5 2 16 11 25 8 9 12 21 8 27 -4 7 -3 9 3 6
10 -6 19 5 21 26 1 4 10 19 22 34 11 14 20 32 20 39 0 8 5 14 11 14 5 0 7 5 4
10 -3 6 -2 10 3 10 5 0 24 30 43 67 19 38 42 77 51 87 10 11 18 25 18 31 0 7
9 22 20 35 11 12 17 27 14 31 -3 5 0 9 5 9 6 0 11 7 11 15 0 8 5 15 11 15 5 0
7 5 4 10 -3 6 -2 10 3 10 4 0 14 16 22 35 8 19 17 35 22 35 4 0 8 6 8 14 0 7
7 19 15 26 8 7 12 16 9 21 -3 5 0 9 5 9 6 0 11 6 11 13 0 8 9 24 20 37 11 13
20 29 20 37 0 7 4 13 10 13 5 0 6 7 3 17 -4 10 -2 14 4 10 6 -4 14 4 17 18 4
14 11 25 17 25 6 0 7 5 4 10 -3 6 -1 10 4 10 6 0 11 7 11 15 0 8 5 15 10 15 6
0 9 3 9 8 -3 20 2 32 13 26 6 -4 8 -3 5 3 -4 6 2 22 13 35 11 14 17 28 14 30
-2 3 2 11 11 18 8 7 15 19 15 26 0 8 4 14 9 14 5 0 12 11 15 25 4 14 11 25 17
25 6 0 8 4 5 9 -3 4 3 19 14 31 11 12 17 27 14 31 -3 5 -1 9 5 9 12 0 45 60
34 60 -5 0 0 5 10 11 9 5 17 14 17 19 0 5 17 37 37 72 21 35 36 66 35 71 -1 4
2 7 8 7 5 0 10 7 10 15 0 9 7 18 15 21 10 4 13 13 9 26 -4 12 -2 18 3 15 10
-6 38 40 35 56 -1 4 2 7 8 7 5 0 10 7 10 16 0 9 5 12 12 8 8 -5 9 -2 5 9 -3
10 -2 17 4 17 6 0 8 4 5 9 -3 5 1 12 10 15 8 3 12 10 9 16 -3 5 -1 10 5 10 6
0 8 5 5 10 -3 6 -2 10 3 10 5 0 15 13 22 30 7 16 21 39 31 52 11 12 17 28 15
35 -3 7 -1 13 3 13 5 0 19 19 31 43 12 23 29 50 38 60 9 10 17 25 18 34 2 9 7
19 12 22 5 3 12 16 16 29 4 12 12 20 17 17 5 -3 6 1 3 9 -3 9 -1 16 5 16 6 0
11 9 11 20 0 11 5 20 10 20 6 0 10 7 10 15 0 8 5 15 11 15 5 0 7 5 4 10 -3 6
-1 10 4 10 6 0 11 6 11 13 0 8 9 24 20 37 11 13 20 32 20 42 0 10 6 21 14 24
8 3 17 16 20 30 4 13 11 24 16 24 6 0 10 9 10 20 0 10 8 23 18 29 9 5 15 11
14 13 -6 5 21 58 30 58 4 0 7 3 6 8 -2 13 14 46 36 70 12 13 20 24 18 25 -2 1
0 10 3 19 4 10 12 15 19 11 6 -3 8 -3 4 2 -4 4 -3 14 4 22 6 7 8 16 5 20 -4 3
5 16 18 29 14 13 25 27 25 31 0 18 12 43 21 43 6 0 7 5 4 10 -3 6 1 13 9 16 9
3 14 10 11 14 -3 5 1 15 9 22 7 8 17 24 20 36 4 12 12 22 17 22 6 0 8 4 5 9
-3 5 1 14 9 21 8 7 12 16 9 21 -3 5 -1 9 4 9 6 0 15 14 21 30 5 17 15 30 21
30 6 0 8 5 5 10 -3 6 -1 10 5 10 7 0 10 7 6 15 -3 8 -1 15 4 15 5 0 17 16 26
35 9 19 20 35 25 35 5 0 8 3 7 8 -4 14 13 52 23 52 6 0 7 5 4 10 -3 6 -2 10 3
10 9 0 37 50 34 63 -1 4 2 7 8 7 5 0 10 7 10 15 0 9 7 18 15 21 8 4 13 10 10
14 -3 4 5 19 16 34 11 14 17 30 14 36 -3 5 -1 10 5 10 6 0 16 12 23 28 6 15
20 36 29 46 10 10 15 22 13 26 -2 4 5 16 15 28 11 12 20 27 20 35 0 8 11 26
25 41 13 14 19 26 12 26 -8 0 -8 3 -2 8 21 15 50 56 35 48 -13 -7 -13 -6 0 6
8 7 22 27 30 43 8 17 18 32 21 35 3 3 16 26 29 53 13 26 28 47 32 47 5 0 7 4
4 9 -3 5 2 19 12 32 10 13 26 41 37 62 11 20 24 37 29 37 5 0 6 3 3 6 -4 4 2
19 12 33 10 14 33 54 52 89 18 34 37 62 42 62 4 0 6 4 3 9 -3 5 1 14 9 21 8 7
12 16 9 21 -3 5 0 9 6 9 6 0 8 5 5 10 -3 6 -2 10 4 10 5 0 27 34 48 76 21 41
46 84 56 95 10 10 15 19 12 19 -4 0 2 12 13 28 11 15 23 37 26 50 4 12 12 22
18 22 5 0 8 7 4 15 -3 8 -2 15 3 15 5 0 16 11 25 24 13 21 14 27 2 38 -7 8
-16 23 -20 35 -4 12 -13 27 -21 33 -8 7 -15 21 -15 31 0 11 -7 19 -15 19 -8 0
-12 6 -9 13 2 7 -3 22 -13 33 -10 11 -19 26 -21 34 -2 8 -8 16 -13 18 -5 2 -9
10 -9 18 0 8 -4 14 -10 14 -5 0 -7 7 -4 15 4 9 0 15 -9 15 -8 0 -18 7 -21 16
-4 10 -2 13 7 8 6 -4 4 2 -5 13 -10 11 -18 23 -18 27 0 4 -7 14 -15 23 -8 8
-13 19 -10 24 4 5 -1 9 -10 9 -9 0 -14 4 -10 9 3 5 -2 16 -10 25 -9 8 -16 18
-16 20 -2 21 -13 46 -19 46 -5 0 -13 14 -19 31 -6 17 -14 28 -19 25 -4 -2 -9
5 -9 16 -1 12 -8 25 -15 29 -7 5 -8 9 -3 9 6 0 2 5 -7 11 -10 5 -18 18 -18 29
0 10 -4 20 -9 22 -5 2 -11 10 -13 18 -2 8 -5 17 -8 20 -12 12 -70 112 -70 121
0 5 -5 9 -10 9 -6 0 -9 3 -8 8 3 15 -15 42 -25 35 -6 -3 -7 -1 -3 6 10 15 -13
43 -28 34 -6 -4 -5 1 3 10 7 9 9 17 3 17 -5 0 -12 8 -15 18 -7 21 -37 71 -55
90 -7 7 -10 18 -7 23 4 5 1 9 -4 9 -6 0 -11 6 -11 14 0 8 -4 16 -8 18 -5 2
-20 26 -34 55 -14 29 -28 49 -32 46 -5 -5 -7 3 -6 22 1 3 -8 17 -20 32 -11 14
-20 32 -20 39 0 8 -4 14 -9 14 -5 0 -11 8 -14 18 -9 26 -58 106 -71 114 -7 5
-7 8 3 8 9 0 7 6 -7 19 -12 10 -19 21 -15 25 3 3 1 6 -5 6 -10 0 -22 24 -22
43 1 4 -5 14 -12 22 -7 8 -17 20 -23 27 -5 7 -17 22 -25 33 -13 17 -13 18 0
10 8 -4 4 3 -9 18 -12 14 -21 29 -18 34 5 8 -18 35 -25 28 -2 -2 -5 6 -5 18
-1 12 -7 23 -13 25 -5 2 -10 8 -10 14 0 6 -13 29 -28 52 -15 22 -36 57 -45 76
-10 19 -26 49 -36 65 -10 17 -16 34 -13 39 3 5 0 6 -6 2 -6 -3 -15 8 -22 29
-6 19 -18 39 -27 43 -8 5 -15 11 -14 13 2 13 -13 49 -20 49 -5 0 -9 7 -9 16 0
8 -4 12 -10 9 -5 -3 -7 0 -4 9 3 8 -4 24 -15 35 -12 12 -21 22 -21 24 -3 20
-14 47 -21 47 -5 0 -9 7 -9 15 0 8 -4 15 -10 15 -5 0 -9 3 -8 8 2 7 -21 53
-31 62 -3 3 -15 23 -27 45 -34 66 -66 120 -73 125 -4 3 -15 24 -25 48 -11 23
-26 42 -35 43 -10 0 -11 2 -4 6 9 3 4 17 -15 46 -15 23 -31 45 -37 49 -5 4 -6
8 -1 8 5 0 1 9 -9 20 -10 11 -14 20 -9 20 5 0 5 4 -1 8 -5 4 -21 27 -34 52
-13 25 -30 52 -38 61 -7 9 -10 19 -6 22 3 4 1 7 -5 7 -7 0 -12 7 -12 15 0 8
-4 15 -8 15 -5 0 -14 16 -22 35 -8 19 -18 35 -22 35 -5 0 -6 5 -3 10 3 6 1 10
-4 10 -6 0 -11 7 -11 15 0 8 -9 24 -20 35 -11 11 -20 21 -20 23 -3 20 -14 47
-21 47 -5 0 -9 7 -9 15 0 8 -4 15 -10 15 -5 0 -10 9 -10 20 0 11 -4 20 -10 20
-5 0 -10 7 -10 15 0 8 -5 15 -11 15 -5 0 -7 5 -4 10 3 6 3 10 -2 10 -9 0 -39
61 -35 73 1 4 -3 7 -9 7 -5 0 -15 14 -20 30 -6 17 -18 30 -27 30 -15 0 -15 2
-2 10 13 9 8 14 -12 11 -3 0 -5 7 -3 17 1 9 -1 19 -5 22 -15 10 -79 124 -74
132 3 4 -5 8 -18 9 -13 0 -18 3 -11 6 10 3 10 9 0 26 -7 12 -14 24 -17 27 -3
3 -16 26 -30 52 -13 26 -28 44 -34 41 -5 -3 -6 -1 -2 5 3 6 2 13 -4 17 -6 4
-8 11 -5 16 4 5 1 9 -4 9 -6 0 -11 7 -11 15 0 8 -5 15 -11 15 -5 0 -7 5 -4 10
3 6 -1 13 -9 16 -9 3 -14 10 -11 14 3 5 -1 14 -8 22 -7 7 -20 28 -28 46 -7 17
-17 32 -21 32 -5 0 -8 7 -8 15 0 8 -5 15 -11 15 -5 0 -8 4 -5 9 3 4 -3 19 -14
31 -11 12 -17 27 -14 31 3 5 -2 12 -10 15 -9 3 -13 11 -9 17 4 7 0 8 -12 3
-15 -5 -16 -4 -5 9 10 12 10 15 -3 15 -10 0 -14 6 -11 14 3 8 -8 29 -25 48
-16 19 -33 46 -36 61 -4 15 -11 27 -17 27 -5 0 -6 5 -3 10 3 6 3 10 -2 10 -4
0 -17 18 -27 40 -11 22 -23 40 -28 40 -4 0 -8 9 -8 21 0 11 -4 17 -10 14 -6
-3 -7 1 -4 9 4 10 1 16 -7 16 -7 0 -10 3 -6 6 3 4 1 12 -6 20 -34 38 -35 40
-43 72 -4 12 -10 22 -15 22 -5 0 -9 6 -9 13 0 7 -9 23 -20 35 -11 12 -20 29
-20 39 -1 22 -25 55 -33 46 -4 -3 -7 3 -7 15 0 12 -4 22 -8 22 -4 0 -14 16
-21 35 -7 19 -17 35 -22 35 -5 0 -9 9 -9 20 0 11 -4 20 -10 20 -5 0 -10 7 -10
15 0 7 -8 19 -17 24 -10 6 -14 11 -10 11 4 0 3 9 -3 20 -6 11 -16 17 -22 14
-6 -4 -8 -3 -4 4 7 12 -23 82 -36 82 -5 0 -6 5 -3 10 3 6 2 10 -3 10 -6 0 -15
12 -21 28 -16 37 -44 86 -53 90 -5 2 -8 10 -8 18 0 8 -5 14 -11 14 -5 0 -8 4
-4 9 3 6 -1 13 -9 18 -8 4 -15 10 -15 13 0 17 -22 60 -31 60 -6 0 -9 4 -6 8 7
12 -29 63 -39 55 -4 -5 -5 -2 -1 4 4 7 0 23 -8 34 -14 20 -24 22 -133 23 -65
1 -124 5 -130 9 -8 5 -13 4 -13 -2 0 -5 -9 -9 -20 -8 -11 1 -20 5 -20 10 0 5
-7 3 -17 -4 -13 -11 -17 -11 -20 -2 -3 9 -10 10 -24 3 -10 -6 -19 -7 -19 -3 0
4 -89 8 -198 8 -108 0 -201 2 -206 4 -6 3 -44 5 -85 5 -42 1 -82 5 -90 10 -10
6 -12 5 -7 -2 8 -13 -20 -12 -39 0 -6 4 -17 3 -25 -2 -8 -5 -22 -4 -33 2 -15
7 -18 7 -12 -2 6 -9 2 -9 -14 -1 -16 9 -21 9 -21 -1 0 -9 -3 -9 -10 2 -9 13
-10 13 -10 0 0 -9 -3 -11 -8 -5 -8 12 -22 13 -39 2 -7 -5 -13 -4 -13 2 0 10
-19 9 -37 -2 -7 -5 -13 -4 -13 1 0 5 -35 8 -77 8 -43 -1 -88 2 -100 6 -14 4
-23 3 -23 -3 0 -6 -7 -6 -20 1 -15 8 -20 8 -20 -2 0 -10 -2 -10 -9 1 -6 10
-10 10 -16 1 -6 -9 -10 -9 -16 1 -8 12 -10 12 -18 0 -5 -7 -11 -9 -14 -5 -3 5
-51 9 -106 9 -56 0 -101 4 -101 8 0 4 -9 3 -20 -3 -15 -8 -20 -8 -20 1 0 8 -4
8 -15 -1 -11 -9 -15 -9 -15 -1 0 8 -5 9 -19 1 -14 -7 -22 -7 -27 1 -4 8 -9 7
-15 -2 -5 -8 -9 -9 -9 -4 0 12 -79 14 -97 2 -6 -4 -14 -4 -17 1 -3 5 -47 9
-98 10 -51 1 -105 4 -120 6 -16 2 -28 -2 -28 -8 0 -7 -3 -7 -8 -1 -4 6 -43 10
-87 10 -44 -1 -86 3 -92 8 -8 6 -13 6 -13 -1 0 -7 -10 -8 -29 -2 -26 7 -29 6
-28 -11z"/>
<path d="M5560 18380 c0 -6 -4 -9 -10 -5 -11 7 -50 -25 -50 -41 0 -6 -11 -24
-24 -39 -14 -16 -23 -32 -20 -37 3 -4 1 -8 -3 -8 -5 0 -17 -13 -26 -30 -10
-16 -15 -30 -11 -30 4 0 -3 -8 -14 -19 -12 -10 -19 -20 -17 -23 3 -3 -1 -11
-10 -18 -8 -7 -15 -19 -15 -26 0 -8 -4 -14 -10 -14 -5 0 -10 -7 -10 -15 0 -8
-5 -15 -12 -15 -6 0 -9 -3 -5 -6 3 -3 1 -11 -4 -18 -23 -27 -92 -142 -92 -153
0 -7 -4 -13 -8 -13 -8 0 -60 -86 -58 -96 0 -4 -3 -10 -8 -13 -13 -10 -48 -65
-45 -73 1 -5 -2 -8 -8 -8 -5 0 -10 -7 -10 -15 0 -8 -4 -15 -10 -15 -5 0 -10
-7 -10 -15 0 -8 -4 -15 -9 -15 -5 0 -15 -16 -22 -35 -7 -19 -16 -35 -20 -35
-4 0 -10 -8 -14 -19 -3 -10 -14 -29 -25 -41 -11 -12 -17 -27 -14 -31 3 -5 0
-9 -7 -9 -7 0 -10 -3 -7 -6 3 -3 -5 -17 -18 -31 -13 -14 -24 -30 -24 -35 0 -6
-10 -24 -22 -41 -25 -35 -32 -46 -67 -109 -12 -24 -29 -47 -37 -51 -8 -4 -14
-16 -14 -27 0 -10 -3 -20 -7 -22 -10 -4 -73 -107 -73 -119 0 -5 -5 -9 -11 -9
-5 0 -8 -4 -5 -9 3 -5 -1 -11 -9 -15 -8 -3 -15 -12 -15 -19 0 -8 -7 -20 -15
-27 -8 -7 -12 -16 -9 -21 3 -5 0 -9 -6 -9 -6 0 -8 -4 -5 -10 3 -5 2 -10 -4
-10 -5 0 -20 -20 -32 -45 -12 -25 -27 -45 -31 -45 -5 0 -7 -4 -4 -9 4 -5 2
-11 -3 -13 -9 -3 -40 -52 -63 -98 -7 -14 -15 -27 -18 -30 -11 -10 -40 -60 -35
-60 3 0 -4 -9 -15 -20 -11 -11 -20 -27 -20 -35 0 -8 -4 -15 -9 -15 -5 0 -14
-13 -21 -30 -7 -16 -17 -30 -22 -30 -5 0 -6 -4 -3 -10 3 -5 2 -10 -3 -10 -4 0
-19 -20 -31 -45 -12 -24 -27 -47 -32 -51 -11 -6 -33 -57 -27 -62 2 -2 -5 -8
-15 -13 -9 -6 -15 -14 -12 -20 4 -5 1 -9 -6 -9 -10 0 -10 -3 -2 -11 7 -7 17
-8 29 -1 11 5 28 6 39 2 11 -4 26 -3 33 3 10 8 16 7 21 -2 7 -10 13 -11 31 -1
17 9 21 9 15 0 -6 -9 -3 -9 13 -1 14 8 21 8 24 0 2 -7 12 -7 31 0 15 6 27 7
27 3 0 -4 13 -7 30 -8 16 -1 28 2 26 5 -2 3 7 6 20 6 13 0 24 -4 24 -9 0 -4 8
-5 18 -1 19 9 46 9 80 0 13 -3 21 -2 18 3 -7 11 37 10 45 -2 4 -4 15 -4 25 2
11 6 27 7 41 1 14 -5 25 -4 29 2 4 7 10 6 19 -1 10 -8 14 -7 18 2 4 10 6 10 6
-1 1 -11 4 -11 18 0 14 12 15 12 9 1 -7 -11 -4 -12 12 -3 15 8 21 8 25 -2 3
-9 7 -9 19 1 11 9 17 9 20 2 2 -8 11 -8 31 -1 15 6 27 7 27 3 0 -4 13 -7 30
-8 16 -1 27 2 25 6 -6 10 39 7 46 -4 4 -4 17 -3 29 4 17 9 21 9 15 0 -6 -9 -3
-9 13 -1 14 8 21 8 24 0 2 -7 12 -7 31 0 15 6 27 7 27 2 0 -10 19 -9 37 2 6 4
15 2 19 -4 4 -8 9 -7 15 2 7 12 9 12 9 0 0 -11 3 -11 17 0 14 12 15 12 9 1 -7
-11 -4 -12 13 -3 11 7 21 8 21 4 0 -5 18 -8 39 -8 22 0 38 2 36 5 -2 3 8 5 21
5 13 0 24 -4 24 -9 0 -4 8 -5 18 -1 19 9 46 9 80 0 13 -3 21 -2 18 3 -7 11 37
10 45 -2 4 -4 17 -3 29 4 17 9 21 9 15 0 -6 -9 -3 -9 13 -1 14 8 21 8 24 0 2
-7 12 -7 31 0 15 6 27 7 27 3 0 -4 13 -7 30 -8 16 -1 27 2 25 6 -6 10 39 7 46
-4 4 -4 17 -3 29 4 17 9 21 9 15 0 -6 -9 -3 -9 13 -1 14 8 21 8 24 0 2 -7 12
-7 31 0 20 8 27 7 27 -2 0 -8 3 -8 9 2 6 9 10 10 12 2 3 -9 12 -9 32 -2 15 6
27 7 27 3 0 -4 13 -7 30 -8 16 -1 27 2 25 6 -6 10 39 7 46 -4 4 -4 17 -3 29 4
17 9 21 9 15 0 -6 -9 -3 -9 13 -1 14 8 21 8 24 0 2 -7 12 -7 31 0 15 6 27 7
27 2 0 -10 19 -9 37 2 6 4 15 2 19 -4 4 -8 9 -7 15 2 7 12 9 12 9 0 0 -11 3
-11 17 0 14 12 15 12 9 1 -7 -11 -4 -12 12 -3 15 8 21 8 25 -2 3 -9 7 -9 19 1
11 9 17 9 20 2 2 -8 11 -8 31 -1 15 6 27 7 27 3 0 -4 13 -7 30 -8 16 -1 27 2
25 6 -6 10 39 7 46 -4 4 -4 17 -3 29 4 17 9 21 9 15 0 -6 -9 -3 -9 13 -1 14 8
21 8 24 0 2 -7 12 -7 31 0 15 6 27 7 27 2 0 -10 19 -9 37 2 6 4 15 2 19 -4 4
-8 9 -7 15 2 7 12 9 12 9 0 0 -11 3 -11 17 0 14 12 15 12 9 1 -7 -11 -4 -12
13 -3 12 7 21 8 21 2 0 -11 39 -9 57 2 6 4 15 2 19 -4 4 -8 9 -7 15 2 7 12 9
12 9 0 0 -11 3 -11 17 0 14 12 15 12 9 1 -7 -11 -4 -12 12 -3 15 8 21 8 25 -2
3 -9 7 -9 19 1 11 9 17 9 20 2 2 -8 11 -8 31 -1 15 6 27 7 27 3 0 -4 13 -7 30
-8 16 -1 27 2 25 6 -6 10 39 7 46 -4 4 -4 17 -3 29 4 17 9 21 9 15 0 -6 -9 -3
-9 13 -1 14 8 21 8 24 0 2 -7 12 -7 31 0 15 6 27 7 27 2 0 -10 19 -9 37 2 6 4
15 2 19 -4 4 -8 9 -7 15 2 7 12 9 12 9 0 0 -11 3 -11 17 0 14 12 15 12 9 1 -7
-11 -4 -12 12 -3 15 8 21 8 25 -2 3 -9 7 -9 19 1 11 9 17 9 20 2 2 -8 11 -8
31 -1 15 6 27 7 27 3 0 -4 13 -7 30 -8 16 -1 27 2 25 6 -6 10 39 7 46 -4 4 -4
17 -3 29 4 17 9 21 9 15 0 -6 -9 -3 -9 13 -1 14 8 21 8 24 0 2 -7 12 -7 31 0
20 8 27 7 27 -2 0 -8 3 -8 9 2 6 9 10 10 12 2 3 -9 12 -9 32 -2 15 6 27 7 27
3 0 -4 13 -7 30 -8 16 -1 27 2 25 6 -6 10 39 7 46 -4 4 -4 17 -3 29 4 17 9 21
9 15 0 -6 -9 -3 -9 13 -1 14 8 21 8 24 0 2 -7 12 -7 31 0 15 6 27 7 27 3 0 -4
13 -7 30 -8 16 -1 28 2 26 5 -2 3 7 6 20 6 13 0 24 -4 24 -9 0 -4 8 -5 18 -1
19 9 46 9 80 0 13 -3 21 -2 18 3 -7 11 37 10 45 -2 4 -4 15 -4 25 2 11 6 27 7
41 1 14 -5 25 -4 29 2 4 7 10 6 19 -1 10 -8 14 -7 18 2 4 10 6 10 6 -1 1 -11
4 -11 18 0 14 12 15 12 9 1 -7 -11 -4 -12 12 -3 15 8 21 8 25 -2 3 -9 7 -9 19
1 11 9 17 9 20 2 2 -8 11 -8 31 -1 15 6 27 7 27 3 0 -4 13 -7 30 -8 16 -1 27
2 25 6 -6 10 39 7 46 -4 4 -4 17 -3 29 4 17 9 21 9 15 0 -6 -9 -3 -9 13 -1 14
8 21 8 24 0 2 -7 12 -7 31 0 15 6 27 7 27 2 0 -10 19 -9 37 2 6 4 15 2 19 -4
4 -8 9 -7 15 2 7 12 9 12 9 0 0 -11 3 -11 17 0 14 12 15 12 9 1 -7 -11 -4 -12
13 -3 11 7 21 8 21 4 0 -5 18 -8 39 -8 22 0 38 2 36 5 -2 3 8 5 21 5 13 0 24
-4 24 -9 0 -4 8 -5 18 -1 19 9 46 9 80 0 13 -3 21 -2 18 3 -7 11 37 10 45 -2
4 -4 17 -3 29 4 17 9 21 9 15 0 -6 -9 -3 -9 13 -1 14 8 21 8 24 0 2 -7 12 -7
31 0 15 6 27 7 27 3 0 -4 13 -7 30 -8 16 -1 27 2 25 6 -6 10 39 7 46 -4 4 -4
17 -3 29 4 17 9 21 9 15 0 -6 -9 -3 -9 13 -1 14 8 21 8 24 0 2 -7 12 -7 31 0
20 8 27 7 27 -2 0 -8 3 -8 9 2 6 9 10 10 12 2 3 -9 12 -9 32 -2 15 6 27 7 27
3 0 -4 13 -7 30 -8 16 -1 27 2 25 6 -6 10 39 7 46 -4 4 -4 17 -3 29 4 17 9 21
9 15 0 -6 -9 -3 -9 13 -1 14 8 21 8 24 0 2 -7 12 -7 31 0 15 6 27 7 27 3 0 -4
13 -7 30 -8 16 -1 28 2 26 5 -2 3 7 6 20 6 13 0 24 -4 24 -9 0 -4 8 -5 18 -1
19 9 46 9 80 0 13 -3 21 -2 18 3 -7 11 37 10 45 -2 4 -4 15 -4 25 2 11 6 27 7
41 1 14 -5 25 -4 29 2 4 6 11 6 20 -2 11 -9 14 -8 14 2 0 11 2 11 10 -1 9 -13
11 -13 20 0 8 13 10 13 10 -2 0 -9 11 -34 25 -54 14 -20 25 -43 25 -50 0 -8 5
-14 11 -14 5 0 8 -4 5 -9 -3 -5 1 -14 9 -21 8 -7 15 -19 15 -26 0 -8 5 -14 11
-14 5 0 7 -4 4 -10 -3 -5 -3 -10 2 -10 4 0 17 -18 27 -40 11 -22 23 -40 28
-40 4 0 8 -3 7 -7 -2 -16 14 -53 23 -53 5 0 6 -4 3 -10 -3 -5 -2 -10 3 -10 5
0 12 -8 15 -17 4 -10 22 -45 42 -78 19 -33 45 -79 56 -102 12 -24 25 -43 31
-43 5 0 7 -4 4 -9 -3 -5 1 -14 9 -21 8 -7 12 -16 9 -21 -3 -5 -1 -9 3 -9 5 0
19 -22 32 -50 13 -27 28 -50 33 -50 5 0 8 -6 6 -12 -3 -7 4 -21 14 -32 10 -11
18 -26 18 -33 0 -7 4 -13 10 -13 5 0 9 -3 8 -7 -3 -13 25 -63 34 -63 5 0 6 -4
3 -10 -3 -5 -1 -10 5 -10 6 0 9 -4 6 -9 -4 -5 -2 -11 3 -13 5 -1 11 -10 13
-18 3 -14 7 -20 36 -54 7 -9 12 -19 12 -23 0 -18 12 -43 21 -43 6 0 8 -4 4 -9
-3 -5 5 -20 17 -33 13 -13 24 -30 26 -38 2 -8 9 -18 15 -22 7 -4 8 -8 4 -8 -9
0 24 -60 33 -60 4 0 7 -6 7 -13 0 -6 12 -31 26 -55 15 -23 24 -42 20 -42 -5 0
0 -5 10 -11 9 -6 15 -14 12 -20 -4 -5 -1 -9 4 -9 6 0 11 -7 11 -15 0 -8 5 -15
12 -15 6 0 9 -3 5 -6 -3 -3 5 -24 19 -45 13 -21 24 -43 24 -49 0 -5 5 -10 10
-10 6 0 10 -7 10 -15 0 -8 5 -15 11 -15 5 0 8 -4 5 -8 -3 -5 4 -21 15 -38 11
-16 24 -38 30 -49 5 -11 20 -38 33 -60 13 -22 22 -43 19 -47 -2 -5 1 -8 7 -8
6 0 16 -13 21 -30 6 -16 15 -30 21 -30 5 0 6 -4 3 -10 -3 -5 -1 -10 4 -10 6 0
11 -5 11 -10 0 -6 11 -28 24 -49 14 -21 22 -42 19 -45 -4 -3 -1 -6 5 -6 7 0
12 -7 12 -15 0 -8 4 -15 8 -15 5 0 14 -16 22 -35 8 -19 17 -35 21 -35 4 0 10
-11 13 -25 4 -14 11 -25 17 -25 6 0 8 -4 4 -9 -3 -5 1 -16 9 -24 8 -8 12 -17
9 -21 -4 -3 -1 -6 5 -6 7 0 12 -7 12 -15 0 -8 5 -15 11 -15 5 0 8 -4 5 -9 -3
-5 1 -14 9 -21 8 -7 15 -16 15 -20 0 -8 91 -172 100 -180 3 -3 14 -23 25 -45
11 -22 29 -55 42 -74 12 -19 20 -38 17 -43 -3 -4 -1 -8 4 -8 4 0 18 -19 31
-42 47 -89 66 -123 71 -128 3 -3 12 -18 20 -35 8 -16 17 -32 20 -35 3 -3 10
-14 16 -25 6 -11 23 -42 38 -70 16 -27 44 -79 64 -115 20 -36 40 -66 44 -68 4
-2 8 -12 8 -23 0 -10 3 -19 8 -19 4 0 13 -15 21 -32 8 -18 17 -35 20 -38 7 -5
49 -82 66 -117 5 -13 13 -23 18 -23 4 0 7 -9 7 -20 0 -11 4 -20 8 -20 10 0 37
-50 34 -62 -1 -5 2 -8 8 -8 5 0 10 -7 10 -15 0 -8 5 -15 11 -15 5 0 7 -4 4
-10 -3 -5 -1 -10 4 -10 6 0 10 -3 9 -7 -2 -13 14 -43 21 -39 4 3 8 -5 8 -17 1
-12 7 -23 13 -25 5 -2 10 -9 10 -16 0 -7 8 -21 18 -32 9 -11 18 -25 19 -31 1
-6 16 -34 33 -62 16 -29 30 -56 30 -61 0 -6 5 -10 11 -10 5 0 7 -4 4 -10 -3
-5 -1 -10 5 -10 6 0 8 -4 5 -10 -3 -5 -1 -10 4 -10 6 0 11 -5 11 -11 0 -6 7
-17 15 -26 8 -8 13 -19 10 -24 -4 -5 -1 -9 4 -9 6 0 11 -7 11 -15 0 -8 5 -15
10 -15 6 0 10 -9 10 -20 0 -11 3 -20 8 -20 8 0 12 -7 52 -89 14 -28 28 -51 32
-51 5 0 8 -7 8 -15 0 -8 5 -15 10 -15 6 0 9 -3 8 -7 -2 -9 41 -95 51 -103 3
-3 13 -18 22 -35 48 -88 84 -152 96 -171 7 -11 10 -24 6 -27 -3 -4 -1 -7 5 -7
6 0 22 -21 35 -47 30 -61 50 -97 58 -103 3 -3 12 -20 20 -37 8 -18 17 -33 21
-33 5 0 8 -7 8 -15 0 -8 8 -23 18 -33 9 -10 19 -27 20 -37 2 -11 7 -22 11 -25
3 -3 18 -26 31 -52 14 -27 29 -48 34 -48 4 0 6 -7 2 -15 -3 -8 -1 -15 4 -15 5
0 12 -9 15 -20 4 -12 11 -17 18 -14 7 4 9 3 4 -1 -4 -5 0 -19 8 -32 9 -13 12
-23 9 -23 -4 0 0 -8 8 -17 8 -10 26 -38 39 -63 13 -25 26 -47 29 -50 3 -3 16
-27 30 -55 14 -27 28 -51 33 -53 4 -2 7 -10 7 -18 0 -8 5 -14 11 -14 5 0 7 -5
4 -10 -3 -6 -1 -10 6 -10 7 0 9 -3 6 -7 -4 -3 3 -17 15 -30 12 -12 19 -26 15
-29 -3 -4 -1 -12 6 -20 30 -34 35 -42 29 -49 -4 -4 2 -5 13 -3 11 2 20 8 20
13 0 6 24 48 53 95 29 47 52 89 52 93 -1 4 5 14 12 22 26 28 34 41 51 75 10
19 26 49 37 65 23 37 42 70 64 111 9 18 23 37 31 44 8 7 15 17 15 22 0 18 87
157 94 151 4 -4 4 0 0 10 -3 10 -1 17 5 17 6 0 11 5 11 10 0 6 22 46 50 90 27
44 51 85 52 92 2 7 12 21 22 30 10 10 15 18 11 18 -4 0 0 9 10 20 10 11 14 20
9 20 -5 0 0 7 10 15 11 8 16 15 11 15 -4 0 -1 8 7 18 28 32 68 109 60 116 -4
4 -2 6 3 4 6 -1 11 2 13 7 2 6 10 17 18 26 8 9 11 19 7 22 -3 4 -1 7 5 7 7 0
20 18 29 40 10 22 21 40 25 40 5 0 8 4 8 10 0 5 16 34 35 64 19 30 35 60 35
66 0 5 5 10 10 10 6 0 10 10 10 22 0 12 3 19 6 15 4 -3 14 8 23 26 30 55 63
112 70 117 3 3 13 19 21 35 8 17 23 42 33 58 10 15 15 27 10 27 -4 0 0 5 10
11 9 6 15 14 12 20 -4 5 -1 9 4 9 6 0 11 7 11 15 0 8 3 15 8 15 4 0 16 18 26
40 10 22 27 48 38 60 10 11 16 20 13 20 -3 0 2 14 12 30 9 16 21 30 26 30 4 0
5 5 2 10 -3 6 -1 10 5 10 6 0 8 5 5 10 -3 6 -2 10 3 10 4 0 18 20 30 44 23 45
28 71 13 62 -4 -3 -14 12 -21 34 -7 22 -16 38 -19 35 -4 -2 -18 21 -31 51 -14
30 -28 54 -32 54 -5 0 -8 6 -8 14 0 8 -3 16 -7 18 -5 2 -21 29 -38 61 -16 31
-34 57 -39 57 -5 0 -6 3 -3 6 3 4 -3 18 -13 32 -11 13 -20 33 -20 44 0 11 -4
16 -10 13 -5 -3 -10 1 -10 9 0 9 -5 16 -10 16 -6 0 -10 3 -9 8 3 17 -14 51
-27 56 -8 3 -14 15 -14 26 0 11 -4 20 -9 20 -5 0 -11 8 -15 18 -3 9 -20 40
-36 67 -17 28 -34 58 -37 67 -3 9 -11 19 -19 22 -7 3 -11 12 -8 21 3 8 1 15
-5 15 -6 0 -11 7 -11 15 0 8 -4 15 -10 15 -5 0 -10 7 -10 15 0 8 -5 15 -12 15
-6 0 -9 3 -6 6 4 3 -5 22 -18 41 -13 19 -22 39 -19 43 3 4 -2 10 -10 14 -8 3
-15 12 -15 19 0 8 -9 24 -20 37 -11 13 -20 29 -20 37 0 7 -5 13 -11 13 -5 0
-8 4 -5 9 3 5 -1 14 -9 21 -8 7 -15 19 -15 26 0 8 -3 14 -7 14 -5 0 -19 23
-32 50 -14 28 -29 50 -33 50 -4 0 -8 9 -8 20 0 11 -4 20 -10 20 -5 0 -10 7
-10 15 0 8 -5 15 -11 15 -5 0 -8 4 -5 9 3 5 -1 14 -9 21 -8 7 -15 18 -15 25 0
8 -3 15 -7 17 -5 2 -21 29 -38 62 -16 32 -36 61 -42 63 -7 3 -11 8 -9 12 3 4
-11 31 -30 61 -19 30 -34 60 -34 67 0 7 -4 13 -9 13 -5 0 -15 16 -22 35 -7 19
-17 35 -21 35 -4 0 -8 6 -8 14 0 8 -3 16 -7 18 -5 2 -19 24 -32 50 -13 26 -31
55 -41 65 -9 10 -15 24 -12 31 2 6 -1 12 -8 12 -6 0 -8 5 -5 10 3 6 2 10 -3
10 -5 0 -17 15 -26 33 -9 17 -30 55 -47 82 -16 28 -32 58 -36 68 -3 9 -10 17
-15 17 -5 0 -6 5 -3 10 3 6 2 10 -4 10 -6 0 -13 11 -17 25 -3 14 -10 25 -16
25 -5 0 -6 5 -3 10 3 6 -1 13 -9 16 -9 3 -14 10 -11 14 3 4 -2 13 -10 20 -8 7
-15 18 -15 24 0 7 -8 21 -17 32 -10 11 -19 25 -20 32 -2 6 -21 41 -43 77 -22
36 -40 70 -40 75 0 6 -5 10 -12 10 -6 0 -9 3 -5 6 3 4 -4 21 -17 38 -13 17
-29 46 -37 64 -8 17 -17 32 -21 32 -5 0 -8 5 -8 10 0 6 -11 27 -24 48 -12 20
-24 40 -24 45 -1 4 -17 32 -37 62 -19 31 -35 60 -35 65 0 6 -3 10 -7 10 -5 0
-13 10 -19 23 -20 44 -59 111 -72 125 -7 7 -10 18 -7 23 4 5 2 9 -3 9 -7 0
-56 76 -57 90 0 3 -13 24 -28 47 -15 24 -27 47 -27 53 0 5 -3 10 -7 10 -5 0
-13 10 -18 23 -23 48 -61 113 -77 131 -10 10 -15 23 -12 28 3 4 -2 11 -10 14
-9 3 -14 9 -11 13 2 4 -7 24 -20 44 -14 20 -25 41 -25 46 0 6 -4 11 -10 11 -5
0 -10 6 -10 14 0 7 -9 25 -20 39 -11 14 -20 32 -20 41 0 9 -4 16 -8 16 -5 0
-20 21 -33 48 -13 26 -27 49 -31 50 -5 2 -8 10 -8 18 0 8 -4 14 -10 14 -5 0
-10 9 -10 19 0 11 -4 21 -8 23 -9 3 -69 106 -73 123 -1 6 -9 15 -18 22 -9 7
-13 13 -9 13 4 0 -8 24 -27 54 -19 29 -31 56 -28 60 4 3 2 6 -4 6 -6 0 -26 28
-43 63 -18 34 -36 64 -39 67 -3 3 -15 22 -26 43 -11 20 -23 37 -28 37 -4 0 -5
5 -2 11 4 6 -1 17 -11 24 -11 8 -15 15 -11 15 5 0 -1 12 -12 26 -12 15 -21 33
-21 40 0 8 -4 14 -10 14 -5 0 -10 7 -10 15 0 8 -4 15 -8 15 -4 0 -13 15 -20
33 -7 18 -21 43 -32 55 -12 12 -18 22 -14 22 4 0 -1 9 -11 20 -10 11 -14 20
-10 20 4 0 1 8 -7 18 -8 9 -26 37 -39 62 -13 25 -26 47 -29 50 -6 6 -29 46
-47 82 -8 15 -19 30 -24 33 -5 4 -7 11 -4 16 4 5 1 9 -4 9 -6 0 -11 6 -11 13
0 7 -8 22 -17 33 -10 11 -19 26 -21 34 -2 8 -10 22 -17 30 -7 8 -15 22 -17 30
-2 8 -5 17 -8 20 -13 13 -60 90 -54 90 3 0 -1 7 -8 15 -23 26 -33 40 -36 55
-2 8 -10 22 -18 31 -8 9 -11 19 -7 22 3 4 2 7 -4 7 -6 0 -16 14 -22 30 -5 17
-15 30 -21 30 -6 0 -8 5 -5 10 3 6 1 10 -5 10 -6 0 -9 4 -5 9 3 5 1 12 -4 16
-6 3 -20 26 -32 50 -12 25 -25 45 -29 45 -3 0 -12 15 -20 34 -11 30 -17 34
-42 31 -20 -3 -27 -1 -21 8 5 9 3 9 -8 1 -15 -12 -108 -12 -127 0 -7 4 -12 2
-12 -4 0 -8 -11 -9 -31 -5 -24 6 -30 4 -24 -5 6 -10 4 -11 -6 -4 -21 13 -429
13 -429 -1 0 -5 -5 -3 -10 5 -8 13 -13 13 -31 2 -15 -10 -19 -10 -14 -1 6 8 1
11 -18 7 -14 -3 -32 -1 -39 3 -7 5 -19 2 -29 -7 -13 -12 -19 -12 -25 -3 -5 8
-3 10 6 4 9 -5 11 -4 6 4 -5 7 -12 9 -19 3 -14 -10 -108 -9 -125 2 -7 4 -12 2
-12 -4 0 -8 -11 -9 -31 -5 -24 6 -30 4 -24 -5 6 -10 4 -11 -6 -4 -21 13 -109
14 -109 0 0 -6 -5 -4 -10 4 -8 13 -13 13 -31 2 -11 -8 -19 -10 -16 -5 3 5 -87
9 -209 9 -139 0 -214 -4 -214 -11 0 -5 -5 -3 -10 5 -8 13 -13 13 -31 2 -15
-10 -19 -10 -14 -1 6 8 1 11 -18 7 -14 -3 -32 -1 -39 3 -7 5 -19 2 -29 -7 -13
-12 -19 -12 -25 -3 -5 8 -3 10 6 4 9 -5 11 -4 6 4 -5 7 -12 9 -19 3 -14 -10
-108 -9 -125 2 -7 4 -12 2 -12 -4 0 -8 -11 -9 -31 -5 -24 6 -30 4 -24 -5 6
-10 4 -11 -6 -4 -21 13 -109 14 -109 0 0 -6 -5 -4 -10 4 -8 13 -13 13 -31 2
-11 -8 -18 -9 -15 -3 4 6 -14 9 -49 9 -32 -1 -55 -6 -55 -12 0 -6 -5 -4 -10 4
-8 13 -13 13 -31 2 -15 -10 -19 -10 -14 -1 6 8 1 11 -18 7 -14 -3 -32 -1 -39
3 -7 5 -19 2 -29 -7 -13 -12 -19 -12 -25 -3 -5 8 -3 10 6 4 9 -5 11 -4 6 4 -5
7 -12 9 -19 3 -14 -10 -108 -9 -125 2 -7 4 -12 2 -12 -4 0 -8 -11 -9 -31 -5
-24 6 -30 4 -24 -5 6 -10 4 -11 -6 -4 -21 13 -109 14 -109 0 0 -6 -5 -4 -10 4
-8 13 -13 13 -31 2 -11 -8 -18 -9 -15 -3 4 6 -14 9 -49 9 -32 -1 -55 -6 -55
-12 0 -6 -5 -4 -10 4 -8 13 -13 13 -31 2 -15 -10 -19 -10 -14 -1 6 8 1 11 -18
7 -14 -3 -32 -1 -39 3 -7 5 -19 2 -29 -7 -13 -12 -19 -12 -25 -3 -5 8 -3 10 6
4 9 -5 11 -4 6 4 -5 7 -12 9 -19 3 -14 -10 -108 -9 -125 2 -7 4 -12 2 -12 -4
0 -8 -11 -9 -31 -5 -24 6 -30 4 -24 -5 6 -10 4 -11 -6 -4 -21 13 -109 14 -109
0 0 -6 -5 -4 -10 4 -8 13 -13 13 -31 2 -11 -8 -18 -9 -15 -3 4 6 -14 9 -49 9
-32 -1 -55 -6 -55 -12 0 -6 -5 -4 -10 4 -8 13 -13 13 -31 2 -15 -10 -19 -10
-14 -1 6 8 1 11 -18 7 -14 -3 -32 -1 -39 3 -7 5 -19 2 -29 -7 -13 -12 -19 -12
-25 -3 -5 8 -3 10 6 4 9 -5 11 -4 6 4 -5 7 -12 9 -19 3 -14 -10 -108 -9 -125
2 -7 4 -12 2 -12 -4 0 -8 -11 -9 -31 -5 -24 6 -30 4 -24 -5 6 -10 4 -11 -6 -4
-21 13 -109 14 -109 0 0 -6 -5 -4 -10 4 -8 13 -13 13 -31 2 -11 -8 -19 -10
-16 -5 3 5 -87 9 -209 9 -139 0 -214 -4 -214 -11 0 -5 -5 -3 -10 5 -8 13 -13
13 -31 2 -15 -10 -19 -10 -14 -1 6 8 1 11 -18 7 -14 -3 -32 -1 -39 3 -7 5 -19
2 -29 -7 -13 -12 -19 -12 -25 -3 -5 8 -3 10 6 4 9 -5 11 -4 6 4 -5 7 -12 9
-19 3 -14 -10 -108 -9 -125 2 -7 4 -12 2 -12 -4 0 -8 -11 -9 -31 -5 -24 6 -30
4 -24 -5 6 -10 4 -11 -6 -4 -21 13 -109 14 -109 0 0 -6 -5 -4 -10 4 -8 13 -13
13 -31 2 -11 -8 -19 -9 -15 -4 3 5 -73 8 -185 8 -105 -1 -193 2 -196 7 -3 5
-13 1 -23 -8 -14 -12 -20 -13 -26 -4 -5 8 -3 10 6 4 9 -5 11 -4 6 4 -5 7 -12
9 -19 3 -14 -10 -108 -9 -125 2 -7 4 -12 2 -12 -4 0 -8 -11 -9 -31 -5 -25 6
-30 4 -23 -6 6 -11 5 -12 -7 -3 -8 6 -24 10 -37 9 -13 -1 -25 2 -28 7 -3 5
-14 2 -24 -7 -14 -12 -20 -13 -26 -4 -5 8 -3 10 6 4 9 -5 11 -4 6 4 -5 7 -12
9 -19 3 -14 -10 -108 -9 -125 2 -7 4 -12 2 -12 -4 0 -8 -11 -9 -31 -5 -24 6
-30 4 -24 -5 6 -10 4 -11 -6 -4 -20 13 -231 13 -248 0 -11 -8 -13 -8 -8 1 4 6
3 14 -3 18 -5 3 -10 1 -10 -5z"/>
<path d="M15570 17201 c0 -6 4 -13 10 -16 6 -3 7 1 4 9 -7 18 -14 21 -14 7z"/>
<path d="M9523 15724 c3 -6 -296 -10 -766 -12 -425 -1 -776 -2 -782 -2 -5 0
-76 1 -158 2 -91 2 -149 -1 -151 -7 -3 -6 -5 -6 -5 0 -1 10 -71 11 -97 1 -7
-3 -16 -1 -20 5 -4 7 -10 6 -18 0 -7 -6 -16 -8 -19 -4 -11 11 -117 9 -117 -2
0 -7 -3 -7 -8 0 -4 6 -25 10 -47 10 -22 0 -43 -4 -47 -10 -5 -7 -8 -7 -8 0 0
6 -29 10 -67 10 -38 0 -71 -4 -75 -10 -5 -7 -8 -7 -8 0 0 10 -99 11 -125 1 -8
-3 -15 -2 -15 2 0 4 -48 6 -107 5 -207 -5 -816 -3 -824 3 -5 3 -9 1 -9 -3 0
-5 -25 -6 -55 -3 -31 3 -57 4 -60 2 -6 -7 -272 -5 -283 2 -6 3 -13 2 -16 -2
-6 -10 -48 -8 -65 2 -5 4 -12 2 -15 -3 -4 -6 -18 -6 -36 -1 -17 5 -30 6 -30 2
0 -4 -49 -7 -110 -7 -60 0 -110 4 -110 8 0 5 -5 5 -11 1 -15 -9 -802 -9 -817
0 -7 4 -12 4 -12 -1 0 -4 -99 -8 -221 -7 l-221 1 -10 -23 c-6 -13 -15 -21 -21
-17 -6 4 -7 1 -3 -6 5 -7 0 -21 -10 -32 -9 -10 -13 -19 -8 -19 5 0 1 -7 -10
-15 -10 -7 -15 -18 -12 -23 3 -6 -1 -13 -10 -16 -8 -3 -12 -10 -9 -16 3 -5 2
-10 -3 -10 -6 0 -15 -13 -21 -30 -5 -16 -15 -30 -20 -30 -6 0 -11 -3 -10 -7 2
-16 -14 -53 -23 -53 -6 0 -7 -7 -4 -16 3 -8 2 -13 -2 -10 -5 3 -16 -8 -26 -25
-9 -16 -14 -29 -9 -29 4 0 0 -5 -10 -11 -9 -5 -17 -17 -17 -24 0 -8 -5 -15
-11 -15 -5 0 -8 -4 -4 -9 3 -5 -1 -16 -9 -24 -8 -8 -12 -17 -9 -21 4 -3 1 -6
-5 -6 -7 0 -12 -5 -12 -10 0 -6 -16 -35 -35 -65 -19 -30 -32 -55 -29 -55 3 0
-2 -7 -10 -16 -9 -8 -14 -19 -11 -24 3 -4 -2 -11 -11 -14 -8 -3 -13 -10 -10
-15 3 -5 -2 -12 -11 -15 -15 -6 -15 -8 -3 -16 13 -8 12 -10 -2 -10 -11 0 -18
-8 -18 -21 0 -13 -4 -18 -12 -13 -8 5 -9 2 -5 -9 4 -11 1 -17 -8 -17 -9 0 -12
-6 -9 -15 4 -8 1 -15 -5 -15 -6 0 -11 -7 -11 -15 0 -9 -7 -18 -15 -21 -8 -4
-13 -10 -10 -14 3 -5 1 -11 -5 -15 -6 -4 -8 -11 -5 -16 4 -5 1 -9 -4 -9 -6 0
-11 -6 -11 -14 0 -8 -7 -16 -15 -20 -8 -3 -14 -9 -14 -13 3 -10 -12 -46 -21
-53 -8 -5 -54 -93 -51 -97 0 -2 -8 -12 -19 -23 -11 -11 -20 -27 -20 -35 0 -8
-4 -15 -10 -15 -5 0 -10 -7 -10 -15 0 -8 -5 -15 -11 -15 -5 0 -7 -4 -4 -10 3
-5 1 -10 -5 -10 -6 0 -9 -4 -6 -9 3 -5 -1 -14 -9 -21 -8 -7 -13 -16 -10 -20 3
-4 -2 -11 -11 -14 -9 -4 -14 -13 -10 -22 3 -8 2 -13 -3 -10 -11 7 -23 -22 -14
-36 3 -6 1 -8 -5 -4 -6 3 -13 -2 -17 -13 -3 -10 -15 -29 -26 -42 -11 -12 -17
-29 -15 -36 3 -7 1 -13 -5 -13 -6 0 -7 -4 -4 -10 4 -6 -1 -7 -11 -3 -11 4 -15
3 -10 -5 3 -6 2 -13 -4 -17 -6 -4 -8 -11 -5 -16 4 -5 1 -9 -5 -9 -6 0 -8 -4
-5 -10 3 -5 -1 -10 -9 -10 -10 0 -13 -6 -10 -15 4 -8 -1 -17 -10 -21 -9 -3
-14 -10 -11 -14 3 -5 -1 -15 -9 -23 -8 -8 -12 -17 -9 -21 4 -3 1 -6 -5 -6 -9
0 -28 -40 -23 -48 1 -2 -7 -12 -19 -22 -12 -10 -20 -22 -19 -25 1 -4 -3 -14
-10 -24 -15 -21 -37 -60 -50 -88 -6 -13 -16 -23 -22 -23 -8 0 -7 -6 2 -17 9
-10 9 -14 2 -10 -7 5 -17 -2 -24 -15 -7 -13 -17 -26 -23 -30 -7 -5 -6 -8 4 -8
12 -1 11 -3 -3 -11 -9 -6 -15 -14 -12 -20 4 -5 1 -9 -4 -9 -6 0 -11 -7 -11
-15 0 -7 -8 -19 -18 -24 -9 -6 -13 -11 -8 -11 5 0 3 -7 -4 -15 -6 -8 -9 -19
-5 -25 4 -6 3 -9 -2 -8 -4 2 -8 -1 -8 -5 0 -5 -8 -13 -18 -18 -9 -6 -15 -14
-12 -20 4 -5 1 -9 -4 -9 -6 0 -10 -3 -9 -7 1 -5 -5 -20 -15 -35 -9 -16 -25
-40 -34 -55 -34 -54 -53 -93 -46 -93 5 0 3 -4 -3 -8 -12 -7 -44 -57 -66 -102
-7 -14 -15 -27 -18 -30 -3 -3 -16 -25 -29 -50 -14 -25 -27 -47 -30 -50 -3 -3
-13 -18 -21 -35 -8 -16 -22 -42 -32 -56 -10 -14 -15 -29 -11 -32 3 -4 -2 -9
-11 -13 -9 -3 -13 -10 -10 -15 3 -5 1 -9 -3 -9 -5 0 -17 -20 -28 -44 -11 -24
-23 -42 -27 -40 -5 3 -8 -4 -8 -15 0 -11 -5 -23 -11 -27 -6 -3 -17 -22 -25
-40 -8 -19 -19 -34 -25 -34 -6 0 -9 -9 -6 -20 3 -13 0 -20 -9 -20 -12 0 -19
-19 -15 -43 1 -5 -3 -6 -8 -3 -9 6 -26 -22 -22 -37 0 -4 -6 -10 -14 -13 -8 -3
-13 -10 -10 -14 3 -5 -2 -15 -11 -24 -8 -9 -12 -21 -8 -27 4 -8 3 -9 -4 -5 -7
4 -12 1 -12 -7 0 -8 -9 -24 -20 -37 -11 -12 -17 -27 -14 -31 3 -5 0 -9 -5 -9
-6 0 -11 -7 -11 -15 0 -8 -4 -15 -10 -15 -5 0 -12 -11 -16 -25 -3 -13 -12 -29
-20 -36 -8 -6 -11 -15 -8 -20 3 -5 1 -9 -5 -9 -6 0 -20 -21 -32 -47 -12 -25
-28 -53 -36 -61 -8 -8 -12 -21 -9 -29 3 -8 2 -12 -3 -9 -4 3 -17 -12 -27 -34
-10 -22 -23 -40 -27 -40 -5 0 -6 -4 -3 -8 3 -5 -3 -18 -14 -30 -14 -14 -16
-22 -7 -25 7 -3 4 -6 -5 -6 -10 -1 -18 -8 -18 -16 0 -8 -5 -15 -11 -15 -5 0
-8 -4 -4 -9 3 -5 -2 -17 -11 -25 -8 -9 -12 -16 -7 -16 4 0 4 -4 -2 -8 -5 -4
-17 -16 -25 -26 -13 -18 -13 -19 0 -12 8 4 6 0 -4 -8 -11 -9 -16 -16 -12 -16
4 0 0 -7 -9 -16 -9 -9 -14 -23 -11 -31 3 -8 1 -11 -5 -8 -5 4 -15 -7 -22 -24
-6 -17 -15 -31 -19 -31 -4 0 -8 -7 -8 -15 0 -8 -8 -24 -18 -35 -9 -11 -17 -24
-17 -28 0 -4 -9 -19 -19 -34 -10 -15 -15 -32 -11 -37 4 -7 -1 -8 -11 -4 -12 4
-15 3 -10 -5 4 -7 2 -12 -4 -12 -6 0 -8 -5 -5 -10 3 -6 -1 -13 -10 -16 -9 -4
-14 -12 -11 -19 3 -8 -2 -16 -10 -19 -8 -3 -14 -10 -14 -16 0 -6 6 -8 13 -5 6
4 4 0 -7 -9 -23 -19 -48 -65 -40 -77 3 -5 -2 -6 -10 -3 -11 4 -16 0 -16 -15 0
-12 -5 -21 -11 -21 -5 0 -7 -4 -4 -10 3 -5 3 -10 -2 -10 -4 0 -17 -18 -27 -40
-11 -22 -23 -40 -28 -40 -5 0 -7 -4 -4 -8 3 -5 -2 -18 -12 -28 -9 -11 -18 -26
-20 -34 -2 -8 -7 -17 -10 -20 -4 -3 -16 -22 -26 -42 -11 -21 -23 -38 -27 -38
-4 0 -6 -9 -4 -20 2 -11 0 -18 -4 -16 -8 5 -36 -46 -29 -52 1 -2 -5 -8 -14
-13 -10 -6 -18 -16 -18 -24 0 -8 -13 -34 -29 -57 -16 -24 -27 -46 -25 -49 2
-4 -3 -10 -12 -13 -9 -3 -14 -13 -10 -21 3 -8 0 -18 -7 -22 -21 -13 -88 -134
-81 -145 4 -6 2 -8 -3 -5 -10 6 -18 -5 -24 -31 -1 -4 -9 -13 -18 -20 -13 -11
-13 -12 -1 -7 8 4 6 -1 -4 -9 -11 -9 -16 -16 -10 -16 5 0 5 -3 -1 -8 -5 -4
-17 -16 -25 -26 -13 -18 -13 -19 0 -11 10 6 9 1 -3 -12 -22 -25 -55 -80 -63
-105 -4 -10 -11 -18 -17 -18 -6 0 -8 -3 -4 -6 3 -4 -1 -13 -9 -21 -8 -8 -12
-19 -9 -24 4 -5 1 -9 -4 -9 -6 0 -11 -7 -11 -15 0 -8 -4 -15 -9 -15 -5 0 -14
-13 -20 -30 -5 -16 -14 -30 -20 -30 -5 0 -8 -9 -6 -20 2 -11 0 -18 -4 -16 -4
3 -14 -7 -22 -21 -11 -21 -11 -27 -1 -30 6 -3 12 -13 12 -24 0 -10 5 -19 11
-19 5 0 8 -4 5 -8 -3 -5 4 -19 15 -30 11 -12 17 -22 13 -22 -4 0 0 -8 8 -17
18 -22 34 -57 37 -84 0 -5 6 -7 13 -3 7 5 8 3 4 -5 -5 -7 -1 -20 7 -29 22 -26
61 -105 59 -120 -2 -7 3 -11 10 -10 7 2 14 -7 16 -19 2 -13 6 -23 10 -23 4 0
18 -25 32 -55 14 -30 28 -55 33 -55 4 0 7 -8 7 -18 0 -10 9 -28 20 -40 11 -12
20 -25 20 -30 0 -14 25 -62 33 -62 4 0 7 -7 7 -15 0 -8 5 -15 11 -15 5 0 7 -5
3 -11 -3 -6 -3 -14 2 -18 16 -11 44 -60 44 -76 0 -9 7 -18 16 -22 8 -3 13 -12
10 -19 -3 -8 -2 -14 2 -14 4 0 13 -15 21 -32 8 -18 17 -35 20 -38 3 -3 20 -32
37 -65 61 -118 79 -150 92 -163 7 -8 10 -18 7 -23 -4 -5 -3 -9 2 -9 4 0 13
-10 18 -23 26 -54 81 -152 88 -155 4 -2 5 -7 2 -12 -3 -4 2 -13 10 -20 8 -7
15 -18 15 -26 0 -7 9 -22 21 -33 12 -11 18 -24 15 -29 -3 -6 1 -17 9 -25 8 -9
15 -22 15 -29 0 -8 9 -24 19 -35 11 -12 17 -24 14 -27 -4 -3 -1 -6 6 -6 7 0 9
-4 6 -10 -3 -5 -1 -10 5 -10 6 0 8 -5 5 -10 -3 -5 -1 -10 5 -10 6 0 8 -4 5
-10 -3 -5 -1 -10 4 -10 6 0 11 -7 11 -15 0 -8 5 -15 10 -15 6 0 9 -3 9 -7 -3
-13 25 -73 33 -73 4 0 8 -7 8 -15 0 -8 5 -15 11 -15 5 0 8 -4 4 -9 -3 -5 2
-17 11 -25 8 -9 12 -16 7 -16 -4 0 1 -7 11 -15 11 -8 17 -15 13 -15 -4 0 -2
-10 5 -22 7 -13 11 -26 10 -30 -1 -5 5 -8 13 -8 9 0 12 -6 9 -15 -4 -8 -1 -15
7 -15 7 0 9 -3 6 -6 -4 -4 2 -19 13 -34 11 -16 20 -33 20 -39 0 -6 5 -11 11
-11 5 0 7 -4 4 -10 -3 -6 -1 -10 6 -10 7 0 9 -3 6 -6 -4 -4 2 -19 13 -34 11
-16 20 -35 20 -44 0 -9 5 -16 11 -16 5 0 8 -4 5 -8 -3 -5 1 -9 9 -9 8 0 13 3
12 6 -1 3 4 16 11 27 6 12 9 24 7 28 -3 3 -2 4 2 1 10 -8 44 55 37 67 -4 7 -2
8 4 4 7 -4 12 -1 12 8 0 9 5 16 11 16 5 0 7 5 4 10 -3 6 -1 10 4 10 6 0 11 7
11 15 0 8 5 15 11 15 5 0 8 4 4 9 -3 5 -1 12 5 16 6 4 7 11 4 17 -4 6 -2 8 4
4 6 -3 13 3 17 14 3 11 11 20 16 20 6 0 8 4 4 9 -3 5 1 16 9 24 8 8 12 17 9
21 -3 3 1 8 10 12 9 3 14 14 12 26 -3 11 -2 18 2 14 8 -8 43 49 43 71 0 9 3
13 7 10 6 -7 59 92 55 106 -1 4 1 6 5 5 5 -2 8 -1 8 2 0 3 10 19 23 37 12 17
22 36 22 42 0 6 4 11 8 11 5 0 14 16 22 35 8 19 18 35 22 35 5 0 6 5 3 10 -3
5 -1 10 5 10 7 0 9 7 6 17 -4 10 -4 14 0 10 9 -8 54 64 48 75 -3 5 0 8 6 8 6
0 16 13 21 30 7 18 16 27 22 23 7 -3 9 -3 5 1 -9 10 31 86 45 86 6 0 7 3 4 7
-4 3 3 18 15 31 13 14 17 22 9 17 -11 -6 12 39 29 55 3 3 11 17 19 33 8 15 18
27 23 27 5 0 6 5 2 12 -4 6 1 17 11 25 11 7 15 13 11 13 -4 0 2 13 13 29 12
16 21 33 21 39 0 5 9 19 20 32 11 12 17 27 14 31 -3 5 2 9 11 9 11 0 15 5 11
15 -3 8 -1 15 5 15 6 0 7 5 4 10 -3 6 1 13 10 16 9 4 14 12 11 19 -3 8 2 16
10 19 9 3 13 10 10 15 -3 5 1 12 9 15 8 3 15 9 14 13 -3 18 1 36 7 30 7 -7 44
60 44 80 0 8 7 16 15 19 8 4 15 12 15 19 0 8 7 21 16 29 8 9 13 16 9 16 -4 0
1 7 9 16 9 8 14 19 11 24 -3 4 2 11 10 14 8 3 15 9 14 13 -4 21 2 33 12 27 7
-4 10 -1 7 7 -3 8 0 19 6 26 30 34 36 43 36 58 0 8 5 15 11 15 5 0 7 5 4 10
-3 6 1 13 9 16 9 3 16 15 16 25 0 10 5 19 11 19 5 0 8 4 5 9 -3 5 1 12 10 15
8 3 13 10 10 15 -3 5 1 14 9 21 8 7 12 16 9 21 -3 5 0 9 5 9 6 0 11 5 11 11 0
7 8 18 18 26 9 8 11 11 3 8 -9 -5 -8 1 4 19 10 14 21 26 26 26 5 0 9 5 9 11 0
5 -6 7 -12 4 -7 -4 -4 1 6 9 11 9 16 16 11 16 -5 0 -1 6 10 13 10 8 15 19 11
25 -4 7 -1 12 9 12 9 0 13 5 10 10 -3 6 -1 10 5 10 6 0 8 5 5 10 -3 6 -1 10 4
10 6 0 10 6 9 13 -2 6 2 11 9 10 7 -2 10 4 7 12 -4 8 -1 15 6 15 6 0 9 4 5 9
-3 5 1 15 8 23 24 25 50 71 36 63 -8 -3 -6 0 4 8 9 8 17 19 17 26 0 6 5 11 10
11 6 0 9 3 8 8 -3 16 15 42 25 35 6 -4 8 0 4 10 -3 10 -2 17 4 17 6 0 7 5 4
10 -3 6 -2 10 4 10 9 0 28 43 20 47 -2 2 6 10 19 19 13 9 21 22 18 29 -2 7 2
16 10 19 8 3 13 11 12 18 -2 7 3 12 10 10 8 -1 11 2 8 7 -9 14 5 42 17 34 6
-4 8 0 4 10 -3 10 -2 17 4 17 6 0 7 5 4 10 -3 6 -1 10 5 10 8 0 29 37 32 60 1
3 8 10 17 17 9 6 13 15 9 19 -4 4 5 18 20 32 15 13 21 21 15 18 -7 -4 -13 -3
-13 2 0 6 7 12 15 16 8 3 15 12 15 21 0 8 5 15 11 15 5 0 7 5 4 10 -3 6 -1 10
6 10 7 0 10 3 6 6 -3 4 4 15 16 26 12 11 16 17 9 13 -6 -3 -12 -1 -12 4 0 6 5
11 11 11 5 0 15 14 20 30 6 17 15 30 21 30 5 0 6 5 3 10 -3 6 -2 10 4 10 6 0
13 11 17 24 3 14 12 27 20 30 8 3 14 14 14 24 0 10 9 28 20 40 12 12 18 22 14
22 -3 0 -1 7 6 15 7 8 9 15 4 15 -5 0 -1 5 9 11 9 6 15 14 12 20 -4 5 -1 9 4
9 6 0 11 7 11 15 0 8 3 15 8 15 4 0 16 18 26 40 11 22 23 40 27 40 5 0 6 7 3
15 -4 8 -1 15 5 15 6 0 11 7 11 15 0 8 4 15 10 15 5 0 12 11 16 25 3 14 10 25
16 25 5 0 6 5 3 10 -3 6 -1 10 4 10 6 0 11 7 11 15 0 8 5 15 11 15 5 0 7 5 4
10 -3 6 -1 10 4 10 6 0 11 7 11 15 0 8 5 15 10 15 6 0 9 3 9 8 -3 20 2 33 11
27 6 -4 10 -3 9 2 -4 15 20 63 31 63 6 0 9 4 5 9 -3 5 -1 12 5 16 6 4 8 11 5
16 -4 5 -1 9 4 9 6 0 19 18 28 40 10 22 21 40 26 40 4 0 5 5 2 10 -3 6 -2 10
3 10 6 0 15 14 21 31 7 19 15 28 22 23 7 -4 9 -3 6 3 -7 11 14 63 26 63 4 0 7
7 7 15 0 8 5 15 11 15 5 0 7 5 4 10 -3 6 -1 10 4 10 6 0 11 7 11 15 0 8 9 24
19 34 11 11 17 22 14 24 -2 3 3 13 11 24 9 10 16 22 15 27 0 5 4 12 9 15 6 3
12 13 14 21 2 8 10 22 18 30 8 8 16 22 18 30 2 8 9 18 15 22 7 4 9 8 4 8 -9 0
23 52 40 63 6 4 10 16 8 27 -2 11 1 23 7 26 7 5 8 2 3 -6 -5 -9 -4 -11 3 -6 7
4 12 13 12 20 0 7 10 26 22 42 13 16 16 25 8 20 -8 -4 -7 -1 4 8 10 8 15 20
11 26 -3 6 -1 9 5 8 7 -2 14 5 15 15 2 10 11 27 19 36 9 10 16 23 16 30 0 6 7
14 15 17 8 4 15 15 15 26 0 12 4 17 12 12 7 -4 8 -3 4 5 -4 6 2 24 13 40 12
16 21 33 21 39 0 5 7 15 15 22 8 7 12 16 9 21 -3 5 0 9 5 9 6 0 11 6 11 14 0
8 4 16 9 18 5 2 11 10 13 18 2 8 11 23 21 34 10 11 16 25 13 32 -2 6 9 24 24
41 16 17 26 34 23 37 -4 3 -1 6 6 6 8 0 11 7 7 15 -3 8 -1 15 4 15 5 0 17 16
26 35 9 19 21 35 26 35 6 0 7 7 4 15 -3 9 1 18 8 21 12 5 30 45 23 51 -1 1 6
8 16 15 10 7 19 23 20 35 0 12 3 20 6 18 7 -7 30 28 31 47 0 9 10 24 22 32 12
9 17 16 10 16 -7 0 -4 8 8 20 11 11 20 27 20 35 0 8 5 15 10 15 6 0 10 7 10
15 0 8 4 15 10 15 5 0 9 3 8 8 -1 4 5 19 12 35 13 27 23 31 68 29 14 -1 20 3
16 10 -5 7 -3 8 7 2 8 -5 111 -10 229 -11 118 0 272 -2 342 -3 69 -1 131 1
136 4 6 3 13 0 15 -6 4 -10 8 -9 16 2 8 12 11 12 11 1 0 -10 3 -11 14 -2 11 9
15 9 19 -1 4 -10 8 -10 16 2 8 12 11 12 11 1 0 -11 3 -11 15 -1 8 7 15 9 15 4
0 -5 131 -9 290 -9 159 0 290 -3 290 -6 0 -3 7 -6 15 -6 8 0 12 3 10 7 -3 5
72 5 85 0 3 -1 10 -1 15 0 22 5 93 2 104 -4 6 -4 11 -2 11 4 0 6 4 9 8 6 18
-11 62 -14 67 -5 4 5 13 5 24 -1 12 -6 22 -5 29 2 8 8 12 8 12 2 0 -12 29 -12
48 0 6 4 12 3 12 -1 0 -5 9 -9 20 -10 13 -1 18 2 14 9 -4 6 -3 8 3 5 20 -12
84 -17 77 -6 -4 8 -1 8 12 1 21 -10 76 -8 95 3 7 5 10 4 6 -1 -7 -12 152 -13
170 -1 6 4 14 3 18 -3 3 -5 17 -10 31 -10 18 0 23 4 18 13 -6 9 -4 9 7 1 8 -7
67 -11 146 -12 73 0 137 -3 142 -6 5 -4 12 -2 16 3 3 7 15 7 30 1 13 -5 26 -6
29 -2 3 4 32 5 65 2 38 -4 62 -2 65 5 3 6 5 5 5 -2 1 -9 8 -10 26 -3 14 5 25
6 25 2 0 -4 44 -6 97 -5 62 1 103 -3 112 -10 10 -8 13 -8 8 -1 -5 8 41 11 168
10 109 -1 175 -5 175 -11 0 -6 3 -6 8 0 4 6 16 11 27 11 11 0 23 -5 27 -11 5
-7 8 -7 8 1 0 11 60 12 78 0 7 -4 12 -3 12 2 0 5 15 8 33 5 40 -5 54 -5 95 0
18 3 35 0 38 -4 3 -5 14 -5 24 1 13 7 21 7 25 0 5 -8 11 -8 19 -1 7 6 16 8 20
4 9 -10 36 -13 36 -4 0 4 9 7 20 7 11 0 20 -3 20 -6 0 -4 7 -7 15 -7 8 0 15 4
15 9 0 5 6 6 12 2 17 -11 48 -12 48 -3 0 5 10 5 23 1 24 -9 56 -8 80 1 8 3 18
3 21 -1 4 -3 152 -7 329 -9 177 -2 329 -3 337 -3 8 -1 51 -1 94 0 44 0 82 -2
84 -5 3 -3 11 0 19 6 7 6 13 8 13 3 0 -10 132 -10 149 0 6 4 11 3 11 -2 0 -12
63 -10 72 3 5 7 8 7 8 0 0 -6 107 -10 300 -10 183 0 300 -4 300 -9 0 -6 5 -5
11 1 6 6 23 8 43 3 17 -4 42 -3 54 1 14 5 22 4 22 -2 0 -6 5 -7 12 -3 14 9 58
12 58 4 0 -3 22 -5 49 -5 27 0 47 3 44 7 -2 5 6 4 19 0 28 -9 49 -9 65 1 6 4
14 3 17 -1 3 -5 15 -8 28 -7 18 2 22 7 20 26 -1 13 -7 26 -12 27 -6 2 -10 12
-10 23 0 10 -4 19 -9 19 -5 0 -15 16 -22 34 -7 19 -16 33 -21 30 -7 -5 -12 18
-9 39 0 4 -3 7 -7 7 -5 0 -23 27 -40 60 -41 77 -56 104 -62 110 -11 11 -41 70
-35 70 4 0 0 7 -7 15 -31 34 -36 43 -30 50 4 3 -1 11 -11 16 -9 6 -15 14 -12
20 4 5 1 9 -4 9 -6 0 -11 7 -11 15 0 8 -5 15 -11 15 -5 0 -8 4 -5 9 3 5 -1 14
-9 21 -8 7 -15 21 -15 31 0 11 -4 19 -9 19 -5 0 -15 16 -22 35 -7 19 -16 35
-20 35 -4 0 -12 15 -20 33 -7 17 -15 34 -18 37 -4 3 -13 19 -21 35 -8 17 -17
32 -20 35 -3 3 -20 34 -39 70 -19 36 -37 67 -42 70 -4 3 -9 12 -11 20 -2 8
-13 30 -26 48 -13 18 -24 41 -25 52 -1 11 -7 22 -14 24 -7 3 -13 12 -13 21 0
8 -4 15 -9 15 -8 0 -24 37 -22 53 1 4 -4 7 -11 7 -6 0 -8 3 -5 6 4 4 -3 15
-14 25 -11 9 -20 21 -20 26 1 12 -23 63 -30 63 -3 0 -11 16 -19 35 -8 19 -17
35 -22 35 -4 0 -8 9 -8 20 0 11 -4 20 -8 20 -5 0 -14 16 -22 35 -8 19 -17 35
-21 35 -4 0 -12 14 -18 30 -5 17 -15 30 -20 30 -6 0 -10 3 -9 8 4 13 -13 52
-23 52 -5 0 -8 3 -8 8 3 19 -2 33 -11 27 -6 -4 -7 1 -3 11 5 13 3 16 -10 11
-11 -4 -14 -2 -11 7 3 8 -9 35 -25 62 -17 26 -31 54 -31 61 0 7 -5 13 -11 13
-5 0 -8 4 -5 9 4 5 2 11 -3 13 -5 1 -11 10 -13 18 -2 8 -10 22 -18 30 -8 8
-16 22 -18 30 -2 8 -8 17 -13 18 -5 2 -7 7 -4 12 3 5 -2 16 -11 24 -8 9 -13
16 -9 16 4 0 -1 7 -9 16 -9 8 -13 20 -10 26 4 7 2 8 -4 4 -7 -4 -12 -1 -12 8
0 9 -5 16 -11 16 -5 0 -8 4 -4 9 3 5 -1 16 -9 24 -8 8 -12 17 -9 21 8 8 3 8
-77 11 -36 1 -69 3 -75 5 -5 1 -12 1 -15 0 -3 -1 -76 -3 -162 -4 -105 -1 -158
2 -158 9 0 7 -3 7 -8 0 -9 -13 -291 -14 -311 -1 -9 6 -12 5 -8 -1 8 -13 -71
-12 -92 1 -8 6 -12 5 -8 0z"/>
<path d="M5659 13201 c-1 -3 -1 -9 0 -13 0 -5 -4 -8 -10 -8 -5 0 -7 -4 -4 -10
3 -5 -1 -10 -10 -10 -9 0 -14 -4 -10 -9 3 -5 -2 -16 -11 -25 -8 -9 -12 -20 -9
-26 3 -5 2 -10 -2 -10 -11 0 -59 -79 -55 -91 1 -5 -2 -9 -7 -9 -10 0 -18 -14
-57 -90 -10 -19 -24 -40 -32 -45 -7 -6 -14 -20 -15 -32 0 -12 -4 -20 -8 -18
-3 3 -14 -13 -24 -35 -10 -22 -22 -40 -27 -40 -4 0 -8 -6 -8 -14 0 -8 -6 -21
-13 -28 -7 -7 -16 -20 -20 -28 -4 -8 -21 -37 -38 -65 -16 -27 -33 -58 -36 -67
-3 -10 -9 -18 -14 -18 -5 0 -9 -6 -9 -14 0 -8 -6 -21 -12 -28 -7 -7 -20 -26
-28 -43 -8 -16 -17 -32 -20 -35 -12 -11 -40 -60 -35 -60 4 0 -1 -7 -9 -16 -9
-8 -16 -22 -16 -30 0 -8 -3 -14 -8 -14 -4 0 -16 -17 -27 -37 -11 -21 -22 -40
-25 -43 -3 -3 -17 -26 -30 -52 -14 -27 -28 -48 -32 -48 -5 0 -8 -5 -8 -11 0
-6 -9 -23 -20 -39 -11 -15 -17 -30 -13 -34 3 -3 1 -6 -5 -6 -7 0 -12 -6 -12
-14 0 -8 -4 -16 -10 -18 -5 -1 -11 -13 -13 -25 -2 -12 -7 -26 -12 -30 -4 -5
-5 -1 -1 7 4 8 0 6 -8 -4 -9 -11 -16 -26 -16 -33 0 -7 -4 -13 -9 -13 -5 0 -11
-8 -14 -17 -4 -10 -18 -36 -32 -58 -13 -22 -28 -47 -32 -55 -3 -8 -14 -27 -24
-41 -10 -14 -16 -29 -12 -33 3 -3 1 -6 -5 -6 -6 0 -18 -13 -26 -30 -9 -16 -23
-43 -32 -60 -8 -16 -20 -32 -25 -36 -5 -3 -17 -23 -26 -45 -8 -21 -19 -39 -24
-39 -5 0 -9 -7 -9 -15 0 -8 -8 -23 -18 -33 -10 -10 -16 -24 -14 -30 2 -7 -1
-12 -7 -12 -6 0 -11 -7 -11 -15 0 -8 -5 -15 -11 -15 -5 0 -7 -5 -4 -10 3 -6
-1 -13 -9 -16 -9 -3 -13 -10 -10 -15 3 -5 1 -9 -4 -9 -9 0 -25 -37 -23 -52 1
-5 -4 -8 -9 -8 -6 0 -16 -12 -23 -27 -6 -16 -17 -34 -24 -41 -7 -8 -11 -17 -8
-22 3 -4 -2 -11 -11 -14 -9 -4 -14 -9 -11 -12 3 -4 -1 -13 -9 -21 -8 -8 -12
-18 -9 -23 3 -4 -2 -10 -10 -14 -8 -3 -15 -12 -15 -21 0 -8 -3 -15 -8 -15 -4
0 -13 -13 -20 -30 -7 -16 -24 -45 -37 -65 -14 -19 -21 -35 -17 -35 4 0 2 -4
-4 -8 -6 -4 -25 -31 -41 -59 -16 -29 -32 -51 -34 -48 -3 2 -6 -5 -6 -17 -1
-12 -6 -24 -10 -27 -10 -7 -27 -35 -49 -78 -9 -18 -20 -33 -25 -33 -5 0 -9 -9
-9 -20 0 -11 -3 -20 -7 -20 -5 0 -21 -26 -38 -58 -16 -31 -37 -62 -45 -69 -8
-7 -11 -13 -6 -13 4 0 -3 -15 -18 -34 -14 -19 -26 -39 -26 -44 0 -5 -9 -19
-20 -32 -11 -12 -17 -27 -14 -31 3 -5 0 -9 -6 -9 -6 0 -9 -4 -5 -9 3 -6 -3
-14 -12 -20 -10 -6 -13 -11 -8 -11 6 0 6 -3 -1 -8 -15 -10 -75 -112 -66 -112
4 0 2 -4 -4 -8 -19 -13 -54 -79 -46 -87 4 -5 2 -5 -4 -2 -11 6 -29 -19 -26
-35 1 -5 -3 -8 -8 -8 -6 0 -10 -5 -10 -10 0 -6 -16 -36 -35 -66 -19 -30 -35
-56 -35 -59 0 -5 -45 -75 -60 -92 -6 -7 -10 -14 -10 -15 3 -8 -16 -46 -32 -62
-9 -10 -15 -23 -12 -28 3 -4 2 -8 -3 -8 -4 0 -19 -21 -33 -47 -13 -27 -27 -50
-30 -53 -15 -14 -68 -110 -57 -104 6 4 0 -5 -15 -21 -16 -15 -28 -36 -28 -47
0 -10 -7 -21 -15 -24 -8 -4 -15 -12 -15 -20 0 -8 -4 -14 -10 -14 -5 0 -9 -3
-8 -7 2 -10 -14 -47 -23 -53 -9 -7 -48 -71 -55 -92 -4 -10 -11 -18 -16 -18 -5
0 -6 -4 -3 -10 3 -5 2 -10 -3 -10 -5 0 -12 -8 -16 -17 -8 -23 -48 -94 -75
-131 -11 -17 -21 -35 -21 -41 0 -6 -5 -11 -11 -11 -5 0 -7 -4 -4 -10 3 -5 2
-10 -2 -10 -5 0 -13 -9 -18 -20 -30 -60 -69 -125 -81 -137 -8 -8 -14 -21 -14
-29 0 -8 -5 -14 -11 -14 -5 0 -7 -5 -4 -10 3 -6 -1 -13 -9 -16 -9 -3 -14 -10
-11 -14 3 -4 -2 -13 -10 -20 -8 -7 -12 -16 -9 -21 3 -5 1 -9 -4 -9 -5 0 -15
-12 -23 -27 -8 -16 -26 -46 -40 -68 -15 -22 -30 -50 -33 -62 -4 -13 -12 -23
-17 -23 -6 0 -8 -4 -5 -9 3 -5 -1 -12 -9 -15 -8 -3 -14 -9 -13 -13 2 -12 -24
-63 -33 -63 -4 0 -10 -11 -13 -25 -4 -14 -11 -25 -16 -25 -6 0 -10 -6 -10 -14
0 -7 -9 -25 -20 -38 -10 -14 -16 -28 -13 -32 3 -3 1 -6 -5 -6 -7 0 -12 -6 -12
-13 0 -7 -9 -23 -19 -34 -11 -12 -18 -23 -15 -26 2 -2 -2 -10 -11 -17 -8 -7
-15 -19 -15 -26 0 -8 -5 -14 -11 -14 -5 0 -8 -4 -5 -9 4 -5 1 -11 -4 -13 -6
-2 -12 -13 -13 -25 0 -12 -4 -20 -9 -17 -4 2 -12 -5 -18 -16 -6 -11 -8 -20 -5
-20 2 0 -3 -9 -13 -20 -9 -12 -16 -23 -14 -26 2 -3 -6 -14 -17 -23 -11 -10
-18 -21 -14 -25 3 -3 0 -6 -7 -6 -7 0 -10 -3 -7 -6 4 -4 -1 -19 -11 -33 -45
-69 -85 -141 -88 -159 -1 -7 4 -16 12 -19 8 -3 14 -11 14 -18 0 -16 41 -88 52
-93 4 -2 8 -12 8 -23 0 -10 4 -19 9 -19 10 0 37 -60 33 -73 -1 -5 2 -6 8 -2 5
3 10 1 10 -4 0 -18 3 -26 17 -39 7 -8 11 -18 8 -23 -4 -5 -1 -9 4 -9 6 0 11
-6 11 -14 0 -7 10 -21 23 -30 12 -9 16 -14 8 -10 -9 4 -12 2 -9 -7 3 -8 11
-13 17 -12 6 2 11 0 10 -5 -2 -15 14 -52 21 -47 4 3 7 -3 6 -13 0 -9 4 -16 11
-15 7 2 10 -4 6 -13 -3 -8 3 -22 13 -30 11 -9 13 -13 6 -9 -7 3 1 -14 18 -38
16 -25 30 -49 30 -54 0 -5 8 -18 18 -29 19 -20 22 -26 22 -45 0 -5 5 -7 12 -3
6 4 8 3 4 -4 -9 -14 14 -63 27 -55 6 3 7 1 3 -5 -4 -6 2 -20 12 -30 10 -10 16
-24 14 -30 -2 -7 1 -12 8 -12 6 0 8 -4 5 -10 -3 -5 -2 -10 3 -10 5 0 12 -9 15
-21 4 -13 10 -18 18 -13 7 4 10 3 5 -4 -7 -12 14 -63 24 -57 4 2 7 -2 8 -10 1
-8 3 -22 4 -30 1 -8 5 -15 9 -15 4 0 22 -29 41 -65 18 -36 36 -65 41 -65 4 0
5 -4 2 -10 -3 -5 -1 -10 5 -10 7 0 9 -7 6 -16 -3 -8 -2 -12 4 -9 6 3 10 -1 10
-9 0 -9 5 -16 11 -16 5 0 8 -4 4 -9 -3 -5 2 -16 10 -24 8 -9 15 -20 15 -26 0
-6 5 -11 11 -11 5 0 8 -4 4 -9 -3 -5 2 -16 10 -25 9 -8 17 -19 18 -23 1 -4 4
-7 7 -6 3 1 7 -10 8 -23 1 -14 8 -32 16 -40 8 -8 18 -23 21 -34 3 -11 11 -20
16 -20 6 0 7 -5 4 -10 -3 -6 0 -12 7 -15 8 -3 14 -15 15 -26 1 -12 9 -29 17
-38 9 -10 16 -23 16 -30 0 -7 5 -9 12 -5 8 5 9 2 5 -9 -3 -10 -2 -17 4 -17 6
0 7 -4 4 -10 -3 -5 -2 -10 3 -10 6 0 15 -14 21 -30 5 -17 15 -30 20 -30 6 0 8
-7 5 -15 -4 -8 -2 -15 3 -15 5 0 22 -27 38 -60 17 -33 34 -60 38 -60 5 0 5 -5
2 -10 -3 -6 -1 -10 4 -10 6 0 11 -7 11 -15 0 -8 4 -15 8 -15 5 0 14 -16 22
-35 8 -19 17 -35 22 -35 4 0 7 -3 7 -7 -3 -18 2 -31 21 -51 12 -12 19 -22 16
-22 -3 0 11 -27 30 -61 18 -33 34 -65 34 -70 0 -5 4 -9 8 -9 5 0 23 -31 41
-70 19 -41 37 -67 44 -63 5 3 7 1 3 -5 -3 -6 -2 -13 4 -17 6 -4 8 -11 5 -16
-4 -5 -1 -9 4 -9 6 0 11 -9 11 -20 0 -11 7 -20 15 -20 8 0 14 -3 13 -7 -4 -15
13 -53 23 -53 6 0 8 -3 6 -7 -2 -5 4 -21 14 -38 10 -16 26 -45 35 -63 9 -17
21 -32 26 -32 5 0 6 -4 3 -10 -3 -5 -1 -10 5 -10 7 0 10 -7 6 -15 -3 -8 -1
-15 4 -15 6 0 10 -7 10 -15 0 -8 3 -15 8 -15 4 0 13 -15 21 -32 8 -18 17 -35
20 -38 4 -3 12 -16 19 -30 41 -79 60 -109 66 -103 4 4 4 -1 0 -11 -5 -13 -4
-17 4 -12 8 5 10 2 6 -8 -3 -9 -1 -16 5 -16 6 0 11 -9 11 -21 0 -15 5 -19 16
-15 8 3 12 2 9 -4 -3 -5 9 -35 26 -67 18 -32 38 -68 44 -80 7 -13 15 -20 19
-16 4 4 4 1 1 -8 -3 -8 3 -26 15 -39 18 -21 21 -28 19 -46 0 -3 9 -14 20 -23
11 -10 17 -21 13 -25 -4 -4 2 -14 12 -22 11 -8 16 -14 12 -14 -4 0 2 -14 14
-30 12 -16 18 -30 13 -30 -4 0 -1 -6 7 -13 9 -7 22 -27 29 -45 7 -17 18 -32
23 -32 5 0 7 -4 3 -9 -3 -5 1 -16 9 -24 8 -8 13 -17 10 -20 -3 -3 3 -11 14
-18 12 -8 17 -19 14 -32 -3 -14 -1 -18 6 -13 8 5 12 -1 12 -14 0 -12 4 -18 10
-15 6 3 10 -3 10 -14 0 -12 5 -21 11 -21 5 0 8 -4 4 -9 -3 -5 2 -17 11 -25 8
-9 12 -16 7 -16 -4 0 -3 -4 2 -8 6 -4 16 -20 23 -35 7 -15 17 -25 22 -22 6 3
7 -1 4 -9 -4 -10 -1 -16 7 -16 7 0 9 -3 6 -6 -6 -6 18 -59 33 -74 3 -3 16 -26
30 -52 13 -27 28 -48 33 -48 4 0 5 -4 2 -10 -3 -5 -1 -10 5 -10 6 0 9 -4 5 -9
-3 -5 1 -15 8 -23 7 -7 25 -37 41 -67 39 -77 50 -95 57 -101 4 -3 9 -15 13
-28 4 -12 12 -20 17 -17 5 3 6 -1 3 -9 -3 -9 -1 -16 5 -16 6 0 11 -7 11 -16 0
-9 5 -12 12 -8 7 4 8 3 4 -4 -10 -16 12 -54 26 -46 7 4 8 2 4 -5 -4 -6 0 -23
8 -36 9 -14 14 -25 10 -25 -3 0 4 -9 17 -21 13 -11 18 -18 11 -14 -6 3 -3 -10
9 -29 12 -20 25 -36 31 -36 5 0 6 -5 3 -11 -4 -5 1 -19 11 -30 9 -10 13 -19 8
-19 -5 0 -1 -5 9 -11 9 -5 17 -19 17 -30 0 -11 7 -22 15 -25 8 -4 12 -10 9
-15 -3 -5 0 -9 6 -9 6 0 8 -4 5 -10 -3 -5 1 -10 11 -10 13 0 14 -3 5 -14 -7
-8 -8 -15 -2 -18 5 -1 25 -32 45 -68 19 -36 40 -64 45 -63 6 2 8 -4 5 -12 -4
-8 -1 -15 5 -15 6 0 8 -7 5 -15 -4 -8 -1 -15 4 -15 6 0 14 -10 18 -22 3 -12
13 -28 20 -36 8 -7 12 -18 9 -23 -4 -5 -1 -9 4 -9 6 0 11 -7 11 -15 0 -8 5
-15 10 -15 6 0 10 -9 10 -20 0 -11 3 -20 8 -20 4 0 12 -10 18 -23 24 -49 59
-112 65 -117 4 -3 9 -15 13 -28 4 -12 12 -20 17 -17 5 3 6 -1 3 -9 -3 -9 -1
-16 5 -16 6 0 10 -6 9 -12 -2 -7 2 -12 9 -11 7 2 10 -3 7 -11 -3 -7 2 -20 10
-29 8 -8 12 -17 9 -21 -4 -3 -1 -6 6 -6 7 0 9 -4 6 -10 -3 -5 -1 -10 4 -10 6
0 11 -7 11 -15 0 -8 5 -15 11 -15 5 0 8 -4 5 -9 -3 -5 7 -21 22 -37 15 -15 21
-24 15 -20 -7 4 -13 2 -13 -3 0 -6 5 -11 10 -11 6 0 10 -5 10 -11 0 -22 27
-35 75 -34 28 0 53 -4 57 -10 5 -6 8 -4 8 5 0 13 1 13 10 0 7 -11 10 -11 10
-2 0 7 4 11 9 8 5 -3 66 -8 137 -11 70 -3 129 -7 132 -10 3 -3 11 0 18 6 8 7
14 7 19 -1 3 -5 11 -10 16 -10 6 0 7 5 3 12 -5 7 -3 8 6 3 13 -8 71 -12 247
-18 28 -1 55 -5 58 -9 4 -4 15 -4 24 1 20 9 52 8 69 -2 7 -5 12 -4 12 3 0 6 5
8 13 3 17 -11 57 -12 57 -1 0 5 7 5 18 0 16 -8 81 -12 289 -15 51 -1 93 -6 93
-10 0 -4 9 -3 19 3 14 7 21 6 24 -3 3 -9 7 -9 20 2 10 7 17 9 17 4 0 -5 11
-10 26 -11 16 -1 23 2 18 9 -4 8 -1 8 12 2 17 -8 52 -11 234 -17 25 -1 50 -5
57 -9 6 -4 14 -3 17 1 6 10 36 9 54 -2 6 -4 12 -4 12 1 0 4 11 8 25 8 14 0 25
-3 25 -6 0 -10 44 -5 52 6 5 6 8 6 8 -1 0 -7 18 -11 48 -10 26 1 57 -2 70 -6
13 -4 22 -3 22 3 0 6 7 6 18 2 9 -5 53 -8 97 -8 44 0 83 -4 87 -10 5 -6 8 -5
8 2 0 9 7 10 25 3 16 -6 25 -6 25 0 0 6 10 6 27 -1 19 -7 28 -6 33 2 4 6 10 7
13 2 3 -5 19 -10 36 -11 24 -2 29 1 28 18 -1 11 -7 22 -15 25 -7 3 -10 9 -7
15 3 5 3 10 -2 10 -9 0 -39 61 -35 73 1 5 -1 6 -6 3 -5 -3 -15 10 -22 29 -8
19 -17 35 -22 35 -4 0 -8 9 -8 20 0 10 -8 23 -17 29 -10 5 -17 12 -16 15 3 11
-10 46 -17 46 -5 0 -13 14 -19 30 -5 17 -14 30 -19 30 -5 0 -12 13 -15 29 -3
16 -13 36 -22 45 -9 9 -13 16 -9 16 4 0 -1 7 -12 16 -10 8 -12 12 -4 8 8 -5 5
4 -8 20 -12 16 -22 35 -22 42 0 8 -4 14 -9 14 -5 0 -15 16 -22 35 -7 19 -17
35 -22 35 -4 0 -5 5 -2 10 3 6 1 10 -5 10 -6 0 -9 4 -6 9 4 5 2 11 -3 13 -5 1
-11 10 -13 18 -3 14 -7 20 -35 54 -6 7 -9 17 -6 20 4 3 0 6 -7 6 -7 0 -11 3
-7 6 3 4 -9 31 -28 60 -19 30 -35 61 -35 68 0 8 -7 16 -15 20 -9 3 -12 12 -8
22 4 12 3 15 -5 10 -7 -4 -12 -1 -12 9 0 9 -7 23 -15 32 -8 8 -13 18 -10 23 3
4 -2 11 -11 14 -8 3 -12 10 -9 16 3 5 1 10 -4 10 -6 0 -11 7 -11 15 0 8 -5 15
-11 15 -5 0 -8 4 -4 9 3 5 -2 17 -11 25 -8 9 -12 16 -8 16 4 0 0 8 -9 18 -10
10 -14 22 -10 25 3 4 1 7 -5 7 -10 0 -30 36 -42 75 -2 6 -10 15 -19 22 -9 7
-12 13 -8 13 5 0 1 7 -7 16 -9 8 -14 20 -11 25 4 5 1 9 -4 9 -6 0 -11 7 -11
16 0 8 -4 13 -9 9 -6 -3 -8 4 -6 15 2 11 0 18 -5 15 -5 -3 -12 6 -16 20 -3 14
-10 25 -16 25 -5 0 -6 4 -3 10 3 5 1 10 -5 10 -6 0 -8 4 -5 10 3 5 2 10 -3 10
-6 0 -17 18 -26 40 -9 22 -21 40 -27 40 -6 0 -9 6 -6 14 3 8 2 16 -3 18 -5 2
-10 10 -12 18 -2 8 -11 23 -20 34 -10 11 -18 26 -18 33 0 7 -5 13 -11 13 -5 0
-8 4 -4 9 3 6 -3 14 -12 20 -10 6 -14 11 -9 11 5 0 -1 12 -15 27 -18 21 -19
24 -4 13 17 -12 16 -10 -2 11 -13 14 -23 33 -23 43 0 9 -5 14 -10 11 -6 -3
-10 1 -10 10 0 9 -9 29 -19 44 -11 15 -21 34 -23 42 -2 8 -10 19 -18 26 -8 7
-11 13 -7 13 5 0 1 7 -7 16 -9 8 -14 19 -11 24 3 4 -2 11 -11 14 -8 3 -13 10
-9 15 3 6 -2 14 -11 19 -9 5 -15 11 -13 13 6 11 -14 48 -23 43 -6 -4 -8 -2 -4
4 3 6 2 13 -4 17 -6 4 -8 11 -5 16 4 5 1 9 -4 9 -6 0 -11 7 -11 15 0 8 -4 15
-10 15 -5 0 -10 9 -10 20 0 11 -4 20 -10 20 -5 0 -10 7 -10 15 0 8 -5 15 -11
15 -5 0 -7 5 -4 10 3 6 1 10 -5 10 -7 0 -10 6 -7 14 3 8 -1 17 -9 20 -9 3 -12
10 -9 16 3 5 1 10 -4 10 -6 0 -11 7 -11 16 0 8 -5 12 -10 9 -6 -3 -10 3 -10
14 0 11 -7 27 -16 35 -8 9 -13 20 -10 24 3 5 -4 14 -14 22 -10 8 -17 17 -14
22 3 4 -1 15 -8 23 -35 39 -39 45 -27 45 7 0 2 9 -10 19 -12 11 -22 22 -22 25
3 24 0 36 -8 31 -5 -3 -15 10 -21 29 -6 19 -16 36 -21 38 -6 2 -11 12 -13 21
-1 10 -8 22 -15 26 -7 5 -12 10 -12 12 2 13 -13 49 -20 49 -5 0 -9 6 -9 13 0
7 -8 22 -18 33 -10 11 -17 25 -14 32 2 6 -5 12 -15 12 -15 0 -16 2 -3 10 8 5
10 10 4 10 -5 0 -16 16 -24 35 -8 19 -17 35 -22 35 -4 0 -8 7 -8 16 0 9 -5 12
-12 8 -7 -4 -8 -3 -4 4 7 11 -19 60 -39 74 -5 4 -6 8 -1 8 5 0 2 8 -7 18 -10
10 -14 22 -10 25 3 4 1 7 -6 7 -7 0 -9 5 -6 10 3 6 1 10 -6 10 -7 0 -10 3 -6
6 3 3 -3 14 -14 25 -11 11 -17 24 -14 29 4 6 2 10 -3 10 -6 0 -13 11 -16 25
-4 14 -11 25 -17 25 -6 0 -7 5 -4 10 3 6 1 10 -5 10 -6 0 -8 5 -5 10 3 6 1 10
-4 10 -6 0 -10 6 -9 13 2 6 -2 11 -8 10 -6 -1 -11 5 -12 13 -1 7 -3 21 -4 29
-1 8 -5 12 -9 9 -5 -3 -11 7 -15 21 -3 14 -10 25 -16 25 -5 0 -6 5 -3 10 3 6
1 10 -5 10 -6 0 -8 4 -5 10 3 5 1 10 -4 10 -6 0 -11 7 -11 16 0 8 -4 12 -10 9
-5 -3 -7 0 -5 8 3 7 -3 24 -14 36 -12 13 -18 28 -15 32 3 5 0 9 -5 9 -6 0 -11
7 -11 15 0 8 -5 15 -11 15 -6 0 -8 7 -5 15 3 9 -1 18 -8 21 -8 3 -22 23 -30
45 -9 21 -21 39 -27 39 -5 0 -8 4 -4 9 3 5 -1 16 -9 24 -8 8 -12 17 -9 21 4 3
1 6 -6 6 -7 0 -9 5 -6 10 3 6 1 10 -6 10 -7 0 -10 3 -6 6 3 4 -4 15 -16 26
-12 11 -16 17 -9 13 18 -9 15 3 -8 27 -11 12 -20 28 -20 35 0 7 -5 13 -11 13
-5 0 -8 4 -4 9 3 5 1 12 -4 15 -15 10 -50 84 -43 92 4 4 1 4 -5 0 -9 -5 -13 0
-13 14 0 12 -4 18 -10 15 -9 -5 -15 16 -11 38 1 5 -3 6 -9 2 -5 -3 -10 -1 -10
6 0 7 -8 21 -17 32 -10 12 -12 17 -4 12 7 -4 3 7 -10 26 -13 19 -27 35 -31 37
-4 2 -4 10 -1 19 4 11 2 14 -5 9 -11 -6 -17 12 -13 37 1 5 -3 6 -9 2 -5 -3
-10 2 -10 12 0 11 -4 23 -10 29 -19 19 -79 124 -67 118 7 -3 5 0 -3 8 -8 7
-22 27 -30 43 -8 17 -19 33 -25 37 -5 4 -6 8 -2 8 5 0 1 7 -8 16 -9 9 -14 23
-11 30 3 8 0 13 -7 11 -7 -1 -11 4 -9 11 1 6 -3 12 -9 12 -5 0 -7 5 -4 10 3 6
1 10 -4 10 -6 0 -11 7 -11 15 0 8 -4 15 -10 15 -5 0 -10 9 -10 21 0 11 -5 17
-10 14 -6 -3 -10 3 -10 14 0 12 -6 21 -12 21 -10 0 -9 3 1 9 11 7 9 10 -7 15
-12 4 -19 13 -16 20 3 7 -2 19 -11 26 -8 7 -15 19 -15 27 0 8 -4 12 -8 9 -4
-2 -9 5 -9 17 -1 11 -9 24 -17 29 -9 5 -13 15 -9 25 4 11 3 14 -5 9 -7 -4 -12
-1 -12 9 0 9 -7 23 -15 32 -8 8 -13 19 -10 24 4 5 1 9 -4 9 -6 0 -11 10 -11
23 0 18 -2 19 -10 7 -8 -12 -10 -11 -10 8 0 12 -5 22 -11 22 -5 0 -8 4 -4 9 3
5 -1 16 -9 24 -8 8 -12 17 -9 21 4 3 0 6 -7 6 -7 0 -11 3 -7 6 3 3 -3 15 -14
27 -10 11 -19 29 -19 39 0 10 -4 18 -10 18 -5 0 -10 9 -10 21 0 11 -4 17 -10
14 -5 -3 -10 3 -10 14 0 12 -5 21 -11 21 -5 0 -7 4 -4 10 3 5 2 10 -3 10 -10
0 -36 53 -32 66 1 4 -5 11 -14 16 -9 5 -16 16 -16 23 0 8 -5 15 -11 15 -5 0
-8 4 -4 9 3 5 1 12 -5 16 -6 4 -7 11 -4 17 4 6 2 8 -3 5 -6 -4 -17 8 -24 26
-7 17 -19 38 -26 45 -7 8 -11 18 -8 23 4 5 1 9 -4 9 -6 0 -11 11 -11 25 0 14
5 25 11 25 5 0 7 5 4 10 -3 6 -2 10 2 10 5 0 17 17 28 38 11 20 22 39 25 42 3
3 14 22 25 43 11 20 23 37 27 37 5 0 8 7 8 15 0 8 5 15 11 15 5 0 8 4 4 9 -3
5 0 15 7 23 18 18 61 88 76 121 6 15 16 27 21 27 6 0 8 7 4 15 -3 10 -1 15 7
13 7 -2 14 6 16 17 1 11 8 21 13 23 6 2 11 10 11 19 0 8 6 21 13 28 28 32 37
45 37 52 0 4 13 28 29 52 17 25 27 49 24 54 -3 6 -1 7 4 4 6 -4 16 7 23 23 7
17 17 30 22 30 5 0 8 6 6 12 -4 12 -1 19 32 57 8 10 16 24 18 32 2 8 8 16 13
17 5 2 9 8 9 13 0 5 17 35 37 66 21 32 38 60 38 63 0 3 10 19 23 37 12 17 22
36 22 42 0 6 5 11 11 11 5 0 8 4 4 9 -3 6 1 13 9 18 8 4 14 10 14 13 -1 3 10
23 24 45 14 22 37 62 51 90 15 27 27 45 27 40 0 -5 11 10 24 35 13 25 22 49
18 54 -3 5 -1 6 5 3 10 -6 38 40 35 56 -1 4 3 7 8 7 6 0 15 10 20 23 17 38 62
112 74 119 6 4 8 8 4 8 -4 0 0 9 10 20 9 12 17 25 17 30 0 4 10 20 22 34 13
14 21 26 18 26 -5 0 114 192 124 200 3 3 7 12 9 20 2 8 17 34 33 58 16 23 29
47 29 51 0 5 7 14 15 21 9 7 13 15 11 17 -3 3 4 14 15 26 10 11 19 27 19 34 0
7 3 13 8 13 4 0 13 14 20 30 8 17 19 36 26 43 6 6 17 23 24 37 7 14 23 43 37
65 14 22 31 50 37 63 6 12 15 22 19 22 4 0 10 11 13 24 3 14 12 31 19 38 18
21 36 50 50 81 6 15 15 27 19 27 4 0 8 7 8 15 0 8 4 15 9 15 5 0 13 10 17 23
4 12 15 33 25 46 10 13 16 28 12 34 -3 5 -2 7 4 4 9 -6 49 60 45 76 -1 4 3 7
9 7 5 0 17 16 25 35 8 20 21 38 29 41 7 3 11 12 8 20 -3 8 -1 14 4 14 4 0 17
17 28 38 10 20 25 45 33 54 14 16 30 44 73 126 13 23 27 42 31 42 4 0 8 5 8
11 0 6 9 22 20 36 11 14 17 29 14 34 -3 5 2 12 10 15 9 3 16 12 16 20 0 8 5
14 10 14 6 0 10 7 10 15 0 8 5 15 11 15 5 0 7 5 4 10 -3 6 -1 10 5 10 6 0 9 4
6 9 -3 5 1 14 9 21 8 7 25 32 37 56 12 24 26 44 30 44 5 0 7 4 4 9 -3 4 3 16
14 26 11 10 17 22 14 26 -3 5 0 9 6 9 6 0 8 5 5 10 -3 6 -2 10 3 10 5 0 17 17
28 38 10 20 24 40 29 44 6 4 10 12 10 18 0 6 7 15 15 20 8 5 11 12 8 16 -4 3
-2 12 5 20 22 24 32 40 35 53 1 7 11 22 22 33 11 12 17 24 15 28 -3 5 2 11 11
14 8 3 12 10 9 16 -3 5 -1 10 4 10 6 0 11 7 11 15 0 8 5 15 11 15 5 0 7 4 4
10 -3 5 3 15 14 21 11 7 17 19 13 27 -3 10 -1 13 6 8 8 -5 12 0 12 13 0 12 5
21 11 21 5 0 7 5 4 10 -3 6 -2 10 3 10 5 0 15 12 23 28 7 15 26 46 42 70 15
23 25 42 22 42 -3 0 3 10 15 22 11 12 20 28 20 35 0 7 5 13 10 13 6 0 10 7 10
15 0 8 5 15 11 15 5 0 7 5 4 10 -3 6 -2 10 4 10 10 0 27 39 23 53 -1 5 1 6 6
3 5 -3 18 12 28 34 10 22 22 40 27 40 4 0 7 5 7 11 0 7 16 36 35 65 19 29 35
57 35 63 0 6 4 11 10 11 5 0 12 11 16 25 3 14 10 25 15 25 5 0 9 5 9 11 0 6
14 30 30 55 17 24 28 44 24 44 -4 0 0 6 11 13 11 9 15 19 10 27 -5 8 -4 11 2
7 10 -6 25 14 27 36 1 4 6 11 12 15 6 4 17 22 25 40 8 17 17 32 21 32 5 0 8 7
8 15 0 8 5 15 10 15 6 0 10 7 10 15 0 8 5 15 11 15 5 0 8 4 5 8 -3 5 4 19 15
30 11 12 17 22 14 22 -4 0 1 7 9 16 9 8 14 20 11 25 -4 5 -2 9 2 9 10 0 49 62
45 73 -1 4 2 7 7 7 5 0 13 9 16 20 3 11 12 26 18 33 17 18 47 69 54 90 3 9 9
17 14 17 5 0 9 7 9 15 0 8 5 15 11 15 5 0 7 5 4 10 -3 6 -1 10 6 10 7 0 10 3
6 6 -3 3 3 15 14 27 10 11 19 28 19 36 0 16 -74 21 -397 24 -51 1 -83 5 -83
11 0 7 -3 8 -8 1 -8 -11 -112 -15 -112 -4 0 4 -13 4 -30 -1 -21 -6 -30 -5 -30
3 0 7 -4 6 -10 -3 -7 -11 -10 -11 -10 -2 0 10 -5 10 -20 2 -11 -6 -20 -7 -20
-3 0 4 -60 8 -133 8 -72 0 -153 3 -179 6 -27 3 -52 1 -58 -5 -6 -6 -10 -6 -10
0 0 5 -54 9 -128 9 -70 0 -132 3 -139 8 -6 4 -14 3 -18 -3 -3 -6 -11 -7 -17
-4 -18 11 -68 10 -68 -1 0 -7 -3 -7 -8 0 -9 13 -82 15 -82 2 0 -5 -7 -4 -16 4
-12 10 -20 10 -34 1 -11 -6 -21 -8 -24 -3 -3 5 -27 8 -53 7 -27 -1 -56 2 -65
6 -9 5 -19 4 -23 -2 -3 -5 -12 -7 -19 -4 -8 3 -66 6 -129 7 -64 1 -119 5 -123
9 -3 4 -14 4 -23 -1 -19 -9 -32 -8 -48 2 -7 5 -13 4 -13 -1 0 -5 -7 -9 -15 -9
-8 0 -15 5 -15 10 0 5 -6 4 -14 -2 -8 -7 -16 -8 -19 -4 -6 10 -59 9 -75 -1 -6
-3 -13 -2 -17 4 -4 7 -12 7 -24 0 -10 -5 -22 -6 -26 -2 -8 8 -154 11 -156 3z"/>
<path d="M18404 12443 c-4 -16 -7 -31 -6 -35 1 -5 -3 -7 -10 -5 -7 1 -13 -2
-13 -8 -3 -20 -28 -65 -37 -65 -5 0 -6 -4 -3 -10 3 -5 1 -10 -5 -10 -7 0 -10
-6 -7 -13 3 -7 -4 -19 -14 -26 -11 -6 -17 -16 -14 -21 3 -6 1 -10 -5 -10 -6 0
-9 -4 -5 -9 3 -6 -3 -14 -12 -20 -10 -6 -14 -11 -10 -11 5 0 -1 -13 -12 -29
-12 -16 -21 -34 -21 -40 0 -5 -7 -14 -16 -19 -9 -5 -16 -13 -16 -18 -2 -24
-11 -44 -20 -44 -5 0 -6 -4 -3 -10 3 -5 1 -10 -4 -10 -6 0 -11 -7 -11 -15 0
-8 -5 -15 -11 -15 -6 0 -9 -6 -6 -14 3 -8 -1 -17 -9 -20 -8 -3 -14 -12 -14
-21 0 -8 -5 -15 -11 -15 -5 0 -7 -4 -4 -10 3 -5 1 -10 -4 -10 -6 0 -11 -7 -11
-15 0 -8 -9 -24 -19 -34 -11 -11 -17 -22 -13 -25 3 -3 0 -6 -6 -6 -7 0 -12 -3
-11 -7 2 -13 -13 -53 -20 -53 -3 0 -12 -9 -19 -21 -11 -17 -11 -20 0 -14 7 3
5 0 -4 -8 -10 -8 -18 -19 -18 -24 0 -6 -7 -16 -15 -23 -13 -11 -13 -15 -3 -21
10 -7 9 -9 -4 -9 -10 0 -18 -6 -18 -14 0 -7 -7 -19 -15 -26 -8 -7 -12 -16 -9
-21 3 -5 0 -9 -6 -9 -6 0 -8 -4 -5 -10 3 -5 1 -10 -4 -10 -6 0 -11 -6 -11 -14
0 -8 -7 -16 -15 -20 -8 -3 -14 -9 -13 -13 4 -15 -13 -53 -24 -53 -5 0 -8 -7
-4 -15 3 -8 2 -14 -2 -12 -4 1 -7 0 -7 -3 0 -3 -10 -19 -23 -37 -12 -17 -22
-36 -22 -42 0 -6 -3 -11 -8 -11 -8 0 -38 -61 -34 -72 1 -5 -2 -8 -7 -8 -5 0
-13 -9 -16 -20 -4 -11 -11 -17 -17 -14 -6 4 -8 2 -4 -4 3 -6 2 -13 -4 -17 -6
-4 -8 -11 -5 -16 4 -5 -1 -12 -9 -15 -9 -3 -13 -10 -10 -15 3 -5 0 -9 -6 -9
-6 0 -9 -4 -6 -9 3 -5 -1 -12 -10 -15 -8 -3 -13 -10 -10 -15 3 -4 -3 -19 -14
-31 -23 -27 -25 -34 -7 -25 6 4 3 -1 -7 -9 -11 -9 -16 -16 -10 -16 5 0 1 -5
-9 -11 -9 -6 -15 -14 -12 -20 4 -5 1 -9 -4 -9 -6 0 -11 -7 -11 -15 0 -8 -5
-15 -11 -15 -5 0 -8 -4 -4 -9 3 -5 0 -13 -6 -17 -6 -3 -17 -22 -25 -40 -8 -19
-19 -34 -25 -34 -5 0 -8 -4 -5 -9 3 -5 -1 -14 -9 -21 -8 -7 -12 -16 -9 -21 3
-5 0 -9 -6 -9 -7 0 -9 -7 -6 -16 3 -8 2 -12 -4 -9 -5 3 -12 -6 -16 -20 -3 -14
-10 -25 -14 -25 -4 0 -22 -29 -40 -65 -18 -35 -37 -62 -41 -59 -5 3 -6 -2 -3
-10 3 -9 1 -16 -6 -16 -6 0 -8 -4 -5 -10 3 -5 1 -10 -5 -10 -6 0 -8 -4 -5 -10
3 -5 3 -10 -2 -10 -9 0 -39 -61 -35 -73 1 -5 -2 -6 -7 -3 -5 3 -15 -2 -22 -11
-10 -12 -10 -14 -1 -9 6 4 12 3 12 -2 0 -6 -7 -13 -16 -16 -9 -4 -14 -9 -11
-13 4 -3 -1 -12 -11 -20 -11 -10 -12 -12 -2 -8 10 4 9 2 -2 -8 -10 -8 -18 -19
-18 -26 0 -6 -4 -11 -10 -11 -5 0 -6 -7 -3 -17 4 -11 3 -14 -5 -9 -7 4 -12 1
-12 -8 0 -8 -7 -22 -16 -30 -8 -9 -13 -16 -9 -16 3 0 -3 -13 -14 -29 -11 -15
-25 -40 -31 -55 -5 -14 -14 -26 -20 -26 -6 0 -8 -4 -5 -10 3 -5 1 -10 -5 -10
-6 0 -9 -4 -5 -9 3 -6 -3 -14 -12 -20 -10 -5 -17 -13 -17 -18 1 -4 -6 -24 -17
-44 -10 -20 -16 -39 -14 -43 3 -3 2 -4 -2 -1 -6 5 -47 -52 -48 -68 0 -4 -6
-11 -13 -16 -8 -5 -13 -10 -11 -12 4 -8 -13 -49 -21 -49 -4 0 -13 -12 -19 -27
-17 -41 -73 -137 -85 -145 -6 -4 -7 -8 -3 -8 4 0 -6 -20 -23 -44 -16 -25 -30
-48 -30 -51 0 -4 -9 -20 -21 -36 -11 -16 -17 -29 -12 -29 4 0 0 -5 -10 -11 -9
-6 -15 -14 -13 -18 3 -4 -3 -17 -14 -28 -10 -12 -16 -24 -12 -28 4 -3 -1 -11
-11 -16 -9 -6 -15 -14 -12 -20 4 -5 2 -9 -3 -9 -6 0 -15 -12 -21 -27 -6 -16
-20 -41 -31 -58 -11 -16 -28 -46 -37 -65 -10 -19 -21 -36 -25 -38 -5 -2 -8
-10 -8 -18 0 -8 -5 -14 -11 -14 -5 0 -8 -4 -4 -9 3 -5 1 -12 -4 -15 -5 -4 -31
-46 -57 -94 -26 -48 -51 -88 -56 -90 -4 -2 -8 -10 -8 -18 0 -8 -9 -23 -20 -34
-11 -11 -20 -22 -19 -25 1 -12 -26 -65 -34 -65 -5 0 -5 -5 -2 -10 3 -6 -1 -13
-9 -16 -9 -3 -13 -10 -10 -15 3 -5 1 -9 -4 -9 -4 0 -14 -16 -22 -35 -8 -19
-17 -35 -22 -35 -4 0 -8 -6 -8 -14 0 -8 -7 -22 -16 -31 -9 -9 -14 -18 -11 -22
3 -3 -2 -14 -12 -25 -10 -10 -29 -40 -42 -66 -13 -26 -30 -53 -37 -60 -6 -8
-10 -18 -7 -23 4 -5 -1 -9 -9 -9 -9 0 -13 -6 -10 -13 2 -7 -6 -25 -20 -40 -14
-15 -22 -27 -19 -27 3 0 0 -6 -6 -13 -6 -8 -8 -17 -4 -20 3 -4 -2 -9 -11 -13
-9 -3 -13 -10 -10 -15 3 -5 1 -9 -5 -9 -5 0 -13 -10 -17 -22 -3 -13 -15 -35
-26 -50 -11 -16 -16 -28 -11 -28 4 0 0 -5 -10 -11 -9 -6 -15 -14 -12 -20 4 -5
1 -9 -4 -9 -6 0 -11 -6 -11 -14 0 -7 -6 -19 -14 -26 -8 -6 -12 -19 -9 -28 3
-9 3 -14 -1 -10 -11 10 -34 -14 -29 -29 3 -7 0 -13 -6 -13 -6 0 -11 -4 -11 -9
0 -19 -77 -141 -84 -134 -4 4 -4 0 -1 -8 3 -9 -1 -22 -10 -29 -8 -7 -15 -18
-15 -26 0 -19 -46 -84 -54 -76 -4 3 -4 -1 0 -11 3 -10 1 -17 -6 -17 -6 0 -8
-4 -5 -10 3 -5 1 -10 -4 -10 -6 0 -11 -6 -11 -13 0 -7 -10 -24 -22 -37 -13
-14 -21 -25 -19 -25 8 0 -11 -45 -19 -45 -8 0 -26 -41 -21 -48 1 -1 -5 -10
-14 -18 -8 -9 -13 -20 -9 -25 3 -5 0 -8 -8 -7 -7 2 -12 -2 -11 -9 1 -6 -4 -17
-12 -23 -8 -7 -15 -18 -15 -25 0 -7 -7 -18 -15 -25 -8 -6 -14 -15 -13 -18 2
-20 -3 -32 -12 -27 -5 3 -10 -3 -10 -14 0 -11 -7 -24 -16 -29 -9 -5 -16 -13
-16 -18 0 -18 -39 -84 -49 -84 -6 0 -9 -7 -5 -15 3 -8 1 -15 -5 -15 -6 0 -7
-5 -4 -10 3 -6 -1 -13 -9 -16 -9 -3 -13 -10 -10 -15 3 -5 0 -9 -5 -9 -6 0 -11
-9 -11 -19 0 -10 -7 -22 -16 -25 -8 -3 -12 -10 -9 -16 3 -6 -1 -13 -9 -16 -9
-3 -13 -10 -10 -15 3 -5 1 -9 -5 -9 -6 0 -7 -7 -4 -17 4 -10 2 -14 -4 -10 -7
4 -16 -7 -23 -28 -6 -19 -15 -35 -19 -35 -4 0 -13 -16 -21 -35 -10 -26 -17
-32 -26 -24 -8 7 -14 7 -19 -1 -5 -7 -11 -8 -19 -1 -7 6 -17 6 -26 1 -8 -5
-19 -6 -25 -2 -18 11 -44 12 -50 2 -4 -6 -12 -7 -18 -3 -17 11 -57 11 -63 1
-3 -4 -11 -5 -17 -1 -20 13 -157 12 -150 -1 5 -8 3 -8 -8 0 -8 7 -65 11 -145
11 -73 0 -137 3 -143 7 -6 4 -11 3 -11 -3 0 -6 -6 -8 -12 -6 -7 3 -222 7 -478
9 -256 2 -469 5 -475 6 -5 1 -12 1 -15 0 -20 -7 -40 -7 -40 2 0 6 -7 4 -17 -3
-13 -11 -17 -11 -20 -2 -3 9 -10 10 -24 3 -14 -8 -19 -7 -19 2 0 8 -3 9 -8 3
-10 -14 -32 -17 -32 -5 0 6 -9 6 -25 0 -16 -6 -26 -6 -31 1 -4 6 -11 6 -21 -2
-9 -8 -17 -9 -21 -3 -8 11 -22 12 -39 1 -8 -5 -13 -4 -13 3 0 7 -6 8 -19 1
-10 -6 -21 -8 -23 -5 -9 8 -79 11 -84 3 -3 -5 -16 -4 -30 1 -32 13 -37 12 -29
0 4 -6 -2 -7 -17 -2 -13 4 -177 7 -365 7 -189 0 -343 4 -343 8 0 5 -5 5 -11 2
-9 -6 -219 -7 -341 -1 -28 1 -48 -3 -48 -9 0 -6 -3 -7 -8 0 -10 14 -133 14
-124 0 4 -6 1 -6 -9 1 -8 5 -36 9 -64 9 -27 -1 -53 3 -57 9 -6 8 -8 8 -8 -1 0
-12 -17 -12 -36 0 -6 3 -14 3 -18 0 -11 -12 -48 -14 -61 -3 -6 5 -15 7 -19 3
-10 -11 -116 -11 -116 -1 0 5 -6 6 -12 1 -19 -11 -37 -12 -44 -2 -3 5 -10 7
-15 4 -16 -10 -89 -13 -89 -3 0 5 -8 4 -19 -1 -10 -6 -21 -7 -25 -4 -7 7 -66
10 -66 3 0 -3 -11 -5 -25 -5 -14 0 -25 3 -25 7 0 8 -34 3 -50 -7 -6 -3 -10 -2
-10 3 0 6 -14 7 -34 2 -19 -4 -37 -5 -40 -2 -11 10 -61 8 -68 -2 -6 -8 -11 -7
-17 2 -9 15 -20 15 -38 1 -7 -7 -13 -6 -18 0 -6 11 -32 10 -50 -1 -6 -4 -17
-3 -25 2 -9 5 -19 5 -26 -1 -8 -7 -14 -6 -19 1 -3 5 -11 10 -16 10 -6 0 -7 -5
-3 -12 5 -7 3 -8 -7 -2 -21 13 -120 13 -112 0 4 -7 2 -7 -8 0 -8 7 -27 12 -44
12 -16 0 -36 -5 -44 -12 -9 -6 -12 -7 -8 0 4 7 -26 11 -94 11 -73 1 -97 -2
-92 -10 5 -9 3 -9 -8 0 -8 6 -40 11 -72 12 -32 0 -62 3 -67 6 -6 3 -10 3 -10
-2 0 -4 -36 -6 -80 -3 -44 3 -80 2 -80 -2 0 -4 -6 -5 -12 -3 -27 10 -89 12
-94 3 -3 -4 -10 -5 -16 -2 -6 4 -66 7 -134 7 -81 0 -124 4 -124 11 0 8 -3 8
-8 1 -9 -14 -344 -14 -354 0 -5 6 -8 6 -8 -1 0 -6 -7 -11 -15 -11 -8 0 -15 3
-15 7 0 4 -7 7 -15 7 -8 0 -12 -4 -9 -9 7 -10 1 -10 -30 2 -14 5 -26 6 -26 1
0 -11 -34 -10 -42 2 -4 7 -11 7 -20 0 -7 -6 -22 -9 -33 -7 -35 7 -49 7 -67 -1
-11 -4 -18 -3 -18 3 0 6 -9 9 -20 7 -27 -5 -40 -14 -40 -26 0 -6 5 -7 10 -4 6
3 10 -1 10 -9 0 -9 5 -16 11 -16 5 0 8 -4 4 -9 -3 -5 1 -16 10 -24 8 -8 16
-21 17 -28 2 -7 12 -22 23 -32 11 -10 14 -16 8 -12 -19 9 -16 -3 7 -27 11 -12
20 -28 20 -35 0 -7 5 -13 11 -13 5 0 8 -4 4 -9 -3 -5 -1 -12 4 -16 9 -5 21
-26 62 -107 10 -20 23 -40 29 -43 6 -4 8 -11 5 -16 -4 -5 -1 -9 5 -9 6 0 8 -5
5 -10 -3 -6 2 -10 12 -10 15 0 16 -2 3 -10 -8 -5 -10 -10 -4 -10 6 0 19 -18
29 -40 10 -22 22 -40 27 -40 5 0 6 -4 3 -10 -3 -5 -1 -10 5 -10 6 0 9 -4 6 -9
-4 -5 -3 -11 1 -13 5 -1 21 -28 37 -58 16 -30 35 -62 42 -71 8 -8 14 -23 14
-32 0 -9 4 -17 9 -17 5 0 15 -16 22 -35 7 -19 16 -35 19 -35 4 0 12 -16 20
-35 8 -19 17 -35 22 -35 4 0 8 -9 8 -20 0 -11 5 -20 10 -20 6 0 10 -6 10 -13
0 -7 9 -23 20 -35 12 -12 18 -22 14 -22 -4 0 0 -8 9 -17 8 -10 15 -20 14 -23
-1 -8 76 -144 86 -151 5 -3 7 -9 5 -12 -1 -4 5 -15 14 -27 10 -11 15 -20 11
-20 -3 0 2 -9 12 -20 10 -11 15 -20 11 -20 -4 0 1 -12 11 -27 10 -16 28 -45
38 -65 11 -21 23 -38 27 -38 5 0 7 -3 7 -7 -4 -25 3 -43 17 -43 8 0 13 -4 10
-9 -3 -5 4 -20 15 -35 11 -14 17 -30 14 -36 -4 -6 -1 -9 7 -8 8 2 12 -4 10
-14 -2 -10 1 -18 5 -18 5 0 22 -27 38 -60 17 -33 34 -60 38 -60 5 0 5 -5 2
-10 -3 -6 1 -13 9 -16 9 -3 16 -17 16 -30 0 -14 6 -24 15 -24 8 0 12 -6 9 -13
-2 -7 4 -22 15 -34 11 -11 17 -24 14 -27 -4 -3 0 -6 7 -6 7 0 11 -3 7 -6 -3
-4 1 -13 9 -21 8 -8 12 -19 9 -24 -4 -5 -2 -9 3 -9 5 0 21 -25 37 -55 15 -31
32 -52 38 -48 5 3 7 1 3 -5 -7 -12 13 -62 26 -62 4 0 7 -3 6 -7 -4 -17 26 -62
36 -55 16 10 60 9 67 -2 4 -5 13 -5 20 0 20 12 38 14 44 3 3 -4 16 -4 29 1 15
5 27 5 35 -3 6 -6 11 -7 11 -1 0 13 38 15 46 3 3 -6 12 -5 21 3 18 15 22 15
35 -4 6 -9 11 -9 14 -2 4 9 51 11 89 4 6 -2 12 -1 15 0 16 7 80 5 80 -3 0 -5
8 -3 17 4 14 12 16 12 8 0 -6 -10 -4 -12 5 -6 19 12 90 14 90 3 0 -5 5 -6 12
-2 17 11 108 12 108 2 0 -5 6 -6 12 -2 18 11 48 12 48 2 0 -5 6 -6 13 -1 17
11 59 12 78 2 9 -5 19 -5 23 -2 11 11 46 10 46 -1 0 -7 3 -7 8 -1 8 11 67 14
77 3 4 -4 16 -3 26 3 14 7 19 6 19 -3 0 -9 3 -10 8 -2 8 12 40 12 60 0 6 -4
12 -3 12 2 0 11 101 10 119 -2 11 -7 12 -6 6 5 -8 12 -6 12 8 0 9 -7 17 -9 17
-4 0 8 73 10 90 3 3 -1 10 -1 15 0 29 8 175 4 175 -5 0 -6 4 -5 8 1 8 13 70
13 90 0 6 -4 18 -4 25 1 18 12 97 12 90 0 -4 -6 -1 -7 8 -1 21 12 120 14 112
1 -4 -6 -1 -7 8 -1 20 13 139 12 139 0 0 -6 4 -5 9 2 11 17 21 17 32 0 5 -7 9
-8 9 -3 0 13 169 14 189 1 9 -6 12 -5 8 1 -4 6 52 9 151 8 86 -1 165 3 176 8
12 6 16 6 12 -1 -3 -5 1 -13 10 -16 8 -3 13 -2 10 3 -3 4 8 8 24 9 16 0 32 -4
36 -9 3 -6 10 -6 17 -1 7 5 94 9 194 8 100 -1 179 3 176 7 -3 5 3 5 13 0 11
-5 116 -8 234 -7 149 1 217 -2 222 -10 6 -8 8 -7 8 1 0 8 14 13 38 13 20 0 44
0 52 0 8 0 70 -1 138 -2 67 -2 122 1 122 5 0 5 5 5 12 1 18 -11 128 -10 128 1
0 7 3 7 8 0 4 -5 14 -10 22 -10 8 0 18 5 22 10 5 7 8 7 8 0 0 -6 22 -9 50 -8
27 1 52 -2 55 -8 4 -5 17 -2 31 7 13 9 24 12 24 7 0 -13 43 -11 52 2 5 7 8 6
8 -1 0 -6 14 -9 33 -7 39 5 21 5 205 1 96 -2 152 1 152 7 0 7 3 7 8 0 4 -5 30
-10 57 -10 28 0 53 5 57 10 5 7 8 7 8 0 0 -6 24 -9 57 -7 84 4 154 2 164 -4 5
-3 9 1 9 8 0 9 3 9 10 -2 9 -13 10 -13 10 0 0 9 3 11 8 5 4 -5 18 -10 32 -10
14 0 28 5 32 10 5 6 8 5 8 -2 0 -8 7 -10 21 -4 12 4 41 4 65 1 24 -4 44 -4 44
0 0 4 20 4 45 0 25 -4 47 -5 50 -2 4 4 159 5 181 1 5 -1 11 -1 14 0 21 7 230
4 230 -3 0 -5 7 -3 15 4 12 10 15 10 15 -1 0 -11 2 -11 10 1 9 13 11 13 20 0
6 -10 10 -11 10 -3 0 9 7 10 25 3 18 -7 25 -6 25 3 0 8 3 8 9 -2 7 -10 10 -10
13 -1 3 10 9 10 25 1 12 -6 24 -7 27 -2 6 9 48 7 65 -3 5 -4 12 -2 15 3 4 6
18 6 36 1 17 -5 30 -6 30 -2 0 4 45 6 101 5 86 -1 101 1 106 15 4 9 13 21 20
25 7 5 11 12 8 17 -3 5 -1 11 4 14 16 10 60 103 53 111 -4 5 -2 5 4 2 6 -3 17
6 25 21 8 15 18 30 24 34 5 4 6 8 1 8 -5 0 -3 7 4 15 7 8 10 15 6 15 -3 0 3 9
14 20 11 11 20 29 20 41 0 11 4 18 9 14 5 -3 13 4 16 16 12 38 72 129 79 121
4 -4 6 -2 4 3 -4 14 33 95 44 95 5 0 6 5 3 10 -3 6 1 13 9 16 9 3 14 10 11 14
-2 4 4 18 15 30 11 13 20 32 20 43 0 11 3 17 6 14 4 -4 17 12 29 36 42 82 78
142 87 145 4 2 6 8 2 13 -3 5 -1 9 4 9 9 0 22 33 19 46 -1 3 6 10 16 15 9 6
15 14 12 20 -4 5 -2 9 3 9 8 0 42 63 41 76 0 3 8 12 18 20 10 7 14 14 8 14 -5
0 -5 4 2 8 6 4 13 14 15 21 2 8 11 23 21 33 10 11 16 26 13 34 -3 8 -2 13 2
11 4 -3 13 1 20 9 8 9 9 14 2 14 -6 0 -2 10 10 22 11 12 20 28 20 35 0 7 5 13
10 13 6 0 10 7 10 15 0 8 5 15 11 15 5 0 7 5 4 10 -3 6 -1 10 5 10 6 0 8 5 5
10 -3 6 -1 10 5 10 6 0 8 5 5 10 -3 6 1 13 9 16 9 3 13 10 10 15 -3 5 0 9 6 9
6 0 8 5 5 10 -3 6 -1 10 6 10 6 0 9 8 6 20 -3 10 -2 19 2 18 17 -2 28 3 28 15
0 6 12 31 27 55 15 23 24 47 21 53 -4 5 -1 8 6 7 7 -2 13 2 14 7 0 6 12 28 26
50 15 22 29 50 33 63 4 12 12 22 17 22 5 0 9 6 9 13 0 7 9 23 19 34 11 12 17
24 14 27 -4 3 2 16 13 29 20 23 27 34 69 115 15 29 31 52 37 52 5 0 7 4 3 9
-3 5 -1 12 5 16 6 4 8 11 5 16 -4 5 -1 9 5 9 10 0 35 48 32 63 -1 4 5 7 14 7
8 0 13 4 9 9 -3 5 0 13 6 16 5 4 8 14 4 23 -3 9 -3 13 1 9 8 -8 48 46 58 81 4
12 12 22 17 22 6 0 7 5 4 10 -3 6 0 13 9 16 8 3 13 14 11 24 -2 10 2 21 8 23
7 3 23 27 37 53 14 27 31 53 38 57 6 4 12 16 12 27 0 10 5 20 11 22 5 2 11 11
12 19 2 9 10 24 20 33 20 20 22 30 5 21 -7 -4 -5 0 5 8 9 8 17 20 17 26 0 7 5
9 11 5 7 -4 10 -1 7 7 -3 8 3 25 13 38 10 13 16 27 13 32 -3 5 0 8 6 7 7 -2
14 6 16 17 1 11 8 21 14 23 5 2 8 8 4 13 -3 5 0 9 5 9 6 0 11 7 11 15 0 8 5
15 11 15 5 0 8 4 4 9 -3 5 -1 12 5 16 6 4 7 11 4 17 -4 6 -2 8 3 5 14 -8 47
59 37 75 -4 6 -3 8 3 5 14 -9 34 15 36 42 0 11 4 18 8 16 3 -3 14 13 24 35 10
22 22 40 27 40 4 0 8 9 8 19 0 10 7 21 15 25 8 3 12 12 9 19 -3 8 2 17 11 21
9 3 13 10 10 16 -3 5 -2 10 4 10 6 0 13 11 17 25 3 14 10 25 15 25 5 0 9 7 9
15 0 8 5 15 11 15 5 0 7 5 4 10 -3 6 -1 10 5 10 7 0 10 7 6 15 -3 8 -1 15 5
15 6 0 19 20 30 45 11 24 27 48 35 53 9 5 15 11 13 13 -5 9 13 49 22 49 6 0 7
5 4 10 -3 6 1 13 9 16 9 3 14 10 11 14 -3 4 2 13 10 20 8 7 15 21 15 32 0 12
4 17 12 12 7 -5 9 -2 5 9 -3 9 0 18 9 21 8 3 14 12 14 21 0 8 5 15 12 15 6 0
8 3 5 6 -4 4 2 19 13 34 11 16 20 33 20 38 0 6 6 17 13 24 7 7 26 38 43 68 16
30 32 57 37 58 4 2 7 9 7 17 0 7 7 18 15 25 9 7 14 18 12 24 -2 6 5 19 15 30
10 11 18 26 18 33 0 7 4 13 9 13 5 0 11 8 15 18 6 18 30 62 59 106 10 14 14
26 10 26 -5 0 0 5 10 11 9 5 17 19 17 29 0 11 4 20 9 20 5 0 15 15 22 33 7 17
21 41 31 51 10 11 18 25 18 32 0 7 7 20 16 28 8 9 16 25 17 35 0 11 4 18 8 15
7 -4 14 9 18 31 1 6 12 21 24 34 12 13 15 21 7 16 -9 -5 -7 1 5 16 31 37 55
85 47 94 -4 5 -2 5 5 1 11 -6 30 29 25 47 -1 4 2 7 7 7 5 0 18 15 29 34 15 26
17 37 9 46 -9 10 -9 11 1 5 14 -7 44 24 36 37 -3 5 0 8 5 8 6 0 11 7 11 15 0
8 5 15 10 15 6 0 9 3 8 8 -3 12 25 62 34 62 5 0 6 5 3 10 -3 6 -1 10 5 10 6 0
8 5 5 10 -3 6 -2 10 4 10 6 0 13 11 17 25 3 14 10 25 14 25 9 0 20 27 19 43 0
5 8 16 18 25 10 9 19 23 21 31 1 7 9 20 17 28 8 8 15 21 15 29 0 8 5 14 11 14
5 0 7 5 4 10 -3 6 -1 10 4 10 6 0 11 9 11 21 0 13 4 18 12 13 8 -5 9 -2 5 9
-3 10 -3 17 2 17 4 0 16 17 27 37 10 21 25 44 32 51 6 7 12 20 12 28 0 8 4 14
9 14 5 0 12 8 15 18 4 9 13 30 22 45 11 20 13 32 5 41 -6 7 -7 16 -3 20 4 4 0
6 -8 4 -8 -1 -14 3 -12 10 1 6 -3 12 -9 12 -5 0 -8 4 -5 9 3 5 -5 24 -17 42
-24 35 -35 60 -33 70 0 3 -7 13 -17 23 -9 10 -15 21 -12 26 3 4 -2 11 -11 14
-8 3 -13 10 -9 15 3 6 -2 14 -11 19 -9 5 -15 12 -15 15 3 19 0 27 -15 41 -9 9
-17 22 -18 30 -1 7 -9 25 -19 39 -9 15 -17 31 -17 37 0 5 -4 10 -10 10 -5 0
-10 9 -10 20 0 11 -4 20 -10 20 -5 0 -10 7 -10 15 0 8 -5 15 -10 15 -6 0 -9 3
-8 8 4 11 -26 72 -35 72 -5 0 -6 4 -2 9 3 5 -2 16 -10 24 -8 9 -15 21 -15 27
0 6 -4 9 -9 5 -6 -3 -8 4 -6 15 2 11 0 20 -5 20 -4 0 -13 12 -19 28 -13 34
-44 86 -54 90 -4 2 -5 8 -1 13 3 5 0 9 -7 9 -7 0 -9 3 -6 6 4 4 -2 19 -13 34
-11 15 -17 30 -13 34 3 3 0 6 -7 6 -7 0 -11 3 -7 6 3 4 -1 13 -9 21 -8 8 -12
19 -9 24 4 5 1 9 -4 9 -6 0 -11 7 -11 16 0 8 -4 12 -10 9 -5 -3 -10 1 -10 9 0
15 -32 79 -52 104 -6 6 -8 12 -5 12 4 0 -5 16 -18 36 -14 20 -25 41 -25 46 0
5 -7 16 -15 25 -8 8 -13 19 -10 24 4 5 1 9 -4 9 -6 0 -11 7 -11 15 0 8 -5 15
-11 15 -5 0 -7 5 -4 10 3 6 1 10 -5 10 -6 0 -8 5 -5 10 3 6 1 10 -4 10 -6 0
-10 3 -9 8 1 4 -5 18 -14 32 -9 14 -18 32 -20 40 -2 8 -11 22 -20 31 -10 9
-15 19 -12 22 4 3 -3 19 -15 35 -12 17 -21 35 -21 41 0 6 -5 11 -12 11 -6 0
-9 3 -5 6 3 4 -1 13 -9 21 -8 8 -12 19 -9 24 4 5 1 9 -5 9 -6 0 -8 5 -5 10 3
6 1 10 -4 10 -6 0 -11 6 -11 14 0 7 -7 19 -15 26 -9 7 -14 18 -12 24 2 6 -5
19 -15 30 -10 11 -18 26 -18 33 0 7 -5 13 -11 13 -5 0 -8 4 -4 9 3 5 -2 16
-10 24 -8 9 -15 23 -15 31 0 9 -5 16 -11 16 -5 0 -7 5 -4 10 3 6 2 10 -4 10
-6 0 -13 11 -17 25 -3 14 -10 25 -15 25 -5 0 -9 9 -9 20 0 11 -6 23 -14 26 -8
3 -12 12 -9 20 3 8 0 14 -6 14 -6 0 -11 7 -11 15 0 8 -4 15 -9 15 -8 0 -18 22
-26 60 -2 8 -9 16 -14 18 -6 2 -11 13 -11 23 0 13 -4 18 -12 13 -8 -5 -9 -2
-5 9 4 11 1 17 -8 17 -8 0 -14 3 -14 8 6 39 -16 43 -27 5z"/>
<path d="M6680 9824 c-6 -14 -24 -45 -41 -70 -16 -24 -27 -49 -23 -56 4 -6 3
-8 -4 -4 -6 3 -14 -3 -18 -16 -3 -12 -13 -28 -20 -36 -8 -7 -14 -20 -14 -28 0
-8 -4 -14 -10 -14 -5 0 -10 -6 -10 -14 0 -7 -7 -19 -15 -26 -8 -7 -15 -21 -15
-31 0 -11 -4 -19 -9 -19 -10 0 -74 -109 -74 -127 0 -7 -4 -10 -8 -7 -4 2 -11
-6 -15 -18 -3 -12 -15 -30 -25 -41 -10 -11 -16 -23 -14 -27 2 -4 -3 -16 -13
-26 -34 -39 -48 -58 -34 -50 8 5 0 -11 -17 -34 -17 -23 -28 -47 -24 -53 3 -5
1 -7 -5 -3 -6 3 -14 -3 -17 -15 -4 -11 -20 -40 -35 -63 -16 -23 -30 -48 -32
-56 -2 -8 -10 -22 -19 -32 -9 -10 -22 -31 -30 -46 -8 -15 -16 -29 -19 -32 -3
-3 -16 -25 -29 -50 -13 -25 -29 -50 -35 -55 -6 -6 -12 -17 -14 -25 -2 -8 -11
-23 -19 -33 -9 -9 -13 -20 -10 -23 3 -4 -4 -15 -16 -25 -12 -10 -19 -18 -15
-19 7 0 -49 -91 -72 -117 -6 -7 -8 -13 -5 -13 6 0 -25 -52 -36 -60 -4 -3 -9
-12 -11 -20 -2 -8 -9 -21 -16 -28 -7 -8 -10 -17 -7 -22 3 -4 -2 -10 -10 -14
-8 -3 -15 -12 -15 -21 0 -8 -4 -15 -10 -15 -5 0 -12 -11 -16 -25 -3 -13 -12
-29 -20 -36 -8 -6 -11 -15 -8 -20 3 -5 0 -9 -6 -9 -6 0 -16 -13 -21 -30 -6
-16 -16 -30 -22 -30 -6 0 -8 -3 -5 -6 4 -3 -5 -22 -18 -41 -13 -19 -21 -40
-17 -46 3 -5 2 -7 -4 -4 -5 3 -19 -11 -30 -31 -29 -55 -47 -86 -53 -92 -5 -5
-23 -36 -57 -100 -10 -19 -24 -40 -30 -48 -7 -7 -20 -30 -30 -50 -9 -20 -22
-40 -27 -44 -10 -6 19 -69 49 -108 6 -8 16 -27 23 -42 6 -16 16 -28 21 -28 6
0 8 -6 5 -14 -3 -8 3 -20 14 -27 11 -7 18 -18 16 -24 -3 -7 2 -18 11 -25 8 -7
15 -19 15 -27 0 -7 6 -16 14 -19 8 -3 12 -12 9 -20 -3 -7 2 -16 10 -20 9 -3
19 -18 22 -34 3 -15 15 -36 26 -46 10 -9 19 -23 19 -31 0 -7 5 -13 11 -13 5 0
7 -4 4 -10 -3 -5 -1 -10 5 -10 6 0 8 -4 5 -10 -3 -5 -1 -10 4 -10 6 0 11 -7
11 -15 0 -8 3 -15 8 -15 7 0 37 -60 35 -70 -1 -3 5 -9 13 -13 8 -5 12 -12 9
-18 -4 -5 -3 -9 2 -9 4 0 19 -21 33 -47 13 -27 27 -50 30 -53 3 -3 16 -25 29
-50 13 -25 30 -52 38 -61 7 -9 10 -19 6 -22 -3 -4 -1 -7 5 -7 7 0 12 -6 12
-14 0 -8 3 -16 8 -18 7 -3 43 -66 66 -115 6 -13 15 -23 19 -23 5 0 5 -4 2 -10
-3 -5 -1 -10 4 -10 6 0 11 -6 11 -13 0 -8 9 -22 19 -31 11 -10 17 -24 14 -32
-3 -8 -1 -14 5 -14 5 0 20 -21 33 -47 13 -27 26 -50 29 -53 6 -6 29 -46 47
-82 8 -15 19 -30 24 -33 5 -4 7 -11 4 -16 -4 -5 -1 -9 4 -9 6 0 11 -7 11 -16
0 -8 5 -12 10 -9 6 3 10 -1 10 -10 0 -14 18 -53 30 -65 5 -5 12 -17 52 -89 11
-20 24 -41 29 -47 5 -6 6 -14 2 -17 -3 -4 -2 -7 4 -7 5 0 18 -18 29 -40 10
-22 22 -40 25 -40 3 0 11 -16 19 -35 8 -19 17 -35 22 -35 4 0 8 -5 8 -11 0 -6
9 -23 20 -39 11 -15 17 -30 13 -34 -3 -3 0 -6 7 -6 7 0 11 -3 7 -6 -3 -3 3
-15 14 -27 10 -11 19 -27 19 -34 0 -7 5 -13 12 -13 6 0 9 -3 5 -6 -3 -4 1 -13
9 -21 8 -8 12 -19 9 -24 -4 -5 -2 -9 3 -9 5 0 15 -13 22 -30 7 -16 17 -30 22
-30 5 0 6 -4 3 -10 -3 -5 -3 -10 2 -10 4 0 14 -15 22 -32 8 -18 22 -44 31 -58
17 -24 30 -47 88 -150 14 -25 36 -62 49 -82 12 -21 23 -42 23 -48 0 -5 5 -10
11 -10 5 0 7 -4 4 -10 -3 -5 -2 -10 3 -10 6 0 13 -11 16 -25 4 -14 11 -23 16
-20 6 3 10 -6 10 -20 0 -14 4 -24 8 -21 4 2 14 -10 22 -27 7 -18 21 -38 29
-45 9 -8 10 -11 4 -7 -9 4 -11 1 -7 -9 3 -9 9 -16 13 -16 3 0 17 -21 31 -47
13 -27 27 -50 31 -53 3 -3 12 -20 20 -37 8 -18 18 -33 22 -33 5 0 5 -4 2 -10
-3 -5 -2 -10 3 -10 5 0 15 -14 22 -31 7 -17 19 -37 27 -45 8 -7 16 -23 18 -34
2 -11 11 -27 19 -35 8 -8 18 -24 21 -35 3 -11 10 -20 15 -20 4 0 11 -12 15
-27 3 -15 15 -35 26 -44 11 -10 20 -21 20 -26 -1 -17 11 -43 20 -43 6 0 7 -4
4 -10 -3 -5 -1 -10 4 -10 6 0 11 -7 11 -15 0 -8 5 -15 11 -15 5 0 8 -4 5 -8
-3 -5 4 -19 15 -30 11 -12 17 -22 14 -22 -3 0 2 -11 11 -25 9 -14 13 -25 8
-25 -5 0 2 -7 14 -16 12 -8 22 -24 22 -35 0 -11 7 -22 15 -25 8 -4 15 -15 15
-25 0 -10 4 -19 10 -19 5 0 12 -11 16 -25 3 -14 10 -25 14 -25 4 0 11 -11 14
-25 4 -14 11 -25 16 -25 6 0 10 -6 10 -14 0 -8 7 -22 16 -30 8 -9 12 -16 9
-16 -4 0 4 -15 18 -34 15 -18 23 -36 20 -40 -4 -3 -1 -6 6 -6 7 0 9 -4 6 -10
-3 -5 -1 -10 4 -10 6 0 11 -7 11 -15 0 -9 7 -18 15 -21 8 -4 13 -10 10 -14 -3
-4 9 -27 25 -51 16 -24 30 -50 30 -56 0 -7 4 -13 8 -13 5 0 14 -16 22 -35 8
-19 17 -35 22 -35 4 0 8 -6 8 -14 0 -7 7 -19 15 -26 8 -7 12 -16 9 -21 -3 -5
-1 -9 4 -9 5 0 12 -8 15 -17 6 -18 37 -73 47 -83 3 -3 14 -24 25 -47 11 -24
23 -43 26 -43 4 0 12 -13 19 -30 7 -17 17 -30 22 -30 5 0 7 -4 3 -9 -3 -5 2
-16 10 -24 8 -9 15 -21 15 -27 0 -6 11 -26 25 -44 14 -18 25 -38 25 -44 0 -7
4 -12 9 -12 5 0 11 -10 15 -23 3 -13 15 -34 26 -47 11 -13 20 -29 20 -37 0 -7
5 -13 11 -13 5 0 8 -4 5 -9 -3 -5 1 -14 9 -21 8 -7 15 -18 15 -25 0 -6 9 -22
20 -35 11 -13 23 -34 26 -47 4 -13 10 -23 15 -23 5 0 9 -6 9 -14 0 -8 3 -16 8
-18 4 -1 18 -25 32 -53 14 -27 27 -52 31 -55 3 -3 20 -32 39 -65 19 -33 36
-62 39 -65 3 -3 7 -12 9 -20 2 -8 8 -17 13 -18 5 -2 9 -10 9 -18 0 -8 5 -14
10 -14 6 0 10 -9 10 -20 0 -11 4 -20 8 -20 4 0 20 -25 36 -55 15 -30 32 -57
37 -61 5 -3 7 -10 4 -15 -4 -5 -1 -9 4 -9 6 0 11 -7 11 -15 0 -8 3 -15 8 -15
4 0 13 -15 21 -33 8 -17 17 -34 20 -37 4 -3 18 -26 31 -52 14 -27 28 -48 31
-48 7 0 19 -36 16 -47 -1 -3 7 -9 18 -12 11 -4 1436 -7 3166 -7 2670 1 3149 3
3163 15 9 8 14 16 12 18 -3 3 4 14 15 26 10 11 19 27 19 34 0 7 3 13 8 13 4 0
16 18 26 40 11 22 23 40 27 40 4 0 10 11 13 25 4 14 11 25 16 25 6 0 10 7 10
15 0 8 4 15 9 15 8 0 24 37 22 53 -1 4 4 7 9 7 6 0 15 11 20 25 5 14 14 25 20
25 6 0 9 4 6 8 -3 5 3 18 14 29 10 12 17 23 14 26 -2 2 2 10 11 17 8 7 15 19
15 26 0 8 5 14 10 14 6 0 10 4 10 10 0 5 20 41 45 80 25 39 45 75 45 80 0 6 3
10 8 10 4 0 20 25 36 55 16 30 33 55 38 55 5 0 6 5 3 10 -3 6 -1 10 5 10 6 0
8 5 5 10 -3 6 -2 10 2 10 5 0 17 16 27 35 11 19 23 35 28 35 5 0 7 4 4 8 -2 4
11 30 29 57 19 28 34 56 35 63 0 6 4 12 10 12 5 0 17 17 27 38 9 20 25 46 35
56 10 11 18 28 18 38 0 10 5 18 10 18 6 0 16 12 23 28 6 15 17 33 24 40 7 8
11 18 8 23 -4 5 -1 9 5 9 6 0 14 8 17 18 4 9 13 23 20 30 7 7 13 23 13 34 0
12 3 19 6 15 6 -6 91 125 118 180 6 13 14 23 19 23 4 0 7 10 7 22 0 12 3 18 7
15 4 -4 13 5 20 20 7 16 26 48 43 73 16 25 33 52 37 60 6 13 81 134 121 196 6
10 15 26 19 34 4 8 9 17 12 20 4 3 15 22 26 43 11 20 22 37 26 37 11 0 28 49
19 55 -4 3 -11 -1 -13 -7 -4 -10 -6 -10 -6 0 -1 9 -6 10 -20 2 -14 -7 -21 -6
-24 3 -3 9 -7 9 -19 -1 -11 -9 -17 -9 -20 -2 -2 8 -11 8 -30 1 -20 -7 -28 -7
-31 2 -3 9 -7 9 -19 -1 -12 -10 -17 -10 -20 -1 -3 9 -9 9 -27 -1 -19 -10 -22
-10 -15 2 6 10 5 11 -7 1 -12 -9 -18 -10 -27 -1 -8 8 -15 8 -27 -2 -10 -8 -15
-9 -15 -1 0 13 -22 10 -32 -4 -5 -6 -8 -5 -8 3 0 9 -5 10 -19 2 -14 -7 -21 -6
-24 3 -3 9 -7 9 -19 -1 -12 -10 -17 -10 -20 -1 -3 9 -9 9 -27 -1 -19 -10 -22
-10 -15 2 6 11 5 11 -8 0 -11 -9 -18 -10 -23 -2 -3 6 -12 7 -18 3 -17 -10 -47
-11 -47 -1 0 9 -29 6 -47 -5 -8 -5 -13 -4 -13 2 0 13 -22 10 -32 -4 -5 -6 -8
-5 -8 3 0 9 -5 10 -19 2 -14 -7 -21 -6 -24 3 -3 9 -7 9 -19 -1 -12 -10 -17
-10 -20 -1 -3 9 -9 9 -27 -1 -19 -10 -22 -10 -15 2 6 11 5 11 -8 0 -11 -9 -18
-10 -23 -2 -3 6 -12 7 -18 3 -16 -10 -41 -10 -48 0 -3 4 -17 3 -32 -2 -18 -7
-27 -7 -30 2 -3 9 -8 9 -20 -2 -14 -11 -17 -11 -17 0 0 12 -2 12 -9 0 -7 -11
-9 -11 -13 0 -4 12 -8 12 -20 1 -11 -9 -17 -9 -20 -2 -2 8 -11 8 -30 1 -20 -7
-28 -7 -31 2 -3 9 -7 9 -19 -1 -12 -10 -17 -10 -20 -1 -3 9 -9 9 -27 -1 -19
-10 -22 -10 -15 2 6 10 5 11 -8 1 -8 -7 -18 -10 -22 -6 -10 11 -96 9 -96 -2 0
-5 -5 -3 -10 5 -9 13 -10 13 -10 0 0 -9 -3 -11 -8 -5 -8 12 -52 13 -69 2 -8
-5 -13 -4 -13 2 0 13 -22 10 -32 -4 -5 -6 -8 -5 -8 3 0 9 -5 10 -19 2 -14 -7
-21 -6 -24 3 -3 9 -7 9 -19 -1 -12 -10 -17 -10 -20 -1 -3 9 -9 9 -27 -1 -19
-10 -22 -10 -15 2 6 11 5 11 -8 0 -11 -9 -18 -10 -23 -2 -3 6 -12 7 -18 3 -15
-9 -47 -11 -47 -3 0 11 -104 6 -112 -5 -5 -6 -8 -4 -8 5 0 13 -1 13 -10 0 -5
-8 -10 -10 -10 -4 0 11 -52 10 -70 -1 -5 -3 -10 1 -13 7 -3 10 -7 10 -20 -1
-14 -11 -17 -11 -17 0 0 12 -2 12 -9 0 -7 -11 -9 -11 -13 0 -4 12 -8 12 -20 1
-11 -9 -17 -9 -20 -2 -2 8 -11 8 -30 1 -20 -7 -28 -7 -31 2 -3 9 -7 9 -19 -1
-12 -10 -17 -10 -20 -1 -3 9 -9 9 -27 -1 -19 -10 -22 -10 -15 2 6 11 5 11 -8
0 -11 -9 -18 -10 -23 -2 -4 7 -12 7 -25 0 -13 -7 -20 -6 -23 3 -3 9 -7 9 -20
-2 -14 -11 -17 -11 -17 0 0 12 -2 12 -9 0 -7 -11 -9 -11 -13 0 -4 12 -8 12
-20 1 -11 -9 -17 -9 -20 -2 -2 8 -11 8 -30 1 -20 -7 -28 -7 -31 2 -3 9 -7 9
-19 -1 -12 -10 -17 -10 -20 -1 -3 9 -9 9 -27 -1 -19 -10 -22 -10 -15 2 6 10 5
11 -8 1 -8 -7 -18 -10 -22 -6 -10 11 -96 9 -96 -2 0 -5 -5 -3 -10 5 -9 13 -10
13 -10 0 0 -9 -3 -11 -8 -5 -8 12 -52 13 -69 2 -8 -5 -13 -4 -13 2 0 13 -22
10 -32 -4 -5 -6 -8 -5 -8 3 0 9 -5 10 -19 2 -14 -7 -21 -6 -24 3 -3 9 -7 9
-19 -1 -12 -10 -17 -10 -20 -1 -3 9 -9 9 -27 -1 -19 -10 -22 -10 -15 2 6 11 5
11 -8 0 -11 -9 -18 -10 -23 -2 -3 6 -12 7 -18 3 -15 -9 -47 -11 -47 -3 0 11
-104 6 -112 -5 -5 -6 -8 -4 -8 5 0 13 -1 13 -10 0 -5 -8 -10 -10 -10 -4 0 11
-52 10 -70 -1 -5 -3 -10 1 -13 7 -3 10 -7 10 -20 -1 -14 -11 -17 -11 -17 0 0
12 -2 12 -9 0 -7 -11 -9 -11 -13 0 -4 12 -8 12 -20 1 -11 -9 -17 -9 -20 -2 -2
8 -11 8 -30 1 -20 -7 -28 -7 -31 2 -3 9 -7 9 -19 -1 -12 -10 -17 -10 -20 -1
-3 9 -9 9 -27 -1 -19 -10 -22 -10 -15 2 6 11 5 11 -8 0 -11 -9 -18 -10 -23 -2
-4 7 -12 7 -25 0 -13 -7 -20 -6 -23 3 -3 9 -7 9 -20 -2 -14 -11 -17 -11 -17 0
0 12 -2 12 -9 0 -7 -11 -9 -11 -13 0 -4 12 -8 12 -20 1 -11 -9 -17 -9 -20 -2
-2 8 -11 8 -30 1 -20 -7 -28 -7 -31 2 -3 9 -7 9 -19 -1 -12 -10 -17 -10 -20
-1 -3 9 -9 9 -27 -1 -19 -10 -22 -10 -15 2 6 10 5 11 -8 1 -8 -7 -18 -10 -22
-6 -10 11 -96 9 -96 -2 0 -5 -5 -3 -10 5 -9 13 -10 13 -10 0 0 -9 -3 -11 -8
-5 -8 12 -52 13 -69 2 -8 -5 -13 -4 -13 2 0 13 -22 10 -32 -4 -5 -6 -8 -5 -8
3 0 9 -5 10 -19 2 -14 -7 -21 -6 -24 3 -3 9 -7 9 -19 -1 -12 -10 -17 -10 -20
-1 -3 9 -9 9 -27 -1 -19 -10 -22 -10 -15 2 6 11 5 11 -8 0 -11 -9 -18 -10 -23
-2 -3 6 -12 7 -18 3 -15 -9 -47 -11 -47 -3 0 11 -104 6 -112 -5 -5 -6 -8 -4
-8 5 0 13 -1 13 -10 0 -5 -8 -10 -10 -10 -4 0 11 -52 10 -70 -1 -5 -3 -10 1
-13 7 -3 10 -7 10 -20 -1 -14 -11 -17 -11 -17 0 0 12 -2 12 -9 0 -7 -11 -9
-11 -13 0 -4 12 -8 12 -20 1 -11 -9 -17 -9 -20 -2 -2 8 -11 8 -30 1 -20 -7
-28 -7 -31 2 -3 9 -7 9 -19 -1 -12 -10 -17 -10 -20 -1 -3 9 -9 9 -27 -1 -19
-10 -22 -10 -15 2 6 11 5 11 -8 0 -11 -9 -18 -10 -23 -2 -4 7 -12 7 -25 0 -13
-7 -20 -6 -23 3 -3 9 -7 9 -20 -2 -14 -11 -17 -11 -17 0 0 12 -2 12 -9 0 -7
-11 -9 -11 -13 0 -4 12 -8 12 -20 1 -11 -9 -17 -9 -20 -2 -2 8 -11 8 -30 1
-20 -7 -28 -7 -31 2 -3 9 -7 9 -19 -1 -12 -10 -17 -10 -20 -1 -3 9 -9 9 -27
-1 -19 -10 -22 -10 -15 2 6 10 5 11 -8 1 -8 -7 -18 -10 -22 -6 -10 11 -96 9
-96 -2 0 -5 -5 -3 -10 5 -9 13 -10 13 -10 0 0 -9 -3 -11 -8 -5 -8 12 -52 13
-69 2 -8 -5 -13 -4 -13 2 0 13 -22 10 -32 -4 -5 -6 -8 -5 -8 3 0 9 -5 10 -19
2 -14 -7 -21 -6 -24 3 -3 9 -7 9 -19 -1 -12 -10 -17 -10 -20 -1 -3 9 -9 9 -27
-1 -19 -10 -22 -10 -15 2 6 11 5 11 -8 0 -11 -9 -18 -10 -23 -2 -3 6 -12 7
-18 3 -15 -9 -47 -11 -47 -3 0 11 -104 6 -112 -5 -5 -6 -8 -4 -8 5 0 13 -1 13
-10 0 -5 -8 -10 -10 -10 -4 0 11 -52 10 -70 -1 -5 -3 -10 1 -13 7 -3 10 -7 10
-20 -1 -14 -11 -17 -11 -17 0 0 12 -2 12 -9 0 -7 -11 -9 -11 -13 0 -4 12 -8
12 -20 1 -11 -9 -17 -9 -20 -2 -2 8 -11 8 -30 1 -20 -7 -28 -7 -31 2 -3 9 -7
9 -19 -1 -12 -10 -17 -10 -20 -1 -3 9 -9 9 -27 -1 -19 -10 -22 -10 -15 2 6 10
5 11 -7 1 -12 -9 -18 -10 -27 -1 -8 8 -15 8 -27 -2 -10 -8 -15 -9 -15 -1 0 13
-22 10 -32 -4 -5 -6 -8 -5 -8 3 0 9 -5 10 -19 2 -14 -7 -21 -6 -24 3 -3 9 -7
9 -19 -1 -12 -10 -17 -10 -20 -1 -3 9 -9 9 -27 -1 -19 -10 -22 -10 -15 2 6 11
5 11 -8 0 -11 -9 -18 -10 -23 -2 -3 6 -12 7 -18 3 -18 -11 -47 -11 -47 0 0 5
-8 6 -17 2 -10 -4 -29 -7 -43 -5 -14 1 -31 2 -38 3 -7 0 -15 11 -18 24 -4 12
-10 23 -15 23 -5 0 -9 9 -9 21 0 11 -5 17 -10 14 -6 -3 -10 0 -10 8 0 8 -19
46 -42 83 -23 38 -41 75 -41 82 0 6 -4 12 -7 12 -4 0 -13 14 -20 30 -7 17 -17
30 -23 30 -6 0 -8 3 -4 6 3 4 -1 13 -9 21 -8 8 -12 19 -9 24 4 5 1 9 -6 9 -7
0 -10 3 -6 6 3 3 -3 15 -14 27 -10 11 -19 27 -19 34 0 7 -5 13 -11 13 -5 0 -8
4 -5 9 3 5 -3 20 -14 34 -11 14 -20 28 -20 31 0 3 -20 40 -45 82 -25 41 -45
80 -45 85 0 5 -4 9 -10 9 -5 0 -10 9 -10 20 0 11 -4 20 -10 20 -5 0 -10 4 -10
8 0 10 -84 162 -100 180 -6 6 -7 12 -3 12 4 0 3 4 -2 8 -6 4 -23 32 -39 62
-16 30 -34 58 -40 62 -6 4 -8 8 -4 8 4 0 -1 15 -12 33 -11 17 -30 51 -42 75
-12 23 -26 42 -30 42 -4 0 -8 9 -8 20 0 11 -4 20 -10 20 -5 0 -10 7 -10 15 0
8 -5 15 -11 15 -5 0 -8 4 -4 9 3 5 -2 16 -10 24 -8 9 -15 20 -15 26 0 6 -5 11
-11 11 -5 0 -8 4 -4 9 3 5 1 12 -5 16 -6 4 -7 11 -4 17 4 7 2 8 -4 4 -7 -4
-12 -2 -12 3 0 22 -2 26 -16 34 -8 5 -12 12 -10 16 3 4 -2 17 -12 27 -9 11
-18 26 -20 34 -2 8 -11 23 -19 33 -9 9 -12 17 -7 17 5 0 4 4 -1 8 -6 4 -22 28
-35 55 -14 26 -28 47 -31 47 -7 0 -22 40 -20 53 1 4 -4 7 -10 7 -5 0 -7 5 -4
10 3 6 2 10 -3 10 -5 0 -15 12 -22 28 -8 15 -21 35 -29 45 -8 9 -11 17 -7 17
4 0 -2 13 -13 29 -12 16 -21 32 -21 36 0 3 -12 25 -27 48 -16 23 -29 48 -31
56 -1 7 -9 19 -16 26 -7 7 -19 27 -26 44 -7 17 -17 31 -22 31 -5 0 -7 4 -4 9
3 4 -6 23 -19 41 -13 18 -22 37 -19 41 3 5 0 9 -5 9 -6 0 -11 7 -11 15 0 8 -4
15 -10 15 -5 0 -10 7 -10 15 0 8 -5 15 -11 15 -5 0 -8 4 -4 9 3 5 1 12 -4 15
-4 3 -21 30 -36 61 -16 30 -32 55 -37 55 -5 0 -7 4 -3 9 3 5 -1 16 -9 24 -8 8
-12 17 -9 21 4 3 0 6 -7 6 -7 0 -11 3 -7 6 3 3 -3 15 -14 27 -10 11 -19 29
-19 39 0 10 -4 18 -10 18 -5 0 -10 7 -10 15 0 8 -5 15 -11 15 -5 0 -8 4 -5 9
4 5 3 11 -1 13 -5 1 -15 17 -24 33 -29 58 -64 120 -69 125 -4 4 -18 29 -64
115 -6 11 -15 23 -21 27 -5 4 -7 8 -3 8 4 0 -4 16 -17 36 -14 20 -22 40 -19
45 3 5 0 9 -5 9 -6 0 -19 18 -28 40 -10 22 -21 40 -25 40 -5 0 -8 7 -8 15 0 8
-4 15 -10 15 -5 0 -10 9 -10 19 0 11 -3 21 -7 23 -8 3 -36 50 -74 126 -12 23
-25 42 -30 42 -5 0 -9 6 -9 14 0 17 -40 89 -52 94 -4 2 -8 12 -8 23 0 10 -4
19 -10 19 -5 0 -10 7 -10 15 0 8 -4 15 -10 15 -5 0 -10 9 -10 19 0 11 -3 21
-7 23 -5 2 -21 28 -37 58 -16 30 -36 63 -44 73 -8 9 -11 17 -7 17 5 0 0 7 -11
16 -10 8 -13 13 -6 9 11 -6 -22 52 -48 83 -6 7 -13 22 -15 34 -3 12 -8 24 -13
27 -10 6 -38 55 -48 84 -3 9 -11 17 -16 17 -5 0 -6 5 -3 10 3 6 1 10 -5 10 -6
0 -8 5 -5 10 3 6 1 10 -4 10 -6 0 -11 7 -11 15 0 8 -5 15 -11 15 -5 0 -8 4 -4
9 3 5 -1 16 -9 24 -8 8 -12 17 -9 21 3 3 -2 8 -11 12 -9 3 -13 10 -10 15 3 5
0 9 -6 9 -6 0 -8 5 -5 10 3 6 1 10 -5 10 -6 0 -8 5 -5 10 3 6 2 10 -3 10 -6 0
-15 14 -21 30 -5 17 -15 30 -21 30 -6 0 -9 4 -5 9 3 5 -2 17 -11 25 -8 9 -13
16 -9 16 3 0 -3 14 -15 30 -12 17 -18 30 -15 30 4 0 -1 7 -9 16 -9 8 -16 22
-16 30 0 8 -3 14 -8 14 -4 0 -13 15 -21 33 -8 17 -17 34 -20 37 -7 6 -26 39
-55 95 -12 22 -23 42 -26 45 -3 3 -14 23 -25 45 -11 22 -28 51 -37 64 -10 13
-16 27 -13 31 3 4 -2 10 -10 14 -8 3 -15 11 -15 19 0 7 -6 19 -12 26 -7 6 -13
15 -14 19 -1 14 -27 62 -34 62 -3 0 -12 16 -19 35 -7 19 -17 35 -22 35 -6 0
-8 4 -4 9 3 5 -2 16 -10 24 -8 9 -15 20 -15 26 0 6 -5 11 -11 11 -6 0 -9 7 -5
15 3 8 -1 18 -7 22 -7 5 -21 24 -30 43 -25 50 -52 97 -67 115 -7 8 -9 15 -6
15 4 0 0 7 -8 16 -9 8 -14 20 -11 25 4 5 2 9 -3 9 -5 0 -15 14 -22 30 -7 17
-16 30 -21 30 -5 0 -9 7 -9 15 0 8 -4 15 -10 15 -5 0 -7 7 -4 15 4 8 2 15 -3
15 -6 0 -18 18 -28 40 -10 22 -22 40 -27 40 -5 0 -6 5 -3 10 3 6 -1 10 -10 10
-8 0 -20 -12 -25 -26z"/>
</g>
</svg>
