<svg height="2048pt" preserveAspectRatio="xMidYMid meet" viewBox="0 0 2048 2048" width="2048pt" xmlns="http://www.w3.org/2000/svg"><g transform="matrix(.1 0 0 -.1 0 2048)"><path d="m12373 18429c1-10 5-19 9-19s8-6 8-14 7-16 15-20c8-3 12-12 9-21-4-8 1-17 10-21 9-3 14-10 11-14s2-13 10-20 15-21 15-32c0-10 7-21 15-24 8-4 15-15 15-26 0-10 5-16 10-13 6 3 10-3 10-14 0-12 5-21 10-21 6 0 10-7 10-15s5-15 11-15c5 0 7-5 4-11-4-6 1-17 11-25 11-9 12-12 4-8s-5-4 8-18c12-13 22-29 22-35s7-16 15-23 12-16 9-21 0-9 5-9c6 0 11-7 11-15s4-15 10-15c5 0 12-11 16-25 3-14 10-25 16-25 5 0 6-4 3-10-3-5-1-10 4-10 6 0 11-7 11-15s5-15 11-15 9-6 6-12c-2-7 5-21 16-30 11-10 17-18 13-18s2-13 13-29c12-16 21-34 21-41 0-6 4-8 10-5 5 3 7 0 4-8s2-20 11-27c8-7 15-19 15-26 0-8 3-14 8-14 8 0 47-81 44-92-1-5 4-7 11-5 6 1 11-4 10-10-2-7 2-13 8-13 5 0 7-4 4-10-3-5-1-10 4-10 6 0 11-5 11-11s14-31 30-56c17-24 30-48 30-54 0-5 5-9 11-9 5 0 7-5 4-11-4-5 3-19 16-30 12-10 17-19 10-19-9 0-9-4 1-15 7-8 18-20 23-27 15-19 39-72 37-80-1-5 5-8 13-8 9 0 12-6 8-17s-3-14 5-9 12 0 12-13c0-12 4-21 8-21 5 0 14-16 22-35s18-35 22-35c5 0 7-4 4-9-4-5-2-11 2-13 5-1 15-15 23-29 8-15 27-51 43-80 16-30 36-60 45-67 12-11 13-12 1-7-8 4-6-2 6-12 11-10 19-23 17-29s3-17 12-24c8-7 15-21 15-32 0-10 4-17 9-14 9 6 38-52 33-66-1-5 3-8 8-8 6 0 15-11 20-25s14-25 20-25 8-5 5-10c-3-6 1-17 9-26 9-8 16-22 16-30s5-14 10-14c6 0 10-7 10-16s7-22 16-28c13-10 20-28 23-59 1-5 6-5 11-2 6 3 10-3 10-15s5-18 10-15c6 3 10-3 10-14 0-12 5-21 11-21 5 0 7-4 4-10-3-5-1-10 5-10s8-4 5-10c-3-5-1-10 5-10s9-4 6-9 1-12 10-15c8-3 12-10 9-16-3-5-1-10 4-10 6 0 11-7 11-15s5-15 11-15c5 0 7-4 4-10-3-5-1-10 5-10s8-4 5-10c-3-5-1-10 5-10s8-4 5-10c-3-5-1-10 4-10 6 0 11-7 11-15 0-9 7-18 15-21 8-4 13-10 10-14-3-5 1-15 9-23s12-17 9-21c-4-3-2-6 3-6 6 0 16-16 24-35s16-35 19-35c4 0 12-15 20-32 8-18 22-44 33-57 10-13 16-27 13-31s2-10 10-14c8-3 15-12 15-21 0-8 4-15 9-15 8 0 24-37 22-52-1-5 3-8 7-8 5 0 17-18 28-40 10-22 23-40 27-40 5 0 5-4 2-10-3-5-1-10 5-10s8-4 5-10c-3-5-1-10 4-10 6 0 11-7 11-15s5-15 10-15c6 0 10-8 10-18s9-25 20-35c12-10 18-22 15-27-3-6-2-10 3-10s17-18 27-40 24-45 31-51c8-6 11-15 8-20s0-9 5-9c6 0 11-6 11-14 0-7 7-19 15-26s12-16 9-21 2-12 10-15c9-3 13-10 10-16-3-5 3-18 15-29s21-26 21-34 4-15 8-15c9 0 47-71 44-82-1-5 3-8 10-8 6 0 8-3 5-6-4-4 3-15 15-25 11-11 18-19 14-19-6 0 22-58 34-70 3-3 14-22 25-42 11-21 24-38 28-38 5 0 7-7 3-15-3-8-2-15 3-15 4 0 18-20 30-45s27-45 32-45 9-9 9-20 5-20 11-20c5 0 7-4 4-10-3-5-1-10 5-10s8-4 5-10c-3-5-1-10 4-10 6 0 11-6 11-14 0-7 7-19 15-26s12-16 9-21-1-9 4-9c4 0 16-16 25-35s22-35 29-35c6 0 8-3 5-6-7-7 32-87 46-92 4-2 7-10 7-18s5-14 10-14c6 0 10-7 10-15s5-15 10-15c6 0 10-5 10-11 0-5-6-7-12-4-7 4 1-6 17-20 17-15 24-24 16-20-9 5-8-1 4-19 10-14 22-26 28-26s8-3 4-6c-7-7 19-61 39-82 8-7 12-18 9-23-4-5-1-9 4-9 6 0 11-7 11-15 0-9 7-18 15-21 8-4 12-10 9-15s0-9 6-9 9-4 5-9c-3-5 1-15 8-23 7-7 23-34 37-60 14-27 29-48 33-48 5 0 5-4 2-10-3-5-1-10 5-10s8-4 5-10c-3-5-2-10 2-10 5 0 14-9 21-21 11-17 11-20 0-14-7 3-5 0 4-8 10-8 15-17 11-20-3-4-1-7 5-7 7 0 12-6 12-13s9-23 20-34c14-15 16-23 7-26-7-3-5-6 5-6 9-1 20-6 24-13 5-7 3-8-5-3-9 5-9 1 1-14 7-12 16-21 21-21 4 0 6-4 2-9-3-5 1-15 7-23 7-7 24-34 37-60 13-27 28-48 34-48 5 0 6-7 3-15-3-9 1-18 9-21 8-4 15-13 15-21s5-11 10-8c6 4 10 3 9-2-1-4-1-19 0-33 1-20 3-22 11-10s10 11 10-7c0-13 4-23 10-23 5 0 9-3 9-7-3-20 2-34 11-28 6 3 10-1 10-10s9-30 21-46c11-16 17-33 14-39-3-5 1-10 9-10 14 0 17-5 16-25-1-3 6-13 15-21 8-9 12-20 9-26-4-7-2-8 4-4 7 4 12 1 12-8s5-16 11-16c5 0 8-4 4-9-3-5 0-15 7-23 7-7 20-26 28-43 8-16 21-36 28-43 7-8 10-18 7-23-4-5-1-9 4-9 6 0 11-7 11-15s4-15 9-15c8 0 24-37 22-52-1-5 4-7 10-5 6 1 13-7 15-18 1-11 8-21 14-23 5-2 8-8 4-13-3-5 0-9 6-9s9-4 6-9c-4-5-2-11 3-13 5-1 11-10 13-18s11-21 21-28c9-7 17-22 17-33 0-10 4-19 9-19s11-7 15-15c3-8 0-14-7-12-7 1-11-6-9-17s-1-15-7-11c-10 5-15-8-8-19 1-3-8-15-21-28-12-14-19-28-15-31 3-4 1-7-5-7-7 0-12-7-12-16s-5-12-12-8-10 4-6-1c9-10-29-85-43-85-6 0-7-4-4-10 3-5 1-10-4-10-6 0-10-3-9-7 3-10-53-107-64-111-5-2-6-8-2-13 3-5 0-9-6-9s-8-4-5-10c3-5 1-10-5-10-7 0-9-7-6-16 3-8 2-13-3-10-8 6-18-9-19-28 0-5-6-12-14-17-7-5-13-12-13-16s-10-22-22-39-20-34-16-38c3-3 1-6-5-6-7 0-12-7-12-15s-4-15-10-15c-5 0-10-7-10-15s-8-23-17-33c-10-10-19-25-21-32-2-8-12-26-23-41-10-15-19-31-19-37 0-5-7-15-15-22s-13-16-10-20-2-11-11-14c-8-3-12-10-9-16 3-5 1-10-4-10-6 0-11-9-11-20s-5-19-11-18c-6 2-13-5-14-14-2-10-12-30-22-45-11-15-23-36-26-45-4-10-11-18-17-18s-9-4-5-9c3-5-1-16-9-23-7-8-17-24-20-36-4-12-11-22-16-22-8 0-23-38-21-52 1-5-3-8-9-8-5 0-17-15-25-32-18-39-65-121-74-128-3-3-16-25-29-50-32-64-45-84-60-93-7-5-10-12-7-16 2-5-2-14-10-21s-12-16-9-21 0-9-5-9c-6 0-11-7-11-15s-3-15-8-15c-4 0-14-15-21-32-8-18-22-39-30-46-13-11-13-12-1-7 11 5 10 2-2-7-9-8-20-26-23-41-4-15-10-25-14-23-3 2-17-19-31-47-14-29-33-61-42-71-10-10-15-23-12-28 3-4 1-8-3-8-5 0-17-16-27-35-11-19-23-35-28-35s-6-5-2-12c4-6 1-16-7-22s-23-29-34-51c-19-39-35-66-75-125-11-16-20-36-20-45 0-8-9-20-19-27-10-6-17-18-14-25s1-13-3-13c-5 0-20-21-33-47-14-27-33-57-42-68-10-11-19-24-20-30-4-25-12-34-23-28-6 3-8 3-4-2 8-9-31-85-44-85-4 0-7-3-6-7 2-12-14-45-31-65-9-10-16-22-16-26-1-4-13-26-28-49-15-24-27-47-27-53 0-5-3-10-8-10-4 0-13-15-21-33-8-17-17-34-21-37-14-12-59-98-53-104 3-3-1-6-11-6-9 0-14-4-11-10 3-5 3-10-2-10-4 0-17-20-28-45s-23-45-27-45c-5 0-8-7-8-15s-5-15-11-15c-5 0-8-4-5-8 3-5-5-19-18-33-12-13-21-30-18-37 2-6-1-12-7-12s-11-7-11-15-3-15-8-15c-4 0-16-19-26-42-10-24-21-45-26-48-9-6-55-84-75-127-8-18-20-33-25-33-6 0-10-3-9-7 2-15-13-53-21-53-9 0-25-40-22-53 1-4-3-6-10-5-7 2-12-2-13-9 0-7-8-21-17-33-10-11-15-20-13-20 3 0-5-17-19-37s-22-41-19-46c3-6 1-7-5-3-7 4-12 1-12-8s-5-16-11-16c-5 0-7-5-4-10 3-6-1-13-10-16-9-4-14-13-11-20 3-8 1-14-5-14s-7-4-4-10c3-5 1-10-4-10-6 0-11-5-11-10 0-6-9-20-20-32-10-11-22-34-25-49-4-16-10-27-15-24-4 3-15-13-24-35s-21-40-27-40c-5 0-7-4-4-10 3-5 1-10-5-10s-8-4-5-10c3-5 1-10-4-10-6 0-11-6-11-14 0-7-7-19-15-26s-12-16-9-21-2-12-10-15c-9-3-13-10-10-15s-2-12-10-15c-9-3-14-10-11-14 3-5-3-16-12-26-10-10-17-20-15-23 1-3-5-14-13-24-8-9-15-24-15-32s-4-15-10-15c-5 0-10-7-10-15s-4-15-9-15c-8 0-24-37-22-52 1-5-4-8-9-8-6 0-15-10-20-22-6-13-19-36-30-53-10-16-27-46-37-65-9-19-19-37-22-40-7-6-29-43-49-82-7-16-18-28-23-28-6 0-8-4-5-9 3-4-3-19-14-31-11-13-20-29-20-35 0-7-7-18-15-25s-13-15-10-19c2-4-5-15-16-24-10-9-19-26-19-37 0-12-4-18-10-15-9 6-14-8-11-28 1-4-6-10-14-13s-12-10-9-15 0-9-6-9-8-4-5-10c3-5 2-10-4-10s-13-11-17-25c-3-14-10-25-14-25-7 0-22-42-17-47 1-1-7-8-17-16-12-9-16-19-11-27s4-11-3-6c-6 4-18-6-27-24-8-16-12-30-8-30 5 0 0-5-9-11-10-5-18-17-18-24 0-8-4-15-10-15-5 0-10-6-10-14s-7-22-16-30c-8-9-13-16-9-16 3 0-4-15-17-32-13-18-23-35-23-38s-10-19-22-36-20-34-16-37c3-4-2-9-11-13-9-3-14-9-11-14 2-4-5-17-16-28-11-12-17-22-13-22s-1-9-10-19c-10-11-16-23-13-28 3-4 44-7 91-6s88-2 91-8c4-5 12-6 18-2 19 12 151 11 159-1 6-8 8-8 8 0 0 6 11 10 25 8s36-6 50-8c13-2 22 0 20 5-3 4 4 7 15 6s20-5 20-10 7-3 17 4c13 11 17 11 20 2s10-10 24-3c14 8 19 7 19-2 0-10 2-10 9 1 6 9 11 10 15 2 4-6 13-8 19-4 17 10 37 13 37 4 0-4 9-7 20-7s20 4 20 7c0 4 13 4 29-1 15-4 34-4 41 0 7 5 25 4 39-2 17-6 27-6 29 1 2 6 9 8 15 4 6-3 63-7 126-8 64 0 122-4 129-8 6-5 12-4 12 1 0 10 147 8 157-2 3-3 12-1 20 5 10 9 13 8 13-2 0-9 3-10 8-4 4 7 40 9 95 5 49-3 97-2 108 2 10 4 19 4 19 0 0-11 104-8 112 3 5 7 8 7 8 0 0-6 48-10 124-10 82 0 122-3 118-10-3-5 1-5 9 2 16 13 36 12 57 0 6-5 12-4 12 0 0 10 87 10 96 0 4-4 13-2 21 4 10 9 13 8 13-1 0-10 3-10 14-1 10 8 16 9 21 1 4-7 12-7 26 0 13 8 19 7 19 0s6-8 18-1c13 7 23 6 30-1 9-9 12-9 12 2 0 10 3 11 11 3 7-7 21-8 40-3 17 5 31 5 34-1 4-5 14-5 26 1 10 6 19 7 19 2 0-10 50-9 67 1 6 4 14 3 18-3 9-14 45 6 45 25 0 8 5 15 11 15 5 0 7 5 4 10-3 6-1 10 5 10s8 5 5 10c-3 6-1 10 5 10s8 5 5 10c-3 6 1 10 9 10 9 0 15 3 15 8-3 19 3 33 24 53 12 12 16 19 10 15-19-11-16 2 7 26 11 12 20 28 20 35s5 13 10 13c6 0 10 9 10 21 0 11 5 17 10 14 6-3 10 1 10 10s9 29 20 45c11 17 29 44 41 61s22 37 23 45 10 24 19 34c9 11 14 20 10 20-3 0 1 8 10 18 10 10 14 22 10 25-3 4-1 7 5 7 7 0 12 7 12 15s4 15 9 15c8 0 22 34 18 45-1 2 7 11 18 19 11 9 16 16 12 16-5 0-1 7 7 16 9 8 16 22 16 30s3 14 8 14c4 0 16 20 27 45s23 45 28 45c4 0 7 7 7 15 0 9 6 18 14 21s13 11 10 18c-2 6 4 21 15 33 11 11 17 24 14 27-4 3-2 6 4 6 5 0 18 18 28 40s22 40 27 40 7 4 3 9c-3 5 2 16 11 25 8 9 12 21 8 27-4 7-3 9 3 6 10-6 19 5 21 26 1 4 10 19 22 34 11 14 20 32 20 39 0 8 5 14 11 14 5 0 7 5 4 10-3 6-2 10 3 10s24 30 43 67c19 38 42 77 51 87 10 11 18 25 18 31 0 7 9 22 20 35 11 12 17 27 14 31-3 5 0 9 5 9 6 0 11 7 11 15s5 15 11 15c5 0 7 5 4 10-3 6-2 10 3 10 4 0 14 16 22 35s17 35 22 35c4 0 8 6 8 14 0 7 7 19 15 26s12 16 9 21 0 9 5 9c6 0 11 6 11 13 0 8 9 24 20 37s20 29 20 37c0 7 4 13 10 13 5 0 6 7 3 17-4 10-2 14 4 10s14 4 17 18c4 14 11 25 17 25s7 5 4 10c-3 6-1 10 4 10 6 0 11 7 11 15s5 15 10 15c6 0 9 3 9 8-3 20 2 32 13 26 6-4 8-3 5 3-4 6 2 22 13 35 11 14 17 28 14 30-2 3 2 11 11 18 8 7 15 19 15 26 0 8 4 14 9 14s12 11 15 25c4 14 11 25 17 25s8 4 5 9c-3 4 3 19 14 31s17 27 14 31c-3 5-1 9 5 9 12 0 45 60 34 60-5 0 0 5 10 11 9 5 17 14 17 19s17 37 37 72c21 35 36 66 35 71-1 4 2 7 8 7 5 0 10 7 10 15 0 9 7 18 15 21 10 4 13 13 9 26-4 12-2 18 3 15 10-6 38 40 35 56-1 4 2 7 8 7 5 0 10 7 10 16s5 12 12 8c8-5 9-2 5 9-3 10-2 17 4 17s8 4 5 9 1 12 10 15c8 3 12 10 9 16-3 5-1 10 5 10s8 5 5 10c-3 6-2 10 3 10s15 13 22 30c7 16 21 39 31 52 11 12 17 28 15 35-3 7-1 13 3 13 5 0 19 19 31 43 12 23 29 50 38 60s17 25 18 34c2 9 7 19 12 22s12 16 16 29c4 12 12 20 17 17s6 1 3 9c-3 9-1 16 5 16s11 9 11 20 5 20 10 20c6 0 10 7 10 15s5 15 11 15c5 0 7 5 4 10-3 6-1 10 4 10 6 0 11 6 11 13 0 8 9 24 20 37s20 32 20 42 6 21 14 24 17 16 20 30c4 13 11 24 16 24 6 0 10 9 10 20 0 10 8 23 18 29 9 5 15 11 14 13-6 5 21 58 30 58 4 0 7 3 6 8-2 13 14 46 36 70 12 13 20 24 18 25s0 10 3 19c4 10 12 15 19 11 6-3 8-3 4 2-4 4-3 14 4 22 6 7 8 16 5 20-4 3 5 16 18 29 14 13 25 27 25 31 0 18 12 43 21 43 6 0 7 5 4 10-3 6 1 13 9 16 9 3 14 10 11 14-3 5 1 15 9 22 7 8 17 24 20 36 4 12 12 22 17 22 6 0 8 4 5 9s1 14 9 21 12 16 9 21-1 9 4 9c6 0 15 14 21 30 5 17 15 30 21 30s8 5 5 10c-3 6-1 10 5 10 7 0 10 7 6 15-3 8-1 15 4 15s17 16 26 35 20 35 25 35 8 3 7 8c-4 14 13 52 23 52 6 0 7 5 4 10-3 6-2 10 3 10 9 0 37 50 34 63-1 4 2 7 8 7 5 0 10 7 10 15 0 9 7 18 15 21 8 4 13 10 10 14s5 19 16 34c11 14 17 30 14 36-3 5-1 10 5 10s16 12 23 28c6 15 20 36 29 46 10 10 15 22 13 26s5 16 15 28c11 12 20 27 20 35s11 26 25 41c13 14 19 26 12 26-8 0-8 3-2 8 21 15 50 56 35 48-13-7-13-6 0 6 8 7 22 27 30 43 8 17 18 32 21 35s16 26 29 53c13 26 28 47 32 47 5 0 7 4 4 9s2 19 12 32 26 41 37 62c11 20 24 37 29 37s6 3 3 6c-4 4 2 19 12 33s33 54 52 89c18 34 37 62 42 62 4 0 6 4 3 9s1 14 9 21 12 16 9 21 0 9 6 9 8 5 5 10c-3 6-2 10 4 10 5 0 27 34 48 76 21 41 46 84 56 95 10 10 15 19 12 19-4 0 2 12 13 28 11 15 23 37 26 50 4 12 12 22 18 22 5 0 8 7 4 15-3 8-2 15 3 15s16 11 25 24c13 21 14 27 2 38-7 8-16 23-20 35s-13 27-21 33c-8 7-15 21-15 31 0 11-7 19-15 19s-12 6-9 13c2 7-3 22-13 33s-19 26-21 34-8 16-13 18-9 10-9 18-4 14-10 14c-5 0-7 7-4 15 4 9 0 15-9 15-8 0-18 7-21 16-4 10-2 13 7 8 6-4 4 2-5 13-10 11-18 23-18 27s-7 14-15 23c-8 8-13 19-10 24 4 5-1 9-10 9s-14 4-10 9c3 5-2 16-10 25-9 8-16 18-16 20-2 21-13 46-19 46-5 0-13 14-19 31s-14 28-19 25c-4-2-9 5-9 16-1 12-8 25-15 29-7 5-8 9-3 9 6 0 2 5-7 11-10 5-18 18-18 29 0 10-4 20-9 22s-11 10-13 18-5 17-8 20c-12 12-70 112-70 121 0 5-5 9-10 9-6 0-9 3-8 8 3 15-15 42-25 35-6-3-7-1-3 6 10 15-13 43-28 34-6-4-5 1 3 10 7 9 9 17 3 17-5 0-12 8-15 18-7 21-37 71-55 90-7 7-10 18-7 23 4 5 1 9-4 9-6 0-11 6-11 14s-4 16-8 18c-5 2-20 26-34 55s-28 49-32 46c-5-5-7 3-6 22 1 3-8 17-20 32-11 14-20 32-20 39 0 8-4 14-9 14s-11 8-14 18c-9 26-58 106-71 114-7 5-7 8 3 8 9 0 7 6-7 19-12 10-19 21-15 25 3 3 1 6-5 6-10 0-22 24-22 43 1 4-5 14-12 22s-17 20-23 27c-5 7-17 22-25 33-13 17-13 18 0 10 8-4 4 3-9 18-12 14-21 29-18 34 5 8-18 35-25 28-2-2-5 6-5 18-1 12-7 23-13 25-5 2-10 8-10 14s-13 29-28 52c-15 22-36 57-45 76-10 19-26 49-36 65-10 17-16 34-13 39s0 6-6 2c-6-3-15 8-22 29-6 19-18 39-27 43-8 5-15 11-14 13 2 13-13 49-20 49-5 0-9 7-9 16 0 8-4 12-10 9-5-3-7 0-4 9 3 8-4 24-15 35-12 12-21 22-21 24-3 20-14 47-21 47-5 0-9 7-9 15s-4 15-10 15c-5 0-9 3-8 8 2 7-21 53-31 62-3 3-15 23-27 45-34 66-66 120-73 125-4 3-15 24-25 48-11 23-26 42-35 43-10 0-11 2-4 6 9 3 4 17-15 46-15 23-31 45-37 49-5 4-6 8-1 8s1 9-9 20-14 20-9 20 5 4-1 8c-5 4-21 27-34 52s-30 52-38 61c-7 9-10 19-6 22 3 4 1 7-5 7-7 0-12 7-12 15s-4 15-8 15c-5 0-14 16-22 35s-18 35-22 35c-5 0-6 5-3 10 3 6 1 10-4 10-6 0-11 7-11 15s-9 24-20 35-20 21-20 23c-3 20-14 47-21 47-5 0-9 7-9 15s-4 15-10 15c-5 0-10 9-10 20s-4 20-10 20c-5 0-10 7-10 15s-5 15-11 15c-5 0-7 5-4 10 3 6 3 10-2 10-9 0-39 61-35 73 1 4-3 7-9 7-5 0-15 14-20 30-6 17-18 30-27 30-15 0-15 2-2 10 13 9 8 14-12 11-3 0-5 7-3 17 1 9-1 19-5 22-15 10-79 124-74 132 3 4-5 8-18 9-13 0-18 3-11 6 10 3 10 9 0 26-7 12-14 24-17 27s-16 26-30 52c-13 26-28 44-34 41-5-3-6-1-2 5 3 6 2 13-4 17s-8 11-5 16c4 5 1 9-4 9-6 0-11 7-11 15s-5 15-11 15c-5 0-7 5-4 10 3 6-1 13-9 16-9 3-14 10-11 14 3 5-1 14-8 22-7 7-20 28-28 46-7 17-17 32-21 32-5 0-8 7-8 15s-5 15-11 15c-5 0-8 4-5 9 3 4-3 19-14 31s-17 27-14 31c3 5-2 12-10 15-9 3-13 11-9 17 4 7 0 8-12 3-15-5-16-4-5 9 10 12 10 15-3 15-10 0-14 6-11 14s-8 29-25 48c-16 19-33 46-36 61-4 15-11 27-17 27-5 0-6 5-3 10 3 6 3 10-2 10-4 0-17 18-27 40-11 22-23 40-28 40-4 0-8 9-8 21 0 11-4 17-10 14s-7 1-4 9c4 10 1 16-7 16-7 0-10 3-6 6 3 4 1 12-6 20-34 38-35 40-43 72-4 12-10 22-15 22s-9 6-9 13-9 23-20 35-20 29-20 39c-1 22-25 55-33 46-4-3-7 3-7 15s-4 22-8 22-14 16-21 35-17 35-22 35-9 9-9 20-4 20-10 20c-5 0-10 7-10 15 0 7-8 19-17 24-10 6-14 11-10 11s3 9-3 20-16 17-22 14c-6-4-8-3-4 4 7 12-23 82-36 82-5 0-6 5-3 10 3 6 2 10-3 10-6 0-15 12-21 28-16 37-44 86-53 90-5 2-8 10-8 18s-5 14-11 14c-5 0-8 4-4 9 3 6-1 13-9 18-8 4-15 10-15 13 0 17-22 60-31 60-6 0-9 4-6 8 7 12-29 63-39 55-4-5-5-2-1 4 4 7 0 23-8 34-14 20-24 22-133 23-65 1-124 5-130 9-8 5-13 4-13-2 0-5-9-9-20-8s-20 5-20 10-7 3-17-4c-13-11-17-11-20-2s-10 10-24 3c-10-6-19-7-19-3s-89 8-198 8c-108 0-201 2-206 4-6 3-44 5-85 5-42 1-82 5-90 10-10 6-12 5-7-2 8-13-20-12-39 0-6 4-17 3-25-2s-22-4-33 2c-15 7-18 7-12-2s2-9-14-1c-16 9-21 9-21-1 0-9-3-9-10 2-9 13-10 13-10 0 0-9-3-11-8-5-8 12-22 13-39 2-7-5-13-4-13 2 0 10-19 9-37-2-7-5-13-4-13 1s-35 8-77 8c-43-1-88 2-100 6-14 4-23 3-23-3s-7-6-20 1c-15 8-20 8-20-2s-2-10-9 1c-6 10-10 10-16 1s-10-9-16 1c-8 12-10 12-18 0-5-7-11-9-14-5-3 5-51 9-106 9-56 0-101 4-101 8s-9 3-20-3c-15-8-20-8-20 1 0 8-4 8-15-1s-15-9-15-1-5 9-19 1c-14-7-22-7-27 1-4 8-9 7-15-2-5-8-9-9-9-4 0 12-79 14-97 2-6-4-14-4-17 1s-47 9-98 10-105 4-120 6c-16 2-28-2-28-8 0-7-3-7-8-1-4 6-43 10-87 10-44-1-86 3-92 8-8 6-13 6-13-1s-10-8-29-2c-26 7-29 6-28-11z"/><path d="m5560 18380c0-6-4-9-10-5-11 7-50-25-50-41 0-6-11-24-24-39-14-16-23-32-20-37 3-4 1-8-3-8-5 0-17-13-26-30-10-16-15-30-11-30s-3-8-14-19c-12-10-19-20-17-23 3-3-1-11-10-18-8-7-15-19-15-26 0-8-4-14-10-14-5 0-10-7-10-15s-5-15-12-15c-6 0-9-3-5-6 3-3 1-11-4-18-23-27-92-142-92-153 0-7-4-13-8-13-8 0-60-86-58-96 0-4-3-10-8-13-13-10-48-65-45-73 1-5-2-8-8-8-5 0-10-7-10-15s-4-15-10-15c-5 0-10-7-10-15s-4-15-9-15-15-16-22-35-16-35-20-35-10-8-14-19c-3-10-14-29-25-41s-17-27-14-31c3-5 0-9-7-9s-10-3-7-6-5-17-18-31-24-30-24-35c0-6-10-24-22-41-25-35-32-46-67-109-12-24-29-47-37-51s-14-16-14-27c0-10-3-20-7-22-10-4-73-107-73-119 0-5-5-9-11-9-5 0-8-4-5-9s-1-11-9-15c-8-3-15-12-15-19 0-8-7-20-15-27s-12-16-9-21 0-9-6-9-8-4-5-10c3-5 2-10-4-10-5 0-20-20-32-45s-27-45-31-45c-5 0-7-4-4-9 4-5 2-11-3-13-9-3-40-52-63-98-7-14-15-27-18-30-11-10-40-60-35-60 3 0-4-9-15-20s-20-27-20-35-4-15-9-15-14-13-21-30c-7-16-17-30-22-30s-6-4-3-10c3-5 2-10-3-10-4 0-19-20-31-45-12-24-27-47-32-51-11-6-33-57-27-62 2-2-5-8-15-13-9-6-15-14-12-20 4-5 1-9-6-9-10 0-10-3-2-11 7-7 17-8 29-1 11 5 28 6 39 2s26-3 33 3c10 8 16 7 21-2 7-10 13-11 31-1 17 9 21 9 15 0s-3-9 13-1c14 8 21 8 24 0 2-7 12-7 31 0 15 6 27 7 27 3s13-7 30-8c16-1 28 2 26 5s7 6 20 6 24-4 24-9c0-4 8-5 18-1 19 9 46 9 80 0 13-3 21-2 18 3-7 11 37 10 45-2 4-4 15-4 25 2 11 6 27 7 41 1 14-5 25-4 29 2 4 7 10 6 19-1 10-8 14-7 18 2 4 10 6 10 6-1 1-11 4-11 18 0 14 12 15 12 9 1-7-11-4-12 12-3 15 8 21 8 25-2 3-9 7-9 19 1 11 9 17 9 20 2 2-8 11-8 31-1 15 6 27 7 27 3s13-7 30-8c16-1 27 2 25 6-6 10 39 7 46-4 4-4 17-3 29 4 17 9 21 9 15 0s-3-9 13-1c14 8 21 8 24 0 2-7 12-7 31 0 15 6 27 7 27 2 0-10 19-9 37 2 6 4 15 2 19-4 4-8 9-7 15 2 7 12 9 12 9 0 0-11 3-11 17 0 14 12 15 12 9 1-7-11-4-12 13-3 11 7 21 8 21 4 0-5 18-8 39-8 22 0 38 2 36 5s8 5 21 5 24-4 24-9c0-4 8-5 18-1 19 9 46 9 80 0 13-3 21-2 18 3-7 11 37 10 45-2 4-4 17-3 29 4 17 9 21 9 15 0s-3-9 13-1c14 8 21 8 24 0 2-7 12-7 31 0 15 6 27 7 27 3s13-7 30-8c16-1 27 2 25 6-6 10 39 7 46-4 4-4 17-3 29 4 17 9 21 9 15 0s-3-9 13-1c14 8 21 8 24 0 2-7 12-7 31 0 20 8 27 7 27-2 0-8 3-8 9 2 6 9 10 10 12 2 3-9 12-9 32-2 15 6 27 7 27 3s13-7 30-8c16-1 27 2 25 6-6 10 39 7 46-4 4-4 17-3 29 4 17 9 21 9 15 0s-3-9 13-1c14 8 21 8 24 0 2-7 12-7 31 0 15 6 27 7 27 2 0-10 19-9 37 2 6 4 15 2 19-4 4-8 9-7 15 2 7 12 9 12 9 0 0-11 3-11 17 0 14 12 15 12 9 1-7-11-4-12 12-3 15 8 21 8 25-2 3-9 7-9 19 1 11 9 17 9 20 2 2-8 11-8 31-1 15 6 27 7 27 3s13-7 30-8c16-1 27 2 25 6-6 10 39 7 46-4 4-4 17-3 29 4 17 9 21 9 15 0s-3-9 13-1c14 8 21 8 24 0 2-7 12-7 31 0 15 6 27 7 27 2 0-10 19-9 37 2 6 4 15 2 19-4 4-8 9-7 15 2 7 12 9 12 9 0 0-11 3-11 17 0 14 12 15 12 9 1-7-11-4-12 13-3 12 7 21 8 21 2 0-11 39-9 57 2 6 4 15 2 19-4 4-8 9-7 15 2 7 12 9 12 9 0 0-11 3-11 17 0 14 12 15 12 9 1-7-11-4-12 12-3 15 8 21 8 25-2 3-9 7-9 19 1 11 9 17 9 20 2 2-8 11-8 31-1 15 6 27 7 27 3s13-7 30-8c16-1 27 2 25 6-6 10 39 7 46-4 4-4 17-3 29 4 17 9 21 9 15 0s-3-9 13-1c14 8 21 8 24 0 2-7 12-7 31 0 15 6 27 7 27 2 0-10 19-9 37 2 6 4 15 2 19-4 4-8 9-7 15 2 7 12 9 12 9 0 0-11 3-11 17 0 14 12 15 12 9 1-7-11-4-12 12-3 15 8 21 8 25-2 3-9 7-9 19 1 11 9 17 9 20 2 2-8 11-8 31-1 15 6 27 7 27 3s13-7 30-8c16-1 27 2 25 6-6 10 39 7 46-4 4-4 17-3 29 4 17 9 21 9 15 0s-3-9 13-1c14 8 21 8 24 0 2-7 12-7 31 0 20 8 27 7 27-2 0-8 3-8 9 2 6 9 10 10 12 2 3-9 12-9 32-2 15 6 27 7 27 3s13-7 30-8c16-1 27 2 25 6-6 10 39 7 46-4 4-4 17-3 29 4 17 9 21 9 15 0s-3-9 13-1c14 8 21 8 24 0 2-7 12-7 31 0 15 6 27 7 27 3s13-7 30-8c16-1 28 2 26 5s7 6 20 6 24-4 24-9c0-4 8-5 18-1 19 9 46 9 80 0 13-3 21-2 18 3-7 11 37 10 45-2 4-4 15-4 25 2 11 6 27 7 41 1 14-5 25-4 29 2 4 7 10 6 19-1 10-8 14-7 18 2 4 10 6 10 6-1 1-11 4-11 18 0 14 12 15 12 9 1-7-11-4-12 12-3 15 8 21 8 25-2 3-9 7-9 19 1 11 9 17 9 20 2 2-8 11-8 31-1 15 6 27 7 27 3s13-7 30-8c16-1 27 2 25 6-6 10 39 7 46-4 4-4 17-3 29 4 17 9 21 9 15 0s-3-9 13-1c14 8 21 8 24 0 2-7 12-7 31 0 15 6 27 7 27 2 0-10 19-9 37 2 6 4 15 2 19-4 4-8 9-7 15 2 7 12 9 12 9 0 0-11 3-11 17 0 14 12 15 12 9 1-7-11-4-12 13-3 11 7 21 8 21 4 0-5 18-8 39-8 22 0 38 2 36 5s8 5 21 5 24-4 24-9c0-4 8-5 18-1 19 9 46 9 80 0 13-3 21-2 18 3-7 11 37 10 45-2 4-4 17-3 29 4 17 9 21 9 15 0s-3-9 13-1c14 8 21 8 24 0 2-7 12-7 31 0 15 6 27 7 27 3s13-7 30-8c16-1 27 2 25 6-6 10 39 7 46-4 4-4 17-3 29 4 17 9 21 9 15 0s-3-9 13-1c14 8 21 8 24 0 2-7 12-7 31 0 20 8 27 7 27-2 0-8 3-8 9 2 6 9 10 10 12 2 3-9 12-9 32-2 15 6 27 7 27 3s13-7 30-8c16-1 27 2 25 6-6 10 39 7 46-4 4-4 17-3 29 4 17 9 21 9 15 0s-3-9 13-1c14 8 21 8 24 0 2-7 12-7 31 0 15 6 27 7 27 3s13-7 30-8c16-1 28 2 26 5s7 6 20 6 24-4 24-9c0-4 8-5 18-1 19 9 46 9 80 0 13-3 21-2 18 3-7 11 37 10 45-2 4-4 15-4 25 2 11 6 27 7 41 1 14-5 25-4 29 2s11 6 20-2c11-9 14-8 14 2 0 11 2 11 10-1 9-13 11-13 20 0 8 13 10 13 10-2 0-9 11-34 25-54s25-43 25-50c0-8 5-14 11-14 5 0 8-4 5-9s1-14 9-21 15-19 15-26c0-8 5-14 11-14 5 0 7-4 4-10-3-5-3-10 2-10 4 0 17-18 27-40 11-22 23-40 28-40 4 0 8-3 7-7-2-16 14-53 23-53 5 0 6-4 3-10-3-5-2-10 3-10s12-8 15-17c4-10 22-45 42-78 19-33 45-79 56-102 12-24 25-43 31-43 5 0 7-4 4-9s1-14 9-21 12-16 9-21-1-9 3-9c5 0 19-22 32-50 13-27 28-50 33-50s8-6 6-12c-3-7 4-21 14-32s18-26 18-33 4-13 10-13c5 0 9-3 8-7-3-13 25-63 34-63 5 0 6-4 3-10-3-5-1-10 5-10s9-4 6-9c-4-5-2-11 3-13 5-1 11-10 13-18 3-14 7-20 36-54 7-9 12-19 12-23 0-18 12-43 21-43 6 0 8-4 4-9-3-5 5-20 17-33 13-13 24-30 26-38s9-18 15-22c7-4 8-8 4-8-9 0 24-60 33-60 4 0 7-6 7-13 0-6 12-31 26-55 15-23 24-42 20-42-5 0 0-5 10-11 9-6 15-14 12-20-4-5-1-9 4-9 6 0 11-7 11-15s5-15 12-15c6 0 9-3 5-6-3-3 5-24 19-45 13-21 24-43 24-49 0-5 5-10 10-10 6 0 10-7 10-15s5-15 11-15c5 0 8-4 5-8-3-5 4-21 15-38 11-16 24-38 30-49 5-11 20-38 33-60s22-43 19-47c-2-5 1-8 7-8s16-13 21-30c6-16 15-30 21-30 5 0 6-4 3-10-3-5-1-10 4-10 6 0 11-5 11-10 0-6 11-28 24-49 14-21 22-42 19-45-4-3-1-6 5-6 7 0 12-7 12-15s4-15 8-15c5 0 14-16 22-35s17-35 21-35 10-11 13-25c4-14 11-25 17-25s8-4 4-9c-3-5 1-16 9-24s12-17 9-21c-4-3-1-6 5-6 7 0 12-7 12-15s5-15 11-15c5 0 8-4 5-9s1-14 9-21 15-16 15-20c0-8 91-172 100-180 3-3 14-23 25-45s29-55 42-74c12-19 20-38 17-43-3-4-1-8 4-8 4 0 18-19 31-42 47-89 66-123 71-128 3-3 12-18 20-35 8-16 17-32 20-35s10-14 16-25 23-42 38-70c16-27 44-79 64-115s40-66 44-68 8-12 8-23c0-10 3-19 8-19 4 0 13-15 21-32 8-18 17-35 20-38 7-5 49-82 66-117 5-13 13-23 18-23 4 0 7-9 7-20s4-20 8-20c10 0 37-50 34-62-1-5 2-8 8-8 5 0 10-7 10-15s5-15 11-15c5 0 7-4 4-10-3-5-1-10 4-10 6 0 10-3 9-7-2-13 14-43 21-39 4 3 8-5 8-17 1-12 7-23 13-25 5-2 10-9 10-16s8-21 18-32c9-11 18-25 19-31s16-34 33-62c16-29 30-56 30-61 0-6 5-10 11-10 5 0 7-4 4-10-3-5-1-10 5-10s8-4 5-10c-3-5-1-10 4-10 6 0 11-5 11-11s7-17 15-26c8-8 13-19 10-24-4-5-1-9 4-9 6 0 11-7 11-15s5-15 10-15c6 0 10-9 10-20s3-20 8-20c8 0 12-7 52-89 14-28 28-51 32-51 5 0 8-7 8-15s5-15 10-15c6 0 9-3 8-7-2-9 41-95 51-103 3-3 13-18 22-35 48-88 84-152 96-171 7-11 10-24 6-27-3-4-1-7 5-7s22-21 35-47c30-61 50-97 58-103 3-3 12-20 20-37 8-18 17-33 21-33 5 0 8-7 8-15s8-23 18-33c9-10 19-27 20-37 2-11 7-22 11-25 3-3 18-26 31-52 14-27 29-48 34-48 4 0 6-7 2-15-3-8-1-15 4-15s12-9 15-20c4-12 11-17 18-14 7 4 9 3 4-1-4-5 0-19 8-32 9-13 12-23 9-23-4 0 0-8 8-17 8-10 26-38 39-63s26-47 29-50 16-27 30-55c14-27 28-51 33-53 4-2 7-10 7-18s5-14 11-14c5 0 7-5 4-10-3-6-1-10 6-10s9-3 6-7c-4-3 3-17 15-30 12-12 19-26 15-29-3-4-1-12 6-20 30-34 35-42 29-49-4-4 2-5 13-3s20 8 20 13c0 6 24 48 53 95s52 89 52 93c-1 4 5 14 12 22 26 28 34 41 51 75 10 19 26 49 37 65 23 37 42 70 64 111 9 18 23 37 31 44s15 17 15 22c0 18 87 157 94 151 4-4 4 0 0 10-3 10-1 17 5 17s11 5 11 10c0 6 22 46 50 90 27 44 51 85 52 92 2 7 12 21 22 30 10 10 15 18 11 18s0 9 10 20 14 20 9 20 0 7 10 15c11 8 16 15 11 15-4 0-1 8 7 18 28 32 68 109 60 116-4 4-2 6 3 4 6-1 11 2 13 7 2 6 10 17 18 26s11 19 7 22c-3 4-1 7 5 7 7 0 20 18 29 40 10 22 21 40 25 40 5 0 8 4 8 10 0 5 16 34 35 64s35 60 35 66c0 5 5 10 10 10 6 0 10 10 10 22s3 19 6 15c4-3 14 8 23 26 30 55 63 112 70 117 3 3 13 19 21 35 8 17 23 42 33 58 10 15 15 27 10 27-4 0 0 5 10 11 9 6 15 14 12 20-4 5-1 9 4 9 6 0 11 7 11 15s3 15 8 15c4 0 16 18 26 40s27 48 38 60c10 11 16 20 13 20s2 14 12 30c9 16 21 30 26 30 4 0 5 5 2 10-3 6-1 10 5 10s8 5 5 10c-3 6-2 10 3 10 4 0 18 20 30 44 23 45 28 71 13 62-4-3-14 12-21 34s-16 38-19 35c-4-2-18 21-31 51-14 30-28 54-32 54-5 0-8 6-8 14s-3 16-7 18c-5 2-21 29-38 61-16 31-34 57-39 57s-6 3-3 6c3 4-3 18-13 32-11 13-20 33-20 44s-4 16-10 13c-5-3-10 1-10 9 0 9-5 16-10 16-6 0-10 3-9 8 3 17-14 51-27 56-8 3-14 15-14 26s-4 20-9 20-11 8-15 18c-3 9-20 40-36 67-17 28-34 58-37 67s-11 19-19 22c-7 3-11 12-8 21 3 8 1 15-5 15s-11 7-11 15-4 15-10 15c-5 0-10 7-10 15s-5 15-12 15c-6 0-9 3-6 6 4 3-5 22-18 41s-22 39-19 43-2 10-10 14c-8 3-15 12-15 19 0 8-9 24-20 37s-20 29-20 37c0 7-5 13-11 13-5 0-8 4-5 9s-1 14-9 21-15 19-15 26c0 8-3 14-7 14-5 0-19 23-32 50-14 28-29 50-33 50s-8 9-8 20-4 20-10 20c-5 0-10 7-10 15s-5 15-11 15c-5 0-8 4-5 9s-1 14-9 21-15 18-15 25c0 8-3 15-7 17-5 2-21 29-38 62-16 32-36 61-42 63-7 3-11 8-9 12 3 4-11 31-30 61s-34 60-34 67-4 13-9 13-15 16-22 35-17 35-21 35-8 6-8 14-3 16-7 18c-5 2-19 24-32 50s-31 55-41 65c-9 10-15 24-12 31 2 6-1 12-8 12-6 0-8 5-5 10 3 6 2 10-3 10s-17 15-26 33c-9 17-30 55-47 82-16 28-32 58-36 68-3 9-10 17-15 17s-6 5-3 10c3 6 2 10-4 10s-13 11-17 25c-3 14-10 25-16 25-5 0-6 5-3 10 3 6-1 13-9 16-9 3-14 10-11 14s-2 13-10 20-15 18-15 24c0 7-8 21-17 32-10 11-19 25-20 32-2 6-21 41-43 77s-40 70-40 75c0 6-5 10-12 10-6 0-9 3-5 6 3 4-4 21-17 38s-29 46-37 64c-8 17-17 32-21 32-5 0-8 5-8 10 0 6-11 27-24 48-12 20-24 40-24 45-1 4-17 32-37 62-19 31-35 60-35 65 0 6-3 10-7 10-5 0-13 10-19 23-20 44-59 111-72 125-7 7-10 18-7 23 4 5 2 9-3 9-7 0-56 76-57 90 0 3-13 24-28 47-15 24-27 47-27 53 0 5-3 10-7 10-5 0-13 10-18 23-23 48-61 113-77 131-10 10-15 23-12 28 3 4-2 11-10 14-9 3-14 9-11 13 2 4-7 24-20 44-14 20-25 41-25 46 0 6-4 11-10 11-5 0-10 6-10 14 0 7-9 25-20 39s-20 32-20 41-4 16-8 16c-5 0-20 21-33 48-13 26-27 49-31 50-5 2-8 10-8 18s-4 14-10 14c-5 0-10 9-10 19 0 11-4 21-8 23-9 3-69 106-73 123-1 6-9 15-18 22s-13 13-9 13-8 24-27 54c-19 29-31 56-28 60 4 3 2 6-4 6s-26 28-43 63c-18 34-36 64-39 67s-15 22-26 43c-11 20-23 37-28 37-4 0-5 5-2 11 4 6-1 17-11 24-11 8-15 15-11 15 5 0-1 12-12 26-12 15-21 33-21 40 0 8-4 14-10 14-5 0-10 7-10 15s-4 15-8 15-13 15-20 33-21 43-32 55c-12 12-18 22-14 22s-1 9-11 20-14 20-10 20 1 8-7 18c-8 9-26 37-39 62s-26 47-29 50c-6 6-29 46-47 82-8 15-19 30-24 33-5 4-7 11-4 16 4 5 1 9-4 9-6 0-11 6-11 13s-8 22-17 33c-10 11-19 26-21 34s-10 22-17 30-15 22-17 30-5 17-8 20c-13 13-60 90-54 90 3 0-1 7-8 15-23 26-33 40-36 55-2 8-10 22-18 31s-11 19-7 22c3 4 2 7-4 7s-16 14-22 30c-5 17-15 30-21 30s-8 5-5 10c3 6 1 10-5 10s-9 4-5 9c3 5 1 12-4 16-6 3-20 26-32 50-12 25-25 45-29 45-3 0-12 15-20 34-11 30-17 34-42 31-20-3-27-1-21 8 5 9 3 9-8 1-15-12-108-12-127 0-7 4-12 2-12-4 0-8-11-9-31-5-24 6-30 4-24-5 6-10 4-11-6-4-21 13-429 13-429-1 0-5-5-3-10 5-8 13-13 13-31 2-15-10-19-10-14-1 6 8 1 11-18 7-14-3-32-1-39 3-7 5-19 2-29-7-13-12-19-12-25-3-5 8-3 10 6 4 9-5 11-4 6 4-5 7-12 9-19 3-14-10-108-9-125 2-7 4-12 2-12-4 0-8-11-9-31-5-24 6-30 4-24-5 6-10 4-11-6-4-21 13-109 14-109 0 0-6-5-4-10 4-8 13-13 13-31 2-11-8-19-10-16-5s-87 9-209 9c-139 0-214-4-214-11 0-5-5-3-10 5-8 13-13 13-31 2-15-10-19-10-14-1 6 8 1 11-18 7-14-3-32-1-39 3-7 5-19 2-29-7-13-12-19-12-25-3-5 8-3 10 6 4 9-5 11-4 6 4-5 7-12 9-19 3-14-10-108-9-125 2-7 4-12 2-12-4 0-8-11-9-31-5-24 6-30 4-24-5 6-10 4-11-6-4-21 13-109 14-109 0 0-6-5-4-10 4-8 13-13 13-31 2-11-8-18-9-15-3 4 6-14 9-49 9-32-1-55-6-55-12s-5-4-10 4c-8 13-13 13-31 2-15-10-19-10-14-1 6 8 1 11-18 7-14-3-32-1-39 3-7 5-19 2-29-7-13-12-19-12-25-3-5 8-3 10 6 4 9-5 11-4 6 4-5 7-12 9-19 3-14-10-108-9-125 2-7 4-12 2-12-4 0-8-11-9-31-5-24 6-30 4-24-5 6-10 4-11-6-4-21 13-109 14-109 0 0-6-5-4-10 4-8 13-13 13-31 2-11-8-18-9-15-3 4 6-14 9-49 9-32-1-55-6-55-12s-5-4-10 4c-8 13-13 13-31 2-15-10-19-10-14-1 6 8 1 11-18 7-14-3-32-1-39 3-7 5-19 2-29-7-13-12-19-12-25-3-5 8-3 10 6 4 9-5 11-4 6 4-5 7-12 9-19 3-14-10-108-9-125 2-7 4-12 2-12-4 0-8-11-9-31-5-24 6-30 4-24-5 6-10 4-11-6-4-21 13-109 14-109 0 0-6-5-4-10 4-8 13-13 13-31 2-11-8-18-9-15-3 4 6-14 9-49 9-32-1-55-6-55-12s-5-4-10 4c-8 13-13 13-31 2-15-10-19-10-14-1 6 8 1 11-18 7-14-3-32-1-39 3-7 5-19 2-29-7-13-12-19-12-25-3-5 8-3 10 6 4 9-5 11-4 6 4-5 7-12 9-19 3-14-10-108-9-125 2-7 4-12 2-12-4 0-8-11-9-31-5-24 6-30 4-24-5 6-10 4-11-6-4-21 13-109 14-109 0 0-6-5-4-10 4-8 13-13 13-31 2-11-8-19-10-16-5s-87 9-209 9c-139 0-214-4-214-11 0-5-5-3-10 5-8 13-13 13-31 2-15-10-19-10-14-1 6 8 1 11-18 7-14-3-32-1-39 3-7 5-19 2-29-7-13-12-19-12-25-3-5 8-3 10 6 4 9-5 11-4 6 4-5 7-12 9-19 3-14-10-108-9-125 2-7 4-12 2-12-4 0-8-11-9-31-5-24 6-30 4-24-5 6-10 4-11-6-4-21 13-109 14-109 0 0-6-5-4-10 4-8 13-13 13-31 2-11-8-19-9-15-4 3 5-73 8-185 8-105-1-193 2-196 7s-13 1-23-8c-14-12-20-13-26-4-5 8-3 10 6 4 9-5 11-4 6 4-5 7-12 9-19 3-14-10-108-9-125 2-7 4-12 2-12-4 0-8-11-9-31-5-25 6-30 4-23-6 6-11 5-12-7-3-8 6-24 10-37 9s-25 2-28 7-14 2-24-7c-14-12-20-13-26-4-5 8-3 10 6 4 9-5 11-4 6 4-5 7-12 9-19 3-14-10-108-9-125 2-7 4-12 2-12-4 0-8-11-9-31-5-24 6-30 4-24-5 6-10 4-11-6-4-20 13-231 13-248 0-11-8-13-8-8 1 4 6 3 14-3 18-5 3-10 1-10-5z"/><path d="m15570 17201c0-6 4-13 10-16s7 1 4 9c-7 18-14 21-14 7z"/><path d="m9523 15724c3-6-296-10-766-12-425-1-776-2-782-2-5 0-76 1-158 2-91 2-149-1-151-7-3-6-5-6-5 0-1 10-71 11-97 1-7-3-16-1-20 5-4 7-10 6-18 0-7-6-16-8-19-4-11 11-117 9-117-2 0-7-3-7-8 0-4 6-25 10-47 10s-43-4-47-10c-5-7-8-7-8 0 0 6-29 10-67 10s-71-4-75-10c-5-7-8-7-8 0 0 10-99 11-125 1-8-3-15-2-15 2s-48 6-107 5c-207-5-816-3-824 3-5 3-9 1-9-3 0-5-25-6-55-3-31 3-57 4-60 2-6-7-272-5-283 2-6 3-13 2-16-2-6-10-48-8-65 2-5 4-12 2-15-3-4-6-18-6-36-1-17 5-30 6-30 2s-49-7-110-7c-60 0-110 4-110 8 0 5-5 5-11 1-15-9-802-9-817 0-7 4-12 4-12-1 0-4-99-8-221-7l-221 1-10-23c-6-13-15-21-21-17s-7 1-3-6c5-7 0-21-10-32-9-10-13-19-8-19s1-7-10-15c-10-7-15-18-12-23 3-6-1-13-10-16-8-3-12-10-9-16 3-5 2-10-3-10-6 0-15-13-21-30-5-16-15-30-20-30-6 0-11-3-10-7 2-16-14-53-23-53-6 0-7-7-4-16 3-8 2-13-2-10-5 3-16-8-26-25-9-16-14-29-9-29 4 0 0-5-10-11-9-5-17-17-17-24 0-8-5-15-11-15-5 0-8-4-4-9 3-5-1-16-9-24s-12-17-9-21c4-3 1-6-5-6-7 0-12-5-12-10 0-6-16-35-35-65s-32-55-29-55-2-7-10-16c-9-8-14-19-11-24 3-4-2-11-11-14-8-3-13-10-10-15s-2-12-11-15c-15-6-15-8-3-16 13-8 12-10-2-10-11 0-18-8-18-21s-4-18-12-13-9 2-5-9 1-17-8-17-12-6-9-15c4-8 1-15-5-15s-11-7-11-15c0-9-7-18-15-21-8-4-13-10-10-14 3-5 1-11-5-15s-8-11-5-16c4-5 1-9-4-9-6 0-11-6-11-14s-7-16-15-20c-8-3-14-9-14-13 3-10-12-46-21-53-8-5-54-93-51-97 0-2-8-12-19-23s-20-27-20-35-4-15-10-15c-5 0-10-7-10-15s-5-15-11-15c-5 0-7-4-4-10 3-5 1-10-5-10s-9-4-6-9-1-14-9-21-13-16-10-20-2-11-11-14c-9-4-14-13-10-22 3-8 2-13-3-10-11 7-23-22-14-36 3-6 1-8-5-4-6 3-13-2-17-13-3-10-15-29-26-42-11-12-17-29-15-36 3-7 1-13-5-13s-7-4-4-10c4-6-1-7-11-3-11 4-15 3-10-5 3-6 2-13-4-17s-8-11-5-16c4-5 1-9-5-9s-8-4-5-10c3-5-1-10-9-10-10 0-13-6-10-15 4-8-1-17-10-21-9-3-14-10-11-14 3-5-1-15-9-23s-12-17-9-21c4-3 1-6-5-6-9 0-28-40-23-48 1-2-7-12-19-22s-20-22-19-25c1-4-3-14-10-24-15-21-37-60-50-88-6-13-16-23-22-23-8 0-7-6 2-17 9-10 9-14 2-10-7 5-17-2-24-15s-17-26-23-30c-7-5-6-8 4-8 12-1 11-3-3-11-9-6-15-14-12-20 4-5 1-9-4-9-6 0-11-7-11-15 0-7-8-19-18-24-9-6-13-11-8-11s3-7-4-15c-6-8-9-19-5-25s3-9-2-8c-4 2-8-1-8-5 0-5-8-13-18-18-9-6-15-14-12-20 4-5 1-9-4-9-6 0-10-3-9-7 1-5-5-20-15-35-9-16-25-40-34-55-34-54-53-93-46-93 5 0 3-4-3-8-12-7-44-57-66-102-7-14-15-27-18-30s-16-25-29-50c-14-25-27-47-30-50s-13-18-21-35c-8-16-22-42-32-56s-15-29-11-32c3-4-2-9-11-13-9-3-13-10-10-15s1-9-3-9c-5 0-17-20-28-44s-23-42-27-40c-5 3-8-4-8-15s-5-23-11-27c-6-3-17-22-25-40-8-19-19-34-25-34s-9-9-6-20c3-13 0-20-9-20-12 0-19-19-15-43 1-5-3-6-8-3-9 6-26-22-22-37 0-4-6-10-14-13s-13-10-10-14c3-5-2-15-11-24-8-9-12-21-8-27 4-8 3-9-4-5s-12 1-12-7-9-24-20-37c-11-12-17-27-14-31 3-5 0-9-5-9-6 0-11-7-11-15s-4-15-10-15c-5 0-12-11-16-25-3-13-12-29-20-36-8-6-11-15-8-20s1-9-5-9-20-21-32-47c-12-25-28-53-36-61s-12-21-9-29 2-12-3-9c-4 3-17-12-27-34s-23-40-27-40c-5 0-6-4-3-8 3-5-3-18-14-30-14-14-16-22-7-25 7-3 4-6-5-6-10-1-18-8-18-16s-5-15-11-15c-5 0-8-4-4-9 3-5-2-17-11-25-8-9-12-16-7-16 4 0 4-4-2-8-5-4-17-16-25-26-13-18-13-19 0-12 8 4 6 0-4-8-11-9-16-16-12-16s0-7-9-16-14-23-11-31 1-11-5-8c-5 4-15-7-22-24-6-17-15-31-19-31s-8-7-8-15-8-24-18-35c-9-11-17-24-17-28s-9-19-19-34-15-32-11-37c4-7-1-8-11-4-12 4-15 3-10-5 4-7 2-12-4-12s-8-5-5-10c3-6-1-13-10-16-9-4-14-12-11-19 3-8-2-16-10-19s-14-10-14-16 6-8 13-5c6 4 4 0-7-9-23-19-48-65-40-77 3-5-2-6-10-3-11 4-16 0-16-15 0-12-5-21-11-21-5 0-7-4-4-10 3-5 3-10-2-10-4 0-17-18-27-40-11-22-23-40-28-40s-7-4-4-8c3-5-2-18-12-28-9-11-18-26-20-34s-7-17-10-20c-4-3-16-22-26-42-11-21-23-38-27-38s-6-9-4-20 0-18-4-16c-8 5-36-46-29-52 1-2-5-8-14-13-10-6-18-16-18-24s-13-34-29-57c-16-24-27-46-25-49 2-4-3-10-12-13s-14-13-10-21c3-8 0-18-7-22-21-13-88-134-81-145 4-6 2-8-3-5-10 6-18-5-24-31-1-4-9-13-18-20-13-11-13-12-1-7 8 4 6-1-4-9-11-9-16-16-10-16 5 0 5-3-1-8-5-4-17-16-25-26-13-18-13-19 0-11 10 6 9 1-3-12-22-25-55-80-63-105-4-10-11-18-17-18s-8-3-4-6c3-4-1-13-9-21s-12-19-9-24c4-5 1-9-4-9-6 0-11-7-11-15s-4-15-9-15-14-13-20-30c-5-16-14-30-20-30-5 0-8-9-6-20s0-18-4-16c-4 3-14-7-22-21-11-21-11-27-1-30 6-3 12-13 12-24 0-10 5-19 11-19 5 0 8-4 5-8-3-5 4-19 15-30 11-12 17-22 13-22s0-8 8-17c18-22 34-57 37-84 0-5 6-7 13-3 7 5 8 3 4-5-5-7-1-20 7-29 22-26 61-105 59-120-2-7 3-11 10-10 7 2 14-7 16-19 2-13 6-23 10-23s18-25 32-55 28-55 33-55c4 0 7-8 7-18s9-28 20-40 20-25 20-30c0-14 25-62 33-62 4 0 7-7 7-15s5-15 11-15c5 0 7-5 3-11-3-6-3-14 2-18 16-11 44-60 44-76 0-9 7-18 16-22 8-3 13-12 10-19-3-8-2-14 2-14s13-15 21-32c8-18 17-35 20-38s20-32 37-65c61-118 79-150 92-163 7-8 10-18 7-23-4-5-3-9 2-9 4 0 13-10 18-23 26-54 81-152 88-155 4-2 5-7 2-12-3-4 2-13 10-20s15-18 15-26c0-7 9-22 21-33s18-24 15-29c-3-6 1-17 9-25 8-9 15-22 15-29 0-8 9-24 19-35 11-12 17-24 14-27-4-3-1-6 6-6s9-4 6-10c-3-5-1-10 5-10s8-5 5-10-1-10 5-10 8-4 5-10c-3-5-1-10 4-10 6 0 11-7 11-15s5-15 10-15c6 0 9-3 9-7-3-13 25-73 33-73 4 0 8-7 8-15s5-15 11-15c5 0 8-4 4-9-3-5 2-17 11-25 8-9 12-16 7-16-4 0 1-7 11-15 11-8 17-15 13-15s-2-10 5-22c7-13 11-26 10-30-1-5 5-8 13-8 9 0 12-6 9-15-4-8-1-15 7-15 7 0 9-3 6-6-4-4 2-19 13-34 11-16 20-33 20-39s5-11 11-11c5 0 7-4 4-10s-1-10 6-10 9-3 6-6c-4-4 2-19 13-34 11-16 20-35 20-44s5-16 11-16c5 0 8-4 5-8-3-5 1-9 9-9s13 3 12 6 4 16 11 27c6 12 9 24 7 28-3 3-2 4 2 1 10-8 44 55 37 67-4 7-2 8 4 4 7-4 12-1 12 8s5 16 11 16c5 0 7 5 4 10-3 6-1 10 4 10 6 0 11 7 11 15s5 15 11 15c5 0 8 4 4 9-3 5-1 12 5 16s7 11 4 17c-4 6-2 8 4 4 6-3 13 3 17 14 3 11 11 20 16 20 6 0 8 4 4 9-3 5 1 16 9 24s12 17 9 21c-3 3 1 8 10 12 9 3 14 14 12 26-3 11-2 18 2 14 8-8 43 49 43 71 0 9 3 13 7 10 6-7 59 92 55 106-1 4 1 6 5 5 5-2 8-1 8 2s10 19 23 37c12 17 22 36 22 42s4 11 8 11c5 0 14 16 22 35s18 35 22 35c5 0 6 5 3 10s-1 10 5 10c7 0 9 7 6 17-4 10-4 14 0 10 9-8 54 64 48 75-3 5 0 8 6 8s16 13 21 30c7 18 16 27 22 23 7-3 9-3 5 1-9 10 31 86 45 86 6 0 7 3 4 7-4 3 3 18 15 31 13 14 17 22 9 17-11-6 12 39 29 55 3 3 11 17 19 33 8 15 18 27 23 27s6 5 2 12c-4 6 1 17 11 25 11 7 15 13 11 13s2 13 13 29c12 16 21 33 21 39 0 5 9 19 20 32 11 12 17 27 14 31-3 5 2 9 11 9 11 0 15 5 11 15-3 8-1 15 5 15s7 5 4 10c-3 6 1 13 10 16 9 4 14 12 11 19-3 8 2 16 10 19 9 3 13 10 10 15s1 12 9 15 15 9 14 13c-3 18 1 36 7 30 7-7 44 60 44 80 0 8 7 16 15 19 8 4 15 12 15 19 0 8 7 21 16 29 8 9 13 16 9 16s1 7 9 16c9 8 14 19 11 24-3 4 2 11 10 14s15 9 14 13c-4 21 2 33 12 27 7-4 10-1 7 7s0 19 6 26c30 34 36 43 36 58 0 8 5 15 11 15 5 0 7 5 4 10-3 6 1 13 9 16 9 3 16 15 16 25s5 19 11 19c5 0 8 4 5 9s1 12 10 15c8 3 13 10 10 15s1 14 9 21 12 16 9 21 0 9 5 9c6 0 11 5 11 11 0 7 8 18 18 26 9 8 11 11 3 8-9-5-8 1 4 19 10 14 21 26 26 26s9 5 9 11c0 5-6 7-12 4-7-4-4 1 6 9 11 9 16 16 11 16s-1 6 10 13c10 8 15 19 11 25-4 7-1 12 9 12 9 0 13 5 10 10-3 6-1 10 5 10s8 5 5 10c-3 6-1 10 4 10 6 0 10 6 9 13-2 6 2 11 9 10 7-2 10 4 7 12-4 8-1 15 6 15 6 0 9 4 5 9-3 5 1 15 8 23 24 25 50 71 36 63-8-3-6 0 4 8 9 8 17 19 17 26 0 6 5 11 10 11 6 0 9 3 8 8-3 16 15 42 25 35 6-4 8 0 4 10-3 10-2 17 4 17s7 5 4 10c-3 6-2 10 4 10 9 0 28 43 20 47-2 2 6 10 19 19s21 22 18 29c-2 7 2 16 10 19s13 11 12 18c-2 7 3 12 10 10 8-1 11 2 8 7-9 14 5 42 17 34 6-4 8 0 4 10-3 10-2 17 4 17s7 5 4 10c-3 6-1 10 5 10 8 0 29 37 32 60 1 3 8 10 17 17 9 6 13 15 9 19s5 18 20 32c15 13 21 21 15 18-7-4-13-3-13 2 0 6 7 12 15 16 8 3 15 12 15 21 0 8 5 15 11 15 5 0 7 5 4 10-3 6-1 10 6 10s10 3 6 6c-3 4 4 15 16 26s16 17 9 13c-6-3-12-1-12 4 0 6 5 11 11 11 5 0 15 14 20 30 6 17 15 30 21 30 5 0 6 5 3 10-3 6-2 10 4 10s13 11 17 24c3 14 12 27 20 30s14 14 14 24 9 28 20 40c12 12 18 22 14 22-3 0-1 7 6 15s9 15 4 15-1 5 9 11c9 6 15 14 12 20-4 5-1 9 4 9 6 0 11 7 11 15s3 15 8 15c4 0 16 18 26 40 11 22 23 40 27 40 5 0 6 7 3 15-4 8-1 15 5 15s11 7 11 15 4 15 10 15c5 0 12 11 16 25 3 14 10 25 16 25 5 0 6 5 3 10-3 6-1 10 4 10 6 0 11 7 11 15s5 15 11 15c5 0 7 5 4 10-3 6-1 10 4 10 6 0 11 7 11 15s5 15 10 15c6 0 9 3 9 8-3 20 2 33 11 27 6-4 10-3 9 2-4 15 20 63 31 63 6 0 9 4 5 9-3 5-1 12 5 16s8 11 5 16c-4 5-1 9 4 9 6 0 19 18 28 40 10 22 21 40 26 40 4 0 5 5 2 10-3 6-2 10 3 10 6 0 15 14 21 31 7 19 15 28 22 23 7-4 9-3 6 3-7 11 14 63 26 63 4 0 7 7 7 15s5 15 11 15c5 0 7 5 4 10-3 6-1 10 4 10 6 0 11 7 11 15s9 24 19 34c11 11 17 22 14 24-2 3 3 13 11 24 9 10 16 22 15 27 0 5 4 12 9 15 6 3 12 13 14 21s10 22 18 30 16 22 18 30 9 18 15 22c7 4 9 8 4 8-9 0 23 52 40 63 6 4 10 16 8 27s1 23 7 26c7 5 8 2 3-6-5-9-4-11 3-6 7 4 12 13 12 20s10 26 22 42c13 16 16 25 8 20-8-4-7-1 4 8 10 8 15 20 11 26-3 6-1 9 5 8 7-2 14 5 15 15 2 10 11 27 19 36 9 10 16 23 16 30 0 6 7 14 15 17 8 4 15 15 15 26 0 12 4 17 12 12 7-4 8-3 4 5-4 6 2 24 13 40 12 16 21 33 21 39 0 5 7 15 15 22s12 16 9 21 0 9 5 9c6 0 11 6 11 14s4 16 9 18 11 10 13 18 11 23 21 34 16 25 13 32c-2 6 9 24 24 41 16 17 26 34 23 37-4 3-1 6 6 6 8 0 11 7 7 15-3 8-1 15 4 15s17 16 26 35 21 35 26 35c6 0 7 7 4 15-3 9 1 18 8 21 12 5 30 45 23 51-1 1 6 8 16 15s19 23 20 35c0 12 3 20 6 18 7-7 30 28 31 47 0 9 10 24 22 32 12 9 17 16 10 16s-4 8 8 20c11 11 20 27 20 35s5 15 10 15c6 0 10 7 10 15s4 15 10 15c5 0 9 3 8 8-1 4 5 19 12 35 13 27 23 31 68 29 14-1 20 3 16 10-5 7-3 8 7 2 8-5 111-10 229-11 118 0 272-2 342-3 69-1 131 1 136 4 6 3 13 0 15-6 4-10 8-9 16 2 8 12 11 12 11 1 0-10 3-11 14-2s15 9 19-1 8-10 16 2 11 12 11 1 3-11 15-1c8 7 15 9 15 4s131-9 290-9 290-3 290-6 7-6 15-6 12 3 10 7c-3 5 72 5 85 0 3-1 10-1 15 0 22 5 93 2 104-4 6-4 11-2 11 4s4 9 8 6c18-11 62-14 67-5 4 5 13 5 24-1 12-6 22-5 29 2 8 8 12 8 12 2 0-12 29-12 48 0 6 4 12 3 12-1 0-5 9-9 20-10 13-1 18 2 14 9-4 6-3 8 3 5 20-12 84-17 77-6-4 8-1 8 12 1 21-10 76-8 95 3 7 5 10 4 6-1-7-12 152-13 170-1 6 4 14 3 18-3 3-5 17-10 31-10 18 0 23 4 18 13-6 9-4 9 7 1 8-7 67-11 146-12 73 0 137-3 142-6 5-4 12-2 16 3 3 7 15 7 30 1 13-5 26-6 29-2s32 5 65 2c38-4 62-2 65 5 3 6 5 5 5-2 1-9 8-10 26-3 14 5 25 6 25 2s44-6 97-5c62 1 103-3 112-10 10-8 13-8 8-1-5 8 41 11 168 10 109-1 175-5 175-11s3-6 8 0c4 6 16 11 27 11s23-5 27-11c5-7 8-7 8 1 0 11 60 12 78 0 7-4 12-3 12 2s15 8 33 5c40-5 54-5 95 0 18 3 35 0 38-4 3-5 14-5 24 1 13 7 21 7 25 0 5-8 11-8 19-1 7 6 16 8 20 4 9-10 36-13 36-4 0 4 9 7 20 7s20-3 20-6c0-4 7-7 15-7s15 4 15 9 6 6 12 2c17-11 48-12 48-3 0 5 10 5 23 1 24-9 56-8 80 1 8 3 18 3 21-1 4-3 152-7 329-9s329-3 337-3c8-1 51-1 94 0 44 0 82-2 84-5 3-3 11 0 19 6 7 6 13 8 13 3 0-10 132-10 149 0 6 4 11 3 11-2 0-12 63-10 72 3 5 7 8 7 8 0 0-6 107-10 300-10 183 0 300-4 300-9 0-6 5-5 11 1s23 8 43 3c17-4 42-3 54 1 14 5 22 4 22-2s5-7 12-3c14 9 58 12 58 4 0-3 22-5 49-5s47 3 44 7c-2 5 6 4 19 0 28-9 49-9 65 1 6 4 14 3 17-1 3-5 15-8 28-7 18 2 22 7 20 26-1 13-7 26-12 27-6 2-10 12-10 23 0 10-4 19-9 19s-15 16-22 34c-7 19-16 33-21 30-7-5-12 18-9 39 0 4-3 7-7 7-5 0-23 27-40 60-41 77-56 104-62 110-11 11-41 70-35 70 4 0 0 7-7 15-31 34-36 43-30 50 4 3-1 11-11 16-9 6-15 14-12 20 4 5 1 9-4 9-6 0-11 7-11 15s-5 15-11 15c-5 0-8 4-5 9s-1 14-9 21-15 21-15 31c0 11-4 19-9 19s-15 16-22 35-16 35-20 35-12 15-20 33c-7 17-15 34-18 37-4 3-13 19-21 35-8 17-17 32-20 35s-20 34-39 70-37 67-42 70c-4 3-9 12-11 20s-13 30-26 48-24 41-25 52-7 22-14 24c-7 3-13 12-13 21 0 8-4 15-9 15-8 0-24 37-22 53 1 4-4 7-11 7-6 0-8 3-5 6 4 4-3 15-14 25-11 9-20 21-20 26 1 12-23 63-30 63-3 0-11 16-19 35s-17 35-22 35c-4 0-8 9-8 20s-4 20-8 20c-5 0-14 16-22 35s-17 35-21 35-12 14-18 30c-5 17-15 30-20 30-6 0-10 3-9 8 4 13-13 52-23 52-5 0-8 3-8 8 3 19-2 33-11 27-6-4-7 1-3 11 5 13 3 16-10 11-11-4-14-2-11 7 3 8-9 35-25 62-17 26-31 54-31 61s-5 13-11 13c-5 0-8 4-5 9 4 5 2 11-3 13-5 1-11 10-13 18s-10 22-18 30-16 22-18 30-8 17-13 18c-5 2-7 7-4 12s-2 16-11 24c-8 9-13 16-9 16s-1 7-9 16c-9 8-13 20-10 26 4 7 2 8-4 4-7-4-12-1-12 8s-5 16-11 16c-5 0-8 4-4 9 3 5-1 16-9 24s-12 17-9 21c8 8 3 8-77 11-36 1-69 3-75 5-5 1-12 1-15 0s-76-3-162-4c-105-1-158 2-158 9s-3 7-8 0c-9-13-291-14-311-1-9 6-12 5-8-1 8-13-71-12-92 1-8 6-12 5-8 0z"/><path d="m5659 13201c-1-3-1-9 0-13 0-5-4-8-10-8-5 0-7-4-4-10 3-5-1-10-10-10s-14-4-10-9c3-5-2-16-11-25-8-9-12-20-9-26 3-5 2-10-2-10-11 0-59-79-55-91 1-5-2-9-7-9-10 0-18-14-57-90-10-19-24-40-32-45-7-6-14-20-15-32 0-12-4-20-8-18-3 3-14-13-24-35s-22-40-27-40c-4 0-8-6-8-14s-6-21-13-28-16-20-20-28-21-37-38-65c-16-27-33-58-36-67-3-10-9-18-14-18s-9-6-9-14-6-21-12-28c-7-7-20-26-28-43-8-16-17-32-20-35-12-11-40-60-35-60 4 0-1-7-9-16-9-8-16-22-16-30s-3-14-8-14c-4 0-16-17-27-37-11-21-22-40-25-43s-17-26-30-52c-14-27-28-48-32-48-5 0-8-5-8-11s-9-23-20-39c-11-15-17-30-13-34 3-3 1-6-5-6-7 0-12-6-12-14s-4-16-10-18c-5-1-11-13-13-25s-7-26-12-30c-4-5-5-1-1 7s0 6-8-4c-9-11-16-26-16-33s-4-13-9-13-11-8-14-17c-4-10-18-36-32-58-13-22-28-47-32-55-3-8-14-27-24-41s-16-29-12-33c3-3 1-6-5-6s-18-13-26-30c-9-16-23-43-32-60-8-16-20-32-25-36-5-3-17-23-26-45-8-21-19-39-24-39s-9-7-9-15-8-23-18-33-16-24-14-30c2-7-1-12-7-12s-11-7-11-15-5-15-11-15c-5 0-7-5-4-10 3-6-1-13-9-16-9-3-13-10-10-15s1-9-4-9c-9 0-25-37-23-52 1-5-4-8-9-8-6 0-16-12-23-27-6-16-17-34-24-41-7-8-11-17-8-22 3-4-2-11-11-14-9-4-14-9-11-12 3-4-1-13-9-21s-12-18-9-23c3-4-2-10-10-14-8-3-15-12-15-21 0-8-3-15-8-15-4 0-13-13-20-30-7-16-24-45-37-65-14-19-21-35-17-35s2-4-4-8-25-31-41-59c-16-29-32-51-34-48-3 2-6-5-6-17-1-12-6-24-10-27-10-7-27-35-49-78-9-18-20-33-25-33s-9-9-9-20-3-20-7-20c-5 0-21-26-38-58-16-31-37-62-45-69s-11-13-6-13c4 0-3-15-18-34-14-19-26-39-26-44s-9-19-20-32c-11-12-17-27-14-31 3-5 0-9-6-9s-9-4-5-9c3-6-3-14-12-20-10-6-13-11-8-11 6 0 6-3-1-8-15-10-75-112-66-112 4 0 2-4-4-8-19-13-54-79-46-87 4-5 2-5-4-2-11 6-29-19-26-35 1-5-3-8-8-8-6 0-10-5-10-10 0-6-16-36-35-66s-35-56-35-59c0-5-45-75-60-92-6-7-10-14-10-15 3-8-16-46-32-62-9-10-15-23-12-28 3-4 2-8-3-8-4 0-19-21-33-47-13-27-27-50-30-53-15-14-68-110-57-104 6 4 0-5-15-21-16-15-28-36-28-47 0-10-7-21-15-24-8-4-15-12-15-20s-4-14-10-14c-5 0-9-3-8-7 2-10-14-47-23-53-9-7-48-71-55-92-4-10-11-18-16-18s-6-4-3-10c3-5 2-10-3-10s-12-8-16-17c-8-23-48-94-75-131-11-17-21-35-21-41s-5-11-11-11c-5 0-7-4-4-10 3-5 2-10-2-10-5 0-13-9-18-20-30-60-69-125-81-137-8-8-14-21-14-29s-5-14-11-14c-5 0-7-5-4-10 3-6-1-13-9-16-9-3-14-10-11-14s-2-13-10-20-12-16-9-21 1-9-4-9-15-12-23-27c-8-16-26-46-40-68-15-22-30-50-33-62-4-13-12-23-17-23-6 0-8-4-5-9s-1-12-9-15-14-9-13-13c2-12-24-63-33-63-4 0-10-11-13-25-4-14-11-25-16-25-6 0-10-6-10-14 0-7-9-25-20-38-10-14-16-28-13-32 3-3 1-6-5-6-7 0-12-6-12-13s-9-23-19-34c-11-12-18-23-15-26 2-2-2-10-11-17-8-7-15-19-15-26 0-8-5-14-11-14-5 0-8-4-5-9 4-5 1-11-4-13-6-2-12-13-13-25 0-12-4-20-9-17-4 2-12-5-18-16s-8-20-5-20c2 0-3-9-13-20-9-12-16-23-14-26s-6-14-17-23c-11-10-18-21-14-25 3-3 0-6-7-6s-10-3-7-6c4-4-1-19-11-33-45-69-85-141-88-159-1-7 4-16 12-19s14-11 14-18c0-16 41-88 52-93 4-2 8-12 8-23 0-10 4-19 9-19 10 0 37-60 33-73-1-5 2-6 8-2 5 3 10 1 10-4 0-18 3-26 17-39 7-8 11-18 8-23-4-5-1-9 4-9 6 0 11-6 11-14 0-7 10-21 23-30 12-9 16-14 8-10-9 4-12 2-9-7 3-8 11-13 17-12 6 2 11 0 10-5-2-15 14-52 21-47 4 3 7-3 6-13 0-9 4-16 11-15 7 2 10-4 6-13-3-8 3-22 13-30 11-9 13-13 6-9-7 3 1-14 18-38 16-25 30-49 30-54s8-18 18-29c19-20 22-26 22-45 0-5 5-7 12-3 6 4 8 3 4-4-9-14 14-63 27-55 6 3 7 1 3-5s2-20 12-30 16-24 14-30c-2-7 1-12 8-12 6 0 8-4 5-10-3-5-2-10 3-10s12-9 15-21c4-13 10-18 18-13 7 4 10 3 5-4-7-12 14-63 24-57 4 2 7-2 8-10s3-22 4-30 5-15 9-15 22-29 41-65c18-36 36-65 41-65 4 0 5-4 2-10-3-5-1-10 5-10 7 0 9-7 6-16-3-8-2-12 4-9s10-1 10-9c0-9 5-16 11-16 5 0 8-4 4-9-3-5 2-16 10-24 8-9 15-20 15-26s5-11 11-11c5 0 8-4 4-9-3-5 2-16 10-25 9-8 17-19 18-23s4-7 7-6 7-10 8-23c1-14 8-32 16-40s18-23 21-34 11-20 16-20c6 0 7-5 4-10-3-6 0-12 7-15 8-3 14-15 15-26 1-12 9-29 17-38 9-10 16-23 16-30s5-9 12-5c8 5 9 2 5-9-3-10-2-17 4-17s7-4 4-10c-3-5-2-10 3-10 6 0 15-14 21-30 5-17 15-30 20-30 6 0 8-7 5-15-4-8-2-15 3-15s22-27 38-60c17-33 34-60 38-60 5 0 5-5 2-10-3-6-1-10 4-10 6 0 11-7 11-15s4-15 8-15c5 0 14-16 22-35s17-35 22-35c4 0 7-3 7-7-3-18 2-31 21-51 12-12 19-22 16-22s11-27 30-61c18-33 34-65 34-70s4-9 8-9c5 0 23-31 41-70 19-41 37-67 44-63 5 3 7 1 3-5-3-6-2-13 4-17s8-11 5-16c-4-5-1-9 4-9 6 0 11-9 11-20s7-20 15-20 14-3 13-7c-4-15 13-53 23-53 6 0 8-3 6-7-2-5 4-21 14-38 10-16 26-45 35-63 9-17 21-32 26-32s6-4 3-10c-3-5-1-10 5-10 7 0 10-7 6-15-3-8-1-15 4-15 6 0 10-7 10-15s3-15 8-15c4 0 13-15 21-32 8-18 17-35 20-38 4-3 12-16 19-30 41-79 60-109 66-103 4 4 4-1 0-11-5-13-4-17 4-12s10 2 6-8c-3-9-1-16 5-16s11-9 11-21c0-15 5-19 16-15 8 3 12 2 9-4-3-5 9-35 26-67 18-32 38-68 44-80 7-13 15-20 19-16s4 1 1-8c-3-8 3-26 15-39 18-21 21-28 19-46 0-3 9-14 20-23 11-10 17-21 13-25s2-14 12-22c11-8 16-14 12-14s2-14 14-30 18-30 13-30c-4 0-1-6 7-13 9-7 22-27 29-45 7-17 18-32 23-32s7-4 3-9c-3-5 1-16 9-24s13-17 10-20 3-11 14-18c12-8 17-19 14-32-3-14-1-18 6-13 8 5 12-1 12-14 0-12 4-18 10-15s10-3 10-14c0-12 5-21 11-21 5 0 8-4 4-9-3-5 2-17 11-25 8-9 12-16 7-16-4 0-3-4 2-8 6-4 16-20 23-35s17-25 22-22c6 3 7-1 4-9-4-10-1-16 7-16 7 0 9-3 6-6-6-6 18-59 33-74 3-3 16-26 30-52 13-27 28-48 33-48 4 0 5-4 2-10-3-5-1-10 5-10s9-4 5-9c-3-5 1-15 8-23 7-7 25-37 41-67 39-77 50-95 57-101 4-3 9-15 13-28 4-12 12-20 17-17s6-1 3-9c-3-9-1-16 5-16s11-7 11-16 5-12 12-8 8 3 4-4c-10-16 12-54 26-46 7 4 8 2 4-5-4-6 0-23 8-36 9-14 14-25 10-25-3 0 4-9 17-21 13-11 18-18 11-14-6 3-3-10 9-29 12-20 25-36 31-36 5 0 6-5 3-11-4-5 1-19 11-30 9-10 13-19 8-19s-1-5 9-11c9-5 17-19 17-30s7-22 15-25c8-4 12-10 9-15s0-9 6-9 8-4 5-10c-3-5 1-10 11-10 13 0 14-3 5-14-7-8-8-15-2-18 5-1 25-32 45-68 19-36 40-64 45-63 6 2 8-4 5-12-4-8-1-15 5-15s8-7 5-15c-4-8-1-15 4-15 6 0 14-10 18-22 3-12 13-28 20-36 8-7 12-18 9-23-4-5-1-9 4-9 6 0 11-7 11-15s5-15 10-15c6 0 10-9 10-20s3-20 8-20c4 0 12-10 18-23 24-49 59-112 65-117 4-3 9-15 13-28 4-12 12-20 17-17s6-1 3-9c-3-9-1-16 5-16s10-6 9-12c-2-7 2-12 9-11 7 2 10-3 7-11-3-7 2-20 10-29 8-8 12-17 9-21-4-3-1-6 6-6s9-4 6-10c-3-5-1-10 4-10 6 0 11-7 11-15s5-15 11-15c5 0 8-4 5-9s7-21 22-37c15-15 21-24 15-20-7 4-13 2-13-3 0-6 5-11 10-11 6 0 10-5 10-11 0-22 27-35 75-34 28 0 53-4 57-10 5-6 8-4 8 5 0 13 1 13 10 0 7-11 10-11 10-2 0 7 4 11 9 8s66-8 137-11c70-3 129-7 132-10s11 0 18 6c8 7 14 7 19-1 3-5 11-10 16-10 6 0 7 5 3 12-5 7-3 8 6 3 13-8 71-12 247-18 28-1 55-5 58-9 4-4 15-4 24 1 20 9 52 8 69-2 7-5 12-4 12 3 0 6 5 8 13 3 17-11 57-12 57-1 0 5 7 5 18 0 16-8 81-12 289-15 51-1 93-6 93-10s9-3 19 3c14 7 21 6 24-3s7-9 20 2c10 7 17 9 17 4s11-10 26-11c16-1 23 2 18 9-4 8-1 8 12 2 17-8 52-11 234-17 25-1 50-5 57-9 6-4 14-3 17 1 6 10 36 9 54-2 6-4 12-4 12 1 0 4 11 8 25 8s25-3 25-6c0-10 44-5 52 6 5 6 8 6 8-1s18-11 48-10c26 1 57-2 70-6s22-3 22 3 7 6 18 2c9-5 53-8 97-8s83-4 87-10c5-6 8-5 8 2 0 9 7 10 25 3 16-6 25-6 25 0s10 6 27-1c19-7 28-6 33 2 4 6 10 7 13 2s19-10 36-11c24-2 29 1 28 18-1 11-7 22-15 25-7 3-10 9-7 15 3 5 3 10-2 10-9 0-39 61-35 73 1 5-1 6-6 3s-15 10-22 29c-8 19-17 35-22 35-4 0-8 9-8 20 0 10-8 23-17 29-10 5-17 12-16 15 3 11-10 46-17 46-5 0-13 14-19 30-5 17-14 30-19 30s-12 13-15 29-13 36-22 45-13 16-9 16-1 7-12 16c-10 8-12 12-4 8 8-5 5 4-8 20-12 16-22 35-22 42 0 8-4 14-9 14s-15 16-22 35-17 35-22 35c-4 0-5 5-2 10 3 6 1 10-5 10s-9 4-6 9c4 5 2 11-3 13-5 1-11 10-13 18-3 14-7 20-35 54-6 7-9 17-6 20 4 3 0 6-7 6s-11 3-7 6c3 4-9 31-28 60-19 30-35 61-35 68 0 8-7 16-15 20-9 3-12 12-8 22 4 12 3 15-5 10-7-4-12-1-12 9 0 9-7 23-15 32-8 8-13 18-10 23 3 4-2 11-11 14-8 3-12 10-9 16 3 5 1 10-4 10-6 0-11 7-11 15s-5 15-11 15c-5 0-8 4-4 9 3 5-2 17-11 25-8 9-12 16-8 16s0 8-9 18c-10 10-14 22-10 25 3 4 1 7-5 7-10 0-30 36-42 75-2 6-10 15-19 22s-12 13-8 13c5 0 1 7-7 16-9 8-14 20-11 25 4 5 1 9-4 9-6 0-11 7-11 16 0 8-4 13-9 9-6-3-8 4-6 15s0 18-5 15-12 6-16 20c-3 14-10 25-16 25-5 0-6 4-3 10 3 5 1 10-5 10s-8 4-5 10c3 5 2 10-3 10-6 0-17 18-26 40s-21 40-27 40-9 6-6 14 2 16-3 18-10 10-12 18-11 23-20 34c-10 11-18 26-18 33s-5 13-11 13c-5 0-8 4-4 9 3 6-3 14-12 20-10 6-14 11-9 11s-1 12-15 27c-18 21-19 24-4 13 17-12 16-10-2 11-13 14-23 33-23 43 0 9-5 14-10 11-6-3-10 1-10 10s-9 29-19 44c-11 15-21 34-23 42s-10 19-18 26-11 13-7 13c5 0 1 7-7 16-9 8-14 19-11 24 3 4-2 11-11 14-8 3-13 10-9 15 3 6-2 14-11 19s-15 11-13 13c6 11-14 48-23 43-6-4-8-2-4 4 3 6 2 13-4 17s-8 11-5 16c4 5 1 9-4 9-6 0-11 7-11 15s-4 15-10 15c-5 0-10 9-10 20s-4 20-10 20c-5 0-10 7-10 15s-5 15-11 15c-5 0-7 5-4 10 3 6 1 10-5 10-7 0-10 6-7 14s-1 17-9 20c-9 3-12 10-9 16 3 5 1 10-4 10-6 0-11 7-11 16 0 8-5 12-10 9-6-3-10 3-10 14s-7 27-16 35c-8 9-13 20-10 24 3 5-4 14-14 22s-17 17-14 22c3 4-1 15-8 23-35 39-39 45-27 45 7 0 2 9-10 19-12 11-22 22-22 25 3 24 0 36-8 31-5-3-15 10-21 29s-16 36-21 38c-6 2-11 12-13 21-1 10-8 22-15 26-7 5-12 10-12 12 2 13-13 49-20 49-5 0-9 6-9 13s-8 22-18 33-17 25-14 32c2 6-5 12-15 12-15 0-16 2-3 10 8 5 10 10 4 10-5 0-16 16-24 35s-17 35-22 35c-4 0-8 7-8 16s-5 12-12 8-8-3-4 4c7 11-19 60-39 74-5 4-6 8-1 8s2 8-7 18c-10 10-14 22-10 25 3 4 1 7-6 7s-9 5-6 10c3 6 1 10-6 10s-10 3-6 6c3 3-3 14-14 25s-17 24-14 29c4 6 2 10-3 10-6 0-13 11-16 25-4 14-11 25-17 25s-7 5-4 10c3 6 1 10-5 10s-8 5-5 10c3 6 1 10-4 10-6 0-10 6-9 13 2 6-2 11-8 10s-11 5-12 13c-1 7-3 21-4 29s-5 12-9 9c-5-3-11 7-15 21-3 14-10 25-16 25-5 0-6 5-3 10 3 6 1 10-5 10s-8 4-5 10c3 5 1 10-4 10-6 0-11 7-11 16 0 8-4 12-10 9-5-3-7 0-5 8 3 7-3 24-14 36-12 13-18 28-15 32 3 5 0 9-5 9-6 0-11 7-11 15s-5 15-11 15-8 7-5 15c3 9-1 18-8 21-8 3-22 23-30 45-9 21-21 39-27 39-5 0-8 4-4 9 3 5-1 16-9 24s-12 17-9 21c4 3 1 6-6 6s-9 5-6 10c3 6 1 10-6 10s-10 3-6 6c3 4-4 15-16 26s-16 17-9 13c18-9 15 3-8 27-11 12-20 28-20 35s-5 13-11 13c-5 0-8 4-4 9 3 5 1 12-4 15-15 10-50 84-43 92 4 4 1 4-5 0-9-5-13 0-13 14 0 12-4 18-10 15-9-5-15 16-11 38 1 5-3 6-9 2-5-3-10-1-10 6s-8 21-17 32c-10 12-12 17-4 12 7-4 3 7-10 26s-27 35-31 37-4 10-1 19c4 11 2 14-5 9-11-6-17 12-13 37 1 5-3 6-9 2-5-3-10 2-10 12 0 11-4 23-10 29-19 19-79 124-67 118 7-3 5 0-3 8-8 7-22 27-30 43-8 17-19 33-25 37-5 4-6 8-2 8 5 0 1 7-8 16s-14 23-11 30c3 8 0 13-7 11-7-1-11 4-9 11 1 6-3 12-9 12-5 0-7 5-4 10 3 6 1 10-4 10-6 0-11 7-11 15s-4 15-10 15c-5 0-10 9-10 21 0 11-5 17-10 14-6-3-10 3-10 14 0 12-6 21-12 21-10 0-9 3 1 9 11 7 9 10-7 15-12 4-19 13-16 20s-2 19-11 26c-8 7-15 19-15 27s-4 12-8 9c-4-2-9 5-9 17-1 11-9 24-17 29-9 5-13 15-9 25 4 11 3 14-5 9-7-4-12-1-12 9 0 9-7 23-15 32-8 8-13 19-10 24 4 5 1 9-4 9-6 0-11 10-11 23 0 18-2 19-10 7s-10-11-10 8c0 12-5 22-11 22-5 0-8 4-4 9 3 5-1 16-9 24s-12 17-9 21c4 3 0 6-7 6s-11 3-7 6c3 3-3 15-14 27-10 11-19 29-19 39s-4 18-10 18c-5 0-10 9-10 21 0 11-4 17-10 14-5-3-10 3-10 14 0 12-5 21-11 21-5 0-7 4-4 10 3 5 2 10-3 10-10 0-36 53-32 66 1 4-5 11-14 16s-16 16-16 23c0 8-5 15-11 15-5 0-8 4-4 9 3 5 1 12-5 16s-7 11-4 17c4 6 2 8-3 5-6-4-17 8-24 26-7 17-19 38-26 45-7 8-11 18-8 23 4 5 1 9-4 9-6 0-11 11-11 25s5 25 11 25c5 0 7 5 4 10-3 6-2 10 2 10 5 0 17 17 28 38 11 20 22 39 25 42s14 22 25 43c11 20 23 37 27 37 5 0 8 7 8 15s5 15 11 15c5 0 8 4 4 9-3 5 0 15 7 23 18 18 61 88 76 121 6 15 16 27 21 27 6 0 8 7 4 15-3 10-1 15 7 13 7-2 14 6 16 17 1 11 8 21 13 23 6 2 11 10 11 19 0 8 6 21 13 28 28 32 37 45 37 52 0 4 13 28 29 52 17 25 27 49 24 54-3 6-1 7 4 4 6-4 16 7 23 23 7 17 17 30 22 30s8 6 6 12c-4 12-1 19 32 57 8 10 16 24 18 32s8 16 13 17c5 2 9 8 9 13s17 35 37 66c21 32 38 60 38 63s10 19 23 37c12 17 22 36 22 42s5 11 11 11c5 0 8 4 4 9-3 6 1 13 9 18 8 4 14 10 14 13-1 3 10 23 24 45s37 62 51 90c15 27 27 45 27 40s11 10 24 35 22 49 18 54c-3 5-1 6 5 3 10-6 38 40 35 56-1 4 3 7 8 7 6 0 15 10 20 23 17 38 62 112 74 119 6 4 8 8 4 8s0 9 10 20c9 12 17 25 17 30 0 4 10 20 22 34 13 14 21 26 18 26-5 0 114 192 124 200 3 3 7 12 9 20s17 34 33 58c16 23 29 47 29 51 0 5 7 14 15 21 9 7 13 15 11 17-3 3 4 14 15 26 10 11 19 27 19 34s3 13 8 13c4 0 13 14 20 30 8 17 19 36 26 43 6 6 17 23 24 37s23 43 37 65 31 50 37 63c6 12 15 22 19 22s10 11 13 24c3 14 12 31 19 38 18 21 36 50 50 81 6 15 15 27 19 27s8 7 8 15 4 15 9 15 13 10 17 23c4 12 15 33 25 46s16 28 12 34c-3 5-2 7 4 4 9-6 49 60 45 76-1 4 3 7 9 7 5 0 17 16 25 35 8 20 21 38 29 41 7 3 11 12 8 20s-1 14 4 14c4 0 17 17 28 38 10 20 25 45 33 54 14 16 30 44 73 126 13 23 27 42 31 42s8 5 8 11 9 22 20 36 17 29 14 34 2 12 10 15c9 3 16 12 16 20s5 14 10 14c6 0 10 7 10 15s5 15 11 15c5 0 7 5 4 10-3 6-1 10 5 10s9 4 6 9 1 14 9 21 25 32 37 56 26 44 30 44c5 0 7 4 4 9-3 4 3 16 14 26s17 22 14 26c-3 5 0 9 6 9s8 5 5 10c-3 6-2 10 3 10s17 17 28 38c10 20 24 40 29 44 6 4 10 12 10 18s7 15 15 20 11 12 8 16c-4 3-2 12 5 20 22 24 32 40 35 53 1 7 11 22 22 33 11 12 17 24 15 28-3 5 2 11 11 14 8 3 12 10 9 16-3 5-1 10 4 10 6 0 11 7 11 15s5 15 11 15c5 0 7 4 4 10-3 5 3 15 14 21 11 7 17 19 13 27-3 10-1 13 6 8 8-5 12 0 12 13 0 12 5 21 11 21 5 0 7 5 4 10-3 6-2 10 3 10s15 12 23 28c7 15 26 46 42 70 15 23 25 42 22 42s3 10 15 22c11 12 20 28 20 35s5 13 10 13c6 0 10 7 10 15s5 15 11 15c5 0 7 5 4 10-3 6-2 10 4 10 10 0 27 39 23 53-1 5 1 6 6 3s18 12 28 34 22 40 27 40c4 0 7 5 7 11 0 7 16 36 35 65s35 57 35 63 4 11 10 11c5 0 12 11 16 25 3 14 10 25 15 25s9 5 9 11 14 30 30 55c17 24 28 44 24 44s0 6 11 13c11 9 15 19 10 27s-4 11 2 7c10-6 25 14 27 36 1 4 6 11 12 15s17 22 25 40c8 17 17 32 21 32 5 0 8 7 8 15s5 15 10 15c6 0 10 7 10 15s5 15 11 15c5 0 8 4 5 8-3 5 4 19 15 30 11 12 17 22 14 22-4 0 1 7 9 16 9 8 14 20 11 25-4 5-2 9 2 9 10 0 49 62 45 73-1 4 2 7 7 7s13 9 16 20 12 26 18 33c17 18 47 69 54 90 3 9 9 17 14 17s9 7 9 15 5 15 11 15c5 0 7 5 4 10-3 6-1 10 6 10s10 3 6 6c-3 3 3 15 14 27 10 11 19 28 19 36 0 16-74 21-397 24-51 1-83 5-83 11 0 7-3 8-8 1-8-11-112-15-112-4 0 4-13 4-30-1-21-6-30-5-30 3 0 7-4 6-10-3-7-11-10-11-10-2 0 10-5 10-20 2-11-6-20-7-20-3s-60 8-133 8c-72 0-153 3-179 6-27 3-52 1-58-5s-10-6-10 0c0 5-54 9-128 9-70 0-132 3-139 8-6 4-14 3-18-3-3-6-11-7-17-4-18 11-68 10-68-1 0-7-3-7-8 0-9 13-82 15-82 2 0-5-7-4-16 4-12 10-20 10-34 1-11-6-21-8-24-3s-27 8-53 7c-27-1-56 2-65 6-9 5-19 4-23-2-3-5-12-7-19-4-8 3-66 6-129 7-64 1-119 5-123 9-3 4-14 4-23-1-19-9-32-8-48 2-7 5-13 4-13-1s-7-9-15-9-15 5-15 10-6 4-14-2c-8-7-16-8-19-4-6 10-59 9-75-1-6-3-13-2-17 4-4 7-12 7-24 0-10-5-22-6-26-2-8 8-154 11-156 3z"/><path d="m18404 12443c-4-16-7-31-6-35 1-5-3-7-10-5-7 1-13-2-13-8-3-20-28-65-37-65-5 0-6-4-3-10 3-5 1-10-5-10-7 0-10-6-7-13s-4-19-14-26c-11-6-17-16-14-21 3-6 1-10-5-10s-9-4-5-9c3-6-3-14-12-20-10-6-14-11-10-11 5 0-1-13-12-29-12-16-21-34-21-40 0-5-7-14-16-19s-16-13-16-18c-2-24-11-44-20-44-5 0-6-4-3-10 3-5 1-10-4-10-6 0-11-7-11-15s-5-15-11-15-9-6-6-14-1-17-9-20-14-12-14-21c0-8-5-15-11-15-5 0-7-4-4-10 3-5 1-10-4-10-6 0-11-7-11-15s-9-24-19-34c-11-11-17-22-13-25 3-3 0-6-6-6-7 0-12-3-11-7 2-13-13-53-20-53-3 0-12-9-19-21-11-17-11-20 0-14 7 3 5 0-4-8-10-8-18-19-18-24 0-6-7-16-15-23-13-11-13-15-3-21 10-7 9-9-4-9-10 0-18-6-18-14 0-7-7-19-15-26s-12-16-9-21 0-9-6-9-8-4-5-10c3-5 1-10-4-10-6 0-11-6-11-14s-7-16-15-20c-8-3-14-9-13-13 4-15-13-53-24-53-5 0-8-7-4-15 3-8 2-14-2-12-4 1-7 0-7-3s-10-19-23-37c-12-17-22-36-22-42s-3-11-8-11c-8 0-38-61-34-72 1-5-2-8-7-8s-13-9-16-20c-4-11-11-17-17-14-6 4-8 2-4-4 3-6 2-13-4-17s-8-11-5-16c4-5-1-12-9-15-9-3-13-10-10-15s0-9-6-9-9-4-6-9-1-12-10-15c-8-3-13-10-10-15 3-4-3-19-14-31-23-27-25-34-7-25 6 4 3-1-7-9-11-9-16-16-10-16 5 0 1-5-9-11-9-6-15-14-12-20 4-5 1-9-4-9-6 0-11-7-11-15s-5-15-11-15c-5 0-8-4-4-9 3-5 0-13-6-17-6-3-17-22-25-40-8-19-19-34-25-34-5 0-8-4-5-9s-1-14-9-21-12-16-9-21 0-9-6-9c-7 0-9-7-6-16 3-8 2-12-4-9-5 3-12-6-16-20-3-14-10-25-14-25s-22-29-40-65c-18-35-37-62-41-59-5 3-6-2-3-10 3-9 1-16-6-16-6 0-8-4-5-10 3-5 1-10-5-10s-8-4-5-10c3-5 3-10-2-10-9 0-39-61-35-73 1-5-2-6-7-3s-15-2-22-11c-10-12-10-14-1-9 6 4 12 3 12-2 0-6-7-13-16-16-9-4-14-9-11-13 4-3-1-12-11-20-11-10-12-12-2-8s9 2-2-8c-10-8-18-19-18-26 0-6-4-11-10-11-5 0-6-7-3-17 4-11 3-14-5-9-7 4-12 1-12-8 0-8-7-22-16-30-8-9-13-16-9-16 3 0-3-13-14-29-11-15-25-40-31-55-5-14-14-26-20-26s-8-4-5-10c3-5 1-10-5-10s-9-4-5-9c3-6-3-14-12-20-10-5-17-13-17-18 1-4-6-24-17-44-10-20-16-39-14-43 3-3 2-4-2-1-6 5-47-52-48-68 0-4-6-11-13-16-8-5-13-10-11-12 4-8-13-49-21-49-4 0-13-12-19-27-17-41-73-137-85-145-6-4-7-8-3-8s-6-20-23-44c-16-25-30-48-30-51 0-4-9-20-21-36-11-16-17-29-12-29 4 0 0-5-10-11-9-6-15-14-13-18 3-4-3-17-14-28-10-12-16-24-12-28 4-3-1-11-11-16-9-6-15-14-12-20 4-5 2-9-3-9-6 0-15-12-21-27-6-16-20-41-31-58-11-16-28-46-37-65-10-19-21-36-25-38-5-2-8-10-8-18s-5-14-11-14c-5 0-8-4-4-9 3-5 1-12-4-15-5-4-31-46-57-94s-51-88-56-90c-4-2-8-10-8-18s-9-23-20-34-20-22-19-25c1-12-26-65-34-65-5 0-5-5-2-10 3-6-1-13-9-16-9-3-13-10-10-15s1-9-4-9c-4 0-14-16-22-35s-17-35-22-35c-4 0-8-6-8-14s-7-22-16-31-14-18-11-22c3-3-2-14-12-25-10-10-29-40-42-66s-30-53-37-60c-6-8-10-18-7-23 4-5-1-9-9-9-9 0-13-6-10-13 2-7-6-25-20-40s-22-27-19-27 0-6-6-13c-6-8-8-17-4-20 3-4-2-9-11-13-9-3-13-10-10-15s1-9-5-9c-5 0-13-10-17-22-3-13-15-35-26-50-11-16-16-28-11-28 4 0 0-5-10-11-9-6-15-14-12-20 4-5 1-9-4-9-6 0-11-6-11-14 0-7-6-19-14-26-8-6-12-19-9-28s3-14-1-10c-11 10-34-14-29-29 3-7 0-13-6-13s-11-4-11-9c0-19-77-141-84-134-4 4-4 0-1-8 3-9-1-22-10-29-8-7-15-18-15-26 0-19-46-84-54-76-4 3-4-1 0-11 3-10 1-17-6-17-6 0-8-4-5-10 3-5 1-10-4-10-6 0-11-6-11-13s-10-24-22-37c-13-14-21-25-19-25 8 0-11-45-19-45s-26-41-21-48c1-1-5-10-14-18-8-9-13-20-9-25 3-5 0-8-8-7-7 2-12-2-11-9 1-6-4-17-12-23-8-7-15-18-15-25s-7-18-15-25c-8-6-14-15-13-18 2-20-3-32-12-27-5 3-10-3-10-14s-7-24-16-29-16-13-16-18c0-18-39-84-49-84-6 0-9-7-5-15 3-8 1-15-5-15s-7-5-4-10c3-6-1-13-9-16-9-3-13-10-10-15s0-9-5-9c-6 0-11-9-11-19s-7-22-16-25c-8-3-12-10-9-16s-1-13-9-16c-9-3-13-10-10-15s1-9-5-9-7-7-4-17c4-10 2-14-4-10-7 4-16-7-23-28-6-19-15-35-19-35s-13-16-21-35c-10-26-17-32-26-24-8 7-14 7-19-1-5-7-11-8-19-1-7 6-17 6-26 1-8-5-19-6-25-2-18 11-44 12-50 2-4-6-12-7-18-3-17 11-57 11-63 1-3-4-11-5-17-1-20 13-157 12-150-1 5-8 3-8-8 0-8 7-65 11-145 11-73 0-137 3-143 7s-11 3-11-3-6-8-12-6c-7 3-222 7-478 9s-469 5-475 6c-5 1-12 1-15 0-20-7-40-7-40 2 0 6-7 4-17-3-13-11-17-11-20-2s-10 10-24 3c-14-8-19-7-19 2 0 8-3 9-8 3-10-14-32-17-32-5 0 6-9 6-25 0s-26-6-31 1c-4 6-11 6-21-2-9-8-17-9-21-3-8 11-22 12-39 1-8-5-13-4-13 3s-6 8-19 1c-10-6-21-8-23-5-9 8-79 11-84 3-3-5-16-4-30 1-32 13-37 12-29 0 4-6-2-7-17-2-13 4-177 7-365 7-189 0-343 4-343 8 0 5-5 5-11 2-9-6-219-7-341-1-28 1-48-3-48-9s-3-7-8 0c-10 14-133 14-124 0 4-6 1-6-9 1-8 5-36 9-64 9-27-1-53 3-57 9-6 8-8 8-8-1 0-12-17-12-36 0-6 3-14 3-18 0-11-12-48-14-61-3-6 5-15 7-19 3-10-11-116-11-116-1 0 5-6 6-12 1-19-11-37-12-44-2-3 5-10 7-15 4-16-10-89-13-89-3 0 5-8 4-19-1-10-6-21-7-25-4-7 7-66 10-66 3 0-3-11-5-25-5s-25 3-25 7c0 8-34 3-50-7-6-3-10-2-10 3 0 6-14 7-34 2-19-4-37-5-40-2-11 10-61 8-68-2-6-8-11-7-17 2-9 15-20 15-38 1-7-7-13-6-18 0-6 11-32 10-50-1-6-4-17-3-25 2-9 5-19 5-26-1-8-7-14-6-19 1-3 5-11 10-16 10-6 0-7-5-3-12 5-7 3-8-7-2-21 13-120 13-112 0 4-7 2-7-8 0-8 7-27 12-44 12-16 0-36-5-44-12-9-6-12-7-8 0s-26 11-94 11c-73 1-97-2-92-10 5-9 3-9-8 0-8 6-40 11-72 12-32 0-62 3-67 6-6 3-10 3-10-2 0-4-36-6-80-3s-80 2-80-2-6-5-12-3c-27 10-89 12-94 3-3-4-10-5-16-2-6 4-66 7-134 7-81 0-124 4-124 11 0 8-3 8-8 1-9-14-344-14-354 0-5 6-8 6-8-1 0-6-7-11-15-11s-15 3-15 7-7 7-15 7-12-4-9-9c7-10 1-10-30 2-14 5-26 6-26 1 0-11-34-10-42 2-4 7-11 7-20 0-7-6-22-9-33-7-35 7-49 7-67-1-11-4-18-3-18 3s-9 9-20 7c-27-5-40-14-40-26 0-6 5-7 10-4 6 3 10-1 10-9 0-9 5-16 11-16 5 0 8-4 4-9-3-5 1-16 10-24 8-8 16-21 17-28 2-7 12-22 23-32s14-16 8-12c-19 9-16-3 7-27 11-12 20-28 20-35s5-13 11-13c5 0 8-4 4-9-3-5-1-12 4-16 9-5 21-26 62-107 10-20 23-40 29-43 6-4 8-11 5-16-4-5-1-9 5-9s8-5 5-10c-3-6 2-10 12-10 15 0 16-2 3-10-8-5-10-10-4-10s19-18 29-40 22-40 27-40 6-4 3-10c-3-5-1-10 5-10s9-4 6-9c-4-5-3-11 1-13 5-1 21-28 37-58s35-62 42-71c8-8 14-23 14-32s4-17 9-17 15-16 22-35 16-35 19-35c4 0 12-16 20-35s17-35 22-35c4 0 8-9 8-20s5-20 10-20c6 0 10-6 10-13s9-23 20-35c12-12 18-22 14-22s0-8 9-17c8-10 15-20 14-23-1-8 76-144 86-151 5-3 7-9 5-12-1-4 5-15 14-27 10-11 15-20 11-20-3 0 2-9 12-20s15-20 11-20 1-12 11-27c10-16 28-45 38-65 11-21 23-38 27-38 5 0 7-3 7-7-4-25 3-43 17-43 8 0 13-4 10-9s4-20 15-35c11-14 17-30 14-36-4-6-1-9 7-8 8 2 12-4 10-14s1-18 5-18c5 0 22-27 38-60 17-33 34-60 38-60 5 0 5-5 2-10-3-6 1-13 9-16 9-3 16-17 16-30 0-14 6-24 15-24 8 0 12-6 9-13-2-7 4-22 15-34 11-11 17-24 14-27-4-3 0-6 7-6s11-3 7-6c-3-4 1-13 9-21s12-19 9-24c-4-5-2-9 3-9s21-25 37-55c15-31 32-52 38-48 5 3 7 1 3-5-7-12 13-62 26-62 4 0 7-3 6-7-4-17 26-62 36-55 16 10 60 9 67-2 4-5 13-5 20 0 20 12 38 14 44 3 3-4 16-4 29 1 15 5 27 5 35-3 6-6 11-7 11-1 0 13 38 15 46 3 3-6 12-5 21 3 18 15 22 15 35-4 6-9 11-9 14-2 4 9 51 11 89 4 6-2 12-1 15 0 16 7 80 5 80-3 0-5 8-3 17 4 14 12 16 12 8 0-6-10-4-12 5-6 19 12 90 14 90 3 0-5 5-6 12-2 17 11 108 12 108 2 0-5 6-6 12-2 18 11 48 12 48 2 0-5 6-6 13-1 17 11 59 12 78 2 9-5 19-5 23-2 11 11 46 10 46-1 0-7 3-7 8-1 8 11 67 14 77 3 4-4 16-3 26 3 14 7 19 6 19-3s3-10 8-2c8 12 40 12 60 0 6-4 12-3 12 2 0 11 101 10 119-2 11-7 12-6 6 5-8 12-6 12 8 0 9-7 17-9 17-4 0 8 73 10 90 3 3-1 10-1 15 0 29 8 175 4 175-5 0-6 4-5 8 1 8 13 70 13 90 0 6-4 18-4 25 1 18 12 97 12 90 0-4-6-1-7 8-1 21 12 120 14 112 1-4-6-1-7 8-1 20 13 139 12 139 0 0-6 4-5 9 2 11 17 21 17 32 0 5-7 9-8 9-3 0 13 169 14 189 1 9-6 12-5 8 1s52 9 151 8c86-1 165 3 176 8 12 6 16 6 12-1-3-5 1-13 10-16 8-3 13-2 10 3-3 4 8 8 24 9 16 0 32-4 36-9 3-6 10-6 17-1s94 9 194 8 179 3 176 7c-3 5 3 5 13 0 11-5 116-8 234-7 149 1 217-2 222-10 6-8 8-7 8 1s14 13 38 13h52c8 0 70-1 138-2 67-2 122 1 122 5 0 5 5 5 12 1 18-11 128-10 128 1 0 7 3 7 8 0 4-5 14-10 22-10s18 5 22 10c5 7 8 7 8 0 0-6 22-9 50-8 27 1 52-2 55-8 4-5 17-2 31 7 13 9 24 12 24 7 0-13 43-11 52 2 5 7 8 6 8-1 0-6 14-9 33-7 39 5 21 5 205 1 96-2 152 1 152 7 0 7 3 7 8 0 4-5 30-10 57-10 28 0 53 5 57 10 5 7 8 7 8 0 0-6 24-9 57-7 84 4 154 2 164-4 5-3 9 1 9 8 0 9 3 9 10-2 9-13 10-13 10 0 0 9 3 11 8 5 4-5 18-10 32-10s28 5 32 10c5 6 8 5 8-2 0-8 7-10 21-4 12 4 41 4 65 1 24-4 44-4 44 0s20 4 45 0 47-5 50-2c4 4 159 5 181 1 5-1 11-1 14 0 21 7 230 4 230-3 0-5 7-3 15 4 12 10 15 10 15-1s2-11 10 1c9 13 11 13 20 0 6-10 10-11 10-3 0 9 7 10 25 3s25-6 25 3c0 8 3 8 9-2 7-10 10-10 13-1 3 10 9 10 25 1 12-6 24-7 27-2 6 9 48 7 65-3 5-4 12-2 15 3 4 6 18 6 36 1 17-5 30-6 30-2s45 6 101 5c86-1 101 1 106 15 4 9 13 21 20 25 7 5 11 12 8 17s-1 11 4 14c16 10 60 103 53 111-4 5-2 5 4 2s17 6 25 21 18 30 24 34c5 4 6 8 1 8s-3 7 4 15 10 15 6 15c-3 0 3 9 14 20s20 29 20 41c0 11 4 18 9 14 5-3 13 4 16 16 12 38 72 129 79 121 4-4 6-2 4 3-4 14 33 95 44 95 5 0 6 5 3 10-3 6 1 13 9 16 9 3 14 10 11 14-2 4 4 18 15 30 11 13 20 32 20 43s3 17 6 14c4-4 17 12 29 36 42 82 78 142 87 145 4 2 6 8 2 13-3 5-1 9 4 9 9 0 22 33 19 46-1 3 6 10 16 15 9 6 15 14 12 20-4 5-2 9 3 9 8 0 42 63 41 76 0 3 8 12 18 20 10 7 14 14 8 14-5 0-5 4 2 8 6 4 13 14 15 21 2 8 11 23 21 33 10 11 16 26 13 34s-2 13 2 11c4-3 13 1 20 9 8 9 9 14 2 14-6 0-2 10 10 22 11 12 20 28 20 35s5 13 10 13c6 0 10 7 10 15s5 15 11 15c5 0 7 5 4 10-3 6-1 10 5 10s8 5 5 10c-3 6-1 10 5 10s8 5 5 10c-3 6 1 13 9 16 9 3 13 10 10 15s0 9 6 9 8 5 5 10c-3 6-1 10 6 10 6 0 9 8 6 20-3 10-2 19 2 18 17-2 28 3 28 15 0 6 12 31 27 55 15 23 24 47 21 53-4 5-1 8 6 7 7-2 13 2 14 7 0 6 12 28 26 50 15 22 29 50 33 63 4 12 12 22 17 22s9 6 9 13 9 23 19 34c11 12 17 24 14 27-4 3 2 16 13 29 20 23 27 34 69 115 15 29 31 52 37 52 5 0 7 4 3 9-3 5-1 12 5 16s8 11 5 16c-4 5-1 9 5 9 10 0 35 48 32 63-1 4 5 7 14 7 8 0 13 4 9 9-3 5 0 13 6 16 5 4 8 14 4 23-3 9-3 13 1 9 8-8 48 46 58 81 4 12 12 22 17 22 6 0 7 5 4 10-3 6 0 13 9 16 8 3 13 14 11 24s2 21 8 23c7 3 23 27 37 53 14 27 31 53 38 57 6 4 12 16 12 27 0 10 5 20 11 22 5 2 11 11 12 19 2 9 10 24 20 33 20 20 22 30 5 21-7-4-5 0 5 8 9 8 17 20 17 26 0 7 5 9 11 5 7-4 10-1 7 7s3 25 13 38 16 27 13 32 0 8 6 7c7-2 14 6 16 17 1 11 8 21 14 23 5 2 8 8 4 13-3 5 0 9 5 9 6 0 11 7 11 15s5 15 11 15c5 0 8 4 4 9-3 5-1 12 5 16s7 11 4 17c-4 6-2 8 3 5 14-8 47 59 37 75-4 6-3 8 3 5 14-9 34 15 36 42 0 11 4 18 8 16 3-3 14 13 24 35s22 40 27 40c4 0 8 9 8 19s7 21 15 25c8 3 12 12 9 19-3 8 2 17 11 21 9 3 13 10 10 16-3 5-2 10 4 10s13 11 17 25c3 14 10 25 15 25s9 7 9 15 5 15 11 15c5 0 7 5 4 10-3 6-1 10 5 10 7 0 10 7 6 15-3 8-1 15 5 15s19 20 30 45c11 24 27 48 35 53 9 5 15 11 13 13-5 9 13 49 22 49 6 0 7 5 4 10-3 6 1 13 9 16 9 3 14 10 11 14s2 13 10 20 15 21 15 32c0 12 4 17 12 12 7-5 9-2 5 9-3 9 0 18 9 21 8 3 14 12 14 21 0 8 5 15 12 15 6 0 8 3 5 6-4 4 2 19 13 34 11 16 20 33 20 38 0 6 6 17 13 24s26 38 43 68c16 30 32 57 37 58 4 2 7 9 7 17 0 7 7 18 15 25 9 7 14 18 12 24s5 19 15 30 18 26 18 33 4 13 9 13 11 8 15 18c6 18 30 62 59 106 10 14 14 26 10 26-5 0 0 5 10 11 9 5 17 19 17 29 0 11 4 20 9 20s15 15 22 33c7 17 21 41 31 51 10 11 18 25 18 32s7 20 16 28c8 9 16 25 17 35 0 11 4 18 8 15 7-4 14 9 18 31 1 6 12 21 24 34s15 21 7 16c-9-5-7 1 5 16 31 37 55 85 47 94-4 5-2 5 5 1 11-6 30 29 25 47-1 4 2 7 7 7s18 15 29 34c15 26 17 37 9 46-9 10-9 11 1 5 14-7 44 24 36 37-3 5 0 8 5 8 6 0 11 7 11 15s5 15 10 15c6 0 9 3 8 8-3 12 25 62 34 62 5 0 6 5 3 10-3 6-1 10 5 10s8 5 5 10c-3 6-2 10 4 10s13 11 17 25c3 14 10 25 14 25 9 0 20 27 19 43 0 5 8 16 18 25s19 23 21 31c1 7 9 20 17 28s15 21 15 29 5 14 11 14c5 0 7 5 4 10-3 6-1 10 4 10 6 0 11 9 11 21 0 13 4 18 12 13s9-2 5 9c-3 10-3 17 2 17 4 0 16 17 27 37 10 21 25 44 32 51 6 7 12 20 12 28s4 14 9 14 12 8 15 18c4 9 13 30 22 45 11 20 13 32 5 41-6 7-7 16-3 20s0 6-8 4c-8-1-14 3-12 10 1 6-3 12-9 12-5 0-8 4-5 9s-5 24-17 42c-24 35-35 60-33 70 0 3-7 13-17 23-9 10-15 21-12 26 3 4-2 11-11 14-8 3-13 10-9 15 3 6-2 14-11 19s-15 12-15 15c3 19 0 27-15 41-9 9-17 22-18 30-1 7-9 25-19 39-9 15-17 31-17 37 0 5-4 10-10 10-5 0-10 9-10 20s-4 20-10 20c-5 0-10 7-10 15s-5 15-10 15c-6 0-9 3-8 8 4 11-26 72-35 72-5 0-6 4-2 9 3 5-2 16-10 24-8 9-15 21-15 27s-4 9-9 5c-6-3-8 4-6 15s0 20-5 20c-4 0-13 12-19 28-13 34-44 86-54 90-4 2-5 8-1 13 3 5 0 9-7 9s-9 3-6 6c4 4-2 19-13 34s-17 30-13 34c3 3 0 6-7 6s-11 3-7 6c3 4-1 13-9 21s-12 19-9 24c4 5 1 9-4 9-6 0-11 7-11 16 0 8-4 12-10 9-5-3-10 1-10 9 0 15-32 79-52 104-6 6-8 12-5 12 4 0-5 16-18 36-14 20-25 41-25 46s-7 16-15 25c-8 8-13 19-10 24 4 5 1 9-4 9-6 0-11 7-11 15s-5 15-11 15c-5 0-7 5-4 10 3 6 1 10-5 10s-8 5-5 10c3 6 1 10-4 10-6 0-10 3-9 8 1 4-5 18-14 32s-18 32-20 40-11 22-20 31c-10 9-15 19-12 22 4 3-3 19-15 35-12 17-21 35-21 41s-5 11-12 11c-6 0-9 3-5 6 3 4-1 13-9 21s-12 19-9 24c4 5 1 9-5 9s-8 5-5 10c3 6 1 10-4 10-6 0-11 6-11 14 0 7-7 19-15 26-9 7-14 18-12 24s-5 19-15 30-18 26-18 33-5 13-11 13c-5 0-8 4-4 9 3 5-2 16-10 24-8 9-15 23-15 31 0 9-5 16-11 16-5 0-7 5-4 10 3 6 2 10-4 10s-13 11-17 25c-3 14-10 25-15 25s-9 9-9 20-6 23-14 26-12 12-9 20 0 14-6 14-11 7-11 15-4 15-9 15c-8 0-18 22-26 60-2 8-9 16-14 18-6 2-11 13-11 23 0 13-4 18-12 13s-9-2-5 9 1 17-8 17c-8 0-14 3-14 8 6 39-16 43-27 5z"/><path d="m6680 9824c-6-14-24-45-41-70-16-24-27-49-23-56 4-6 3-8-4-4-6 3-14-3-18-16-3-12-13-28-20-36-8-7-14-20-14-28s-4-14-10-14c-5 0-10-6-10-14 0-7-7-19-15-26s-15-21-15-31c0-11-4-19-9-19-10 0-74-109-74-127 0-7-4-10-8-7-4 2-11-6-15-18-3-12-15-30-25-41s-16-23-14-27-3-16-13-26c-34-39-48-58-34-50 8 5 0-11-17-34s-28-47-24-53c3-5 1-7-5-3-6 3-14-3-17-15-4-11-20-40-35-63-16-23-30-48-32-56s-10-22-19-32-22-31-30-46-16-29-19-32-16-25-29-50-29-50-35-55c-6-6-12-17-14-25s-11-23-19-33c-9-9-13-20-10-23 3-4-4-15-16-25s-19-18-15-19c7 0-49-91-72-117-6-7-8-13-5-13 6 0-25-52-36-60-4-3-9-12-11-20s-9-21-16-28c-7-8-10-17-7-22 3-4-2-10-10-14-8-3-15-12-15-21 0-8-4-15-10-15-5 0-12-11-16-25-3-13-12-29-20-36-8-6-11-15-8-20s0-9-6-9-16-13-21-30c-6-16-16-30-22-30s-8-3-5-6c4-3-5-22-18-41s-21-40-17-46c3-5 2-7-4-4-5 3-19-11-30-31-29-55-47-86-53-92-5-5-23-36-57-100-10-19-24-40-30-48-7-7-20-30-30-50-9-20-22-40-27-44-10-6 19-69 49-108 6-8 16-27 23-42 6-16 16-28 21-28 6 0 8-6 5-14s3-20 14-27 18-18 16-24c-3-7 2-18 11-25 8-7 15-19 15-27 0-7 6-16 14-19s12-12 9-20c-3-7 2-16 10-20 9-3 19-18 22-34 3-15 15-36 26-46 10-9 19-23 19-31 0-7 5-13 11-13 5 0 7-4 4-10-3-5-1-10 5-10s8-4 5-10c-3-5-1-10 4-10 6 0 11-7 11-15s3-15 8-15c7 0 37-60 35-70-1-3 5-9 13-13 8-5 12-12 9-18-4-5-3-9 2-9 4 0 19-21 33-47 13-27 27-50 30-53s16-25 29-50 30-52 38-61c7-9 10-19 6-22-3-4-1-7 5-7 7 0 12-6 12-14s3-16 8-18c7-3 43-66 66-115 6-13 15-23 19-23 5 0 5-4 2-10-3-5-1-10 4-10 6 0 11-6 11-13 0-8 9-22 19-31 11-10 17-24 14-32s-1-14 5-14c5 0 20-21 33-47 13-27 26-50 29-53 6-6 29-46 47-82 8-15 19-30 24-33 5-4 7-11 4-16-4-5-1-9 4-9 6 0 11-7 11-16 0-8 5-12 10-9 6 3 10-1 10-10 0-14 18-53 30-65 5-5 12-17 52-89 11-20 24-41 29-47s6-14 2-17c-3-4-2-7 4-7 5 0 18-18 29-40 10-22 22-40 25-40s11-16 19-35 17-35 22-35c4 0 8-5 8-11s9-23 20-39c11-15 17-30 13-34-3-3 0-6 7-6s11-3 7-6c-3-3 3-15 14-27 10-11 19-27 19-34s5-13 12-13c6 0 9-3 5-6-3-4 1-13 9-21s12-19 9-24c-4-5-2-9 3-9s15-13 22-30c7-16 17-30 22-30s6-4 3-10c-3-5-3-10 2-10 4 0 14-15 22-32 8-18 22-44 31-58 17-24 30-47 88-150 14-25 36-62 49-82 12-21 23-42 23-48 0-5 5-10 11-10 5 0 7-4 4-10-3-5-2-10 3-10 6 0 13-11 16-25 4-14 11-23 16-20 6 3 10-6 10-20s4-24 8-21c4 2 14-10 22-27 7-18 21-38 29-45 9-8 10-11 4-7-9 4-11 1-7-9 3-9 9-16 13-16 3 0 17-21 31-47 13-27 27-50 31-53 3-3 12-20 20-37 8-18 18-33 22-33 5 0 5-4 2-10-3-5-2-10 3-10s15-14 22-31 19-37 27-45c8-7 16-23 18-34s11-27 19-35 18-24 21-35 10-20 15-20c4 0 11-12 15-27 3-15 15-35 26-44 11-10 20-21 20-26-1-17 11-43 20-43 6 0 7-4 4-10-3-5-1-10 4-10 6 0 11-7 11-15s5-15 11-15c5 0 8-4 5-8-3-5 4-19 15-30 11-12 17-22 14-22s2-11 11-25 13-25 8-25 2-7 14-16c12-8 22-24 22-35s7-22 15-25c8-4 15-15 15-25s4-19 10-19c5 0 12-11 16-25 3-14 10-25 14-25s11-11 14-25c4-14 11-25 16-25 6 0 10-6 10-14s7-22 16-30c8-9 12-16 9-16-4 0 4-15 18-34 15-18 23-36 20-40-4-3-1-6 6-6s9-4 6-10c-3-5-1-10 4-10 6 0 11-7 11-15 0-9 7-18 15-21 8-4 13-10 10-14s9-27 25-51 30-50 30-56c0-7 4-13 8-13 5 0 14-16 22-35s17-35 22-35c4 0 8-6 8-14 0-7 7-19 15-26s12-16 9-21-1-9 4-9 12-8 15-17c6-18 37-73 47-83 3-3 14-24 25-47 11-24 23-43 26-43 4 0 12-13 19-30s17-30 22-30 7-4 3-9c-3-5 2-16 10-24 8-9 15-21 15-27s11-26 25-44 25-38 25-44c0-7 4-12 9-12s11-10 15-23c3-13 15-34 26-47s20-29 20-37c0-7 5-13 11-13 5 0 8-4 5-9s1-14 9-21 15-18 15-25c0-6 9-22 20-35s23-34 26-47c4-13 10-23 15-23s9-6 9-14 3-16 8-18c4-1 18-25 32-53 14-27 27-52 31-55 3-3 20-32 39-65s36-62 39-65 7-12 9-20 8-17 13-18c5-2 9-10 9-18s5-14 10-14c6 0 10-9 10-20s4-20 8-20 20-25 36-55c15-30 32-57 37-61 5-3 7-10 4-15-4-5-1-9 4-9 6 0 11-7 11-15s3-15 8-15c4 0 13-15 21-33 8-17 17-34 20-37 4-3 18-26 31-52 14-27 28-48 31-48 7 0 19-36 16-47-1-3 7-9 18-12 11-4 1436-7 3166-7 2670 1 3149 3 3163 15 9 8 14 16 12 18-3 3 4 14 15 26 10 11 19 27 19 34s3 13 8 13c4 0 16 18 26 40 11 22 23 40 27 40s10 11 13 25c4 14 11 25 16 25 6 0 10 7 10 15s4 15 9 15c8 0 24 37 22 53-1 4 4 7 9 7 6 0 15 11 20 25s14 25 20 25 9 4 6 8c-3 5 3 18 14 29 10 12 17 23 14 26-2 2 2 10 11 17 8 7 15 19 15 26 0 8 5 14 10 14 6 0 10 4 10 10 0 5 20 41 45 80s45 75 45 80c0 6 3 10 8 10 4 0 20 25 36 55s33 55 38 55 6 5 3 10c-3 6-1 10 5 10s8 5 5 10c-3 6-2 10 2 10 5 0 17 16 27 35 11 19 23 35 28 35s7 4 4 8c-2 4 11 30 29 57 19 28 34 56 35 63 0 6 4 12 10 12 5 0 17 17 27 38 9 20 25 46 35 56 10 11 18 28 18 38s5 18 10 18c6 0 16 12 23 28 6 15 17 33 24 40 7 8 11 18 8 23-4 5-1 9 5 9s14 8 17 18c4 9 13 23 20 30s13 23 13 34c0 12 3 19 6 15 6-6 91 125 118 180 6 13 14 23 19 23 4 0 7 10 7 22s3 18 7 15c4-4 13 5 20 20 7 16 26 48 43 73 16 25 33 52 37 60 6 13 81 134 121 196 6 10 15 26 19 34s9 17 12 20c4 3 15 22 26 43 11 20 22 37 26 37 11 0 28 49 19 55-4 3-11-1-13-7-4-10-6-10-6 0-1 9-6 10-20 2-14-7-21-6-24 3s-7 9-19-1c-11-9-17-9-20-2-2 8-11 8-30 1-20-7-28-7-31 2s-7 9-19-1-17-10-20-1-9 9-27-1c-19-10-22-10-15 2 6 10 5 11-7 1-12-9-18-10-27-1-8 8-15 8-27-2-10-8-15-9-15-1 0 13-22 10-32-4-5-6-8-5-8 3 0 9-5 10-19 2-14-7-21-6-24 3s-7 9-19-1-17-10-20-1-9 9-27-1c-19-10-22-10-15 2 6 11 5 11-8 0-11-9-18-10-23-2-3 6-12 7-18 3-17-10-47-11-47-1 0 9-29 6-47-5-8-5-13-4-13 2 0 13-22 10-32-4-5-6-8-5-8 3 0 9-5 10-19 2-14-7-21-6-24 3s-7 9-19-1-17-10-20-1-9 9-27-1c-19-10-22-10-15 2 6 11 5 11-8 0-11-9-18-10-23-2-3 6-12 7-18 3-16-10-41-10-48 0-3 4-17 3-32-2-18-7-27-7-30 2s-8 9-20-2c-14-11-17-11-17 0 0 12-2 12-9 0-7-11-9-11-13 0-4 12-8 12-20 1-11-9-17-9-20-2-2 8-11 8-30 1-20-7-28-7-31 2s-7 9-19-1-17-10-20-1-9 9-27-1c-19-10-22-10-15 2 6 10 5 11-8 1-8-7-18-10-22-6-10 11-96 9-96-2 0-5-5-3-10 5-9 13-10 13-10 0 0-9-3-11-8-5-8 12-52 13-69 2-8-5-13-4-13 2 0 13-22 10-32-4-5-6-8-5-8 3 0 9-5 10-19 2-14-7-21-6-24 3s-7 9-19-1-17-10-20-1-9 9-27-1c-19-10-22-10-15 2 6 11 5 11-8 0-11-9-18-10-23-2-3 6-12 7-18 3-15-9-47-11-47-3 0 11-104 6-112-5-5-6-8-4-8 5 0 13-1 13-10 0-5-8-10-10-10-4 0 11-52 10-70-1-5-3-10 1-13 7-3 10-7 10-20-1-14-11-17-11-17 0 0 12-2 12-9 0-7-11-9-11-13 0-4 12-8 12-20 1-11-9-17-9-20-2-2 8-11 8-30 1-20-7-28-7-31 2s-7 9-19-1-17-10-20-1-9 9-27-1c-19-10-22-10-15 2 6 11 5 11-8 0-11-9-18-10-23-2-4 7-12 7-25 0s-20-6-23 3-7 9-20-2c-14-11-17-11-17 0 0 12-2 12-9 0-7-11-9-11-13 0-4 12-8 12-20 1-11-9-17-9-20-2-2 8-11 8-30 1-20-7-28-7-31 2s-7 9-19-1-17-10-20-1-9 9-27-1c-19-10-22-10-15 2 6 10 5 11-8 1-8-7-18-10-22-6-10 11-96 9-96-2 0-5-5-3-10 5-9 13-10 13-10 0 0-9-3-11-8-5-8 12-52 13-69 2-8-5-13-4-13 2 0 13-22 10-32-4-5-6-8-5-8 3 0 9-5 10-19 2-14-7-21-6-24 3s-7 9-19-1-17-10-20-1-9 9-27-1c-19-10-22-10-15 2 6 11 5 11-8 0-11-9-18-10-23-2-3 6-12 7-18 3-15-9-47-11-47-3 0 11-104 6-112-5-5-6-8-4-8 5 0 13-1 13-10 0-5-8-10-10-10-4 0 11-52 10-70-1-5-3-10 1-13 7-3 10-7 10-20-1-14-11-17-11-17 0 0 12-2 12-9 0-7-11-9-11-13 0-4 12-8 12-20 1-11-9-17-9-20-2-2 8-11 8-30 1-20-7-28-7-31 2s-7 9-19-1-17-10-20-1-9 9-27-1c-19-10-22-10-15 2 6 11 5 11-8 0-11-9-18-10-23-2-4 7-12 7-25 0s-20-6-23 3-7 9-20-2c-14-11-17-11-17 0 0 12-2 12-9 0-7-11-9-11-13 0-4 12-8 12-20 1-11-9-17-9-20-2-2 8-11 8-30 1-20-7-28-7-31 2s-7 9-19-1-17-10-20-1-9 9-27-1c-19-10-22-10-15 2 6 10 5 11-8 1-8-7-18-10-22-6-10 11-96 9-96-2 0-5-5-3-10 5-9 13-10 13-10 0 0-9-3-11-8-5-8 12-52 13-69 2-8-5-13-4-13 2 0 13-22 10-32-4-5-6-8-5-8 3 0 9-5 10-19 2-14-7-21-6-24 3s-7 9-19-1-17-10-20-1-9 9-27-1c-19-10-22-10-15 2 6 11 5 11-8 0-11-9-18-10-23-2-3 6-12 7-18 3-15-9-47-11-47-3 0 11-104 6-112-5-5-6-8-4-8 5 0 13-1 13-10 0-5-8-10-10-10-4 0 11-52 10-70-1-5-3-10 1-13 7-3 10-7 10-20-1-14-11-17-11-17 0 0 12-2 12-9 0-7-11-9-11-13 0-4 12-8 12-20 1-11-9-17-9-20-2-2 8-11 8-30 1-20-7-28-7-31 2s-7 9-19-1-17-10-20-1-9 9-27-1c-19-10-22-10-15 2 6 11 5 11-8 0-11-9-18-10-23-2-4 7-12 7-25 0s-20-6-23 3-7 9-20-2c-14-11-17-11-17 0 0 12-2 12-9 0-7-11-9-11-13 0-4 12-8 12-20 1-11-9-17-9-20-2-2 8-11 8-30 1-20-7-28-7-31 2s-7 9-19-1-17-10-20-1-9 9-27-1c-19-10-22-10-15 2 6 10 5 11-8 1-8-7-18-10-22-6-10 11-96 9-96-2 0-5-5-3-10 5-9 13-10 13-10 0 0-9-3-11-8-5-8 12-52 13-69 2-8-5-13-4-13 2 0 13-22 10-32-4-5-6-8-5-8 3 0 9-5 10-19 2-14-7-21-6-24 3s-7 9-19-1-17-10-20-1-9 9-27-1c-19-10-22-10-15 2 6 11 5 11-8 0-11-9-18-10-23-2-3 6-12 7-18 3-15-9-47-11-47-3 0 11-104 6-112-5-5-6-8-4-8 5 0 13-1 13-10 0-5-8-10-10-10-4 0 11-52 10-70-1-5-3-10 1-13 7-3 10-7 10-20-1-14-11-17-11-17 0 0 12-2 12-9 0-7-11-9-11-13 0-4 12-8 12-20 1-11-9-17-9-20-2-2 8-11 8-30 1-20-7-28-7-31 2s-7 9-19-1-17-10-20-1-9 9-27-1c-19-10-22-10-15 2 6 10 5 11-7 1-12-9-18-10-27-1-8 8-15 8-27-2-10-8-15-9-15-1 0 13-22 10-32-4-5-6-8-5-8 3 0 9-5 10-19 2-14-7-21-6-24 3s-7 9-19-1-17-10-20-1-9 9-27-1c-19-10-22-10-15 2 6 11 5 11-8 0-11-9-18-10-23-2-3 6-12 7-18 3-18-11-47-11-47 0 0 5-8 6-17 2-10-4-29-7-43-5-14 1-31 2-38 3-7 0-15 11-18 24-4 12-10 23-15 23s-9 9-9 21c0 11-5 17-10 14-6-3-10 0-10 8s-19 46-42 83c-23 38-41 75-41 82 0 6-4 12-7 12-4 0-13 14-20 30-7 17-17 30-23 30s-8 3-4 6c3 4-1 13-9 21s-12 19-9 24c4 5 1 9-6 9s-10 3-6 6c3 3-3 15-14 27-10 11-19 27-19 34s-5 13-11 13c-5 0-8 4-5 9s-3 20-14 34-20 28-20 31-20 40-45 82c-25 41-45 80-45 85s-4 9-10 9c-5 0-10 9-10 20s-4 20-10 20c-5 0-10 4-10 8 0 10-84 162-100 180-6 6-7 12-3 12s3 4-2 8c-6 4-23 32-39 62s-34 58-40 62-8 8-4 8-1 15-12 33c-11 17-30 51-42 75-12 23-26 42-30 42s-8 9-8 20-4 20-10 20c-5 0-10 7-10 15s-5 15-11 15c-5 0-8 4-4 9 3 5-2 16-10 24-8 9-15 20-15 26s-5 11-11 11c-5 0-8 4-4 9 3 5 1 12-5 16s-7 11-4 17c4 7 2 8-4 4-7-4-12-2-12 3 0 22-2 26-16 34-8 5-12 12-10 16 3 4-2 17-12 27-9 11-18 26-20 34s-11 23-19 33c-9 9-12 17-7 17s4 4-1 8c-6 4-22 28-35 55-14 26-28 47-31 47-7 0-22 40-20 53 1 4-4 7-10 7-5 0-7 5-4 10 3 6 2 10-3 10s-15 12-22 28c-8 15-21 35-29 45-8 9-11 17-7 17s-2 13-13 29c-12 16-21 32-21 36 0 3-12 25-27 48-16 23-29 48-31 56-1 7-9 19-16 26s-19 27-26 44-17 31-22 31-7 4-4 9c3 4-6 23-19 41s-22 37-19 41c3 5 0 9-5 9-6 0-11 7-11 15s-4 15-10 15c-5 0-10 7-10 15s-5 15-11 15c-5 0-8 4-4 9 3 5 1 12-4 15-4 3-21 30-36 61-16 30-32 55-37 55s-7 4-3 9c3 5-1 16-9 24s-12 17-9 21c4 3 0 6-7 6s-11 3-7 6c3 3-3 15-14 27-10 11-19 29-19 39s-4 18-10 18c-5 0-10 7-10 15s-5 15-11 15c-5 0-8 4-5 9 4 5 3 11-1 13-5 1-15 17-24 33-29 58-64 120-69 125-4 4-18 29-64 115-6 11-15 23-21 27-5 4-7 8-3 8s-4 16-17 36c-14 20-22 40-19 45s0 9-5 9c-6 0-19 18-28 40-10 22-21 40-25 40-5 0-8 7-8 15s-4 15-10 15c-5 0-10 9-10 19 0 11-3 21-7 23-8 3-36 50-74 126-12 23-25 42-30 42s-9 6-9 14c0 17-40 89-52 94-4 2-8 12-8 23 0 10-4 19-10 19-5 0-10 7-10 15s-4 15-10 15c-5 0-10 9-10 19 0 11-3 21-7 23-5 2-21 28-37 58s-36 63-44 73c-8 9-11 17-7 17 5 0 0 7-11 16-10 8-13 13-6 9 11-6-22 52-48 83-6 7-13 22-15 34-3 12-8 24-13 27-10 6-38 55-48 84-3 9-11 17-16 17s-6 5-3 10c3 6 1 10-5 10s-8 5-5 10c3 6 1 10-4 10-6 0-11 7-11 15s-5 15-11 15c-5 0-8 4-4 9 3 5-1 16-9 24s-12 17-9 21c3 3-2 8-11 12-9 3-13 10-10 15s0 9-6 9-8 5-5 10c3 6 1 10-5 10s-8 5-5 10c3 6 2 10-3 10-6 0-15 14-21 30-5 17-15 30-21 30s-9 4-5 9c3 5-2 17-11 25-8 9-13 16-9 16 3 0-3 14-15 30-12 17-18 30-15 30 4 0-1 7-9 16-9 8-16 22-16 30s-3 14-8 14c-4 0-13 15-21 33-8 17-17 34-20 37-7 6-26 39-55 95-12 22-23 42-26 45s-14 23-25 45-28 51-37 64c-10 13-16 27-13 31s-2 10-10 14c-8 3-15 11-15 19 0 7-6 19-12 26-7 6-13 15-14 19-1 14-27 62-34 62-3 0-12 16-19 35s-17 35-22 35c-6 0-8 4-4 9 3 5-2 16-10 24-8 9-15 20-15 26s-5 11-11 11-9 7-5 15c3 8-1 18-7 22-7 5-21 24-30 43-25 50-52 97-67 115-7 8-9 15-6 15 4 0 0 7-8 16-9 8-14 20-11 25 4 5 2 9-3 9s-15 14-22 30c-7 17-16 30-21 30s-9 7-9 15-4 15-10 15c-5 0-7 7-4 15 4 8 2 15-3 15-6 0-18 18-28 40s-22 40-27 40-6 5-3 10c3 6-1 10-10 10-8 0-20-12-25-26z"/></g></svg>