<svg xmlns="http://www.w3.org/2000/svg" viewBox="0 0 512 512">
  <rect width="512" height="512" fill="#181610" rx="15%"/>
  <path d="M26 4.557c-.883.392-1.832.656-2.828.775 1.017-.609 1.798-1.574 2.165-2.724-.951.564-2.005.974-3.127 1.195a4.9156 4.9156 0 0 0-3.594-1.555c-3.179 0-5.515 2.966-4.797 6.045C9.728 8.088 6.1 6.128 3.671 3.149c-1.29 2.213-.669 5.108 1.523 6.574a4.903 4.903 0 0 1-2.229-.616c-.054 2.281 1.581 4.415 3.949 4.89-.693.188-1.452.232-2.224.084.626 1.956 2.444 3.379 4.6 3.419-2.07 1.623-4.678 2.348-7.29 2.04 2.179 1.397 4.768 2.212 7.548 2.212 9.142 0 14.307-7.721 13.995-14.646.962-.695 1.797-1.562 2.457-2.549z" fill="#fff" transform="translate(46.49 75.76) scale(15)"/>
</svg>