<svg viewBox="0 0 62.3669 54.0232" xmlns="http://www.w3.org/2000/svg"><g fill="#fff"><path d="m24.2535 54.0116h-8.66c-1.0875-1.8775-8.1553-14.1034-10.39-18 2.24-3.8957 9.4148-16.32 10.39-18h8.66c-3.4163 5.9187-6.9759 12.0768-10.39 18z"/><path d="m51.1012 46.5131-4.33 7.5c-2.17.0031-16.2915.011-20.7834-.0019-2.2539-3.8876-9.4261-16.3135-10.3935-17.9981l4.33-7.5c3.4177 5.918 6.9709 12.08 10.3935 17.998z"/><path d="m58.0312 19.5131 4.33 7.5c-1.0822 1.8804-8.1363 14.1142-10.3935 17.9979-4.4936.0081-18.8408.0065-20.7834.0019l-4.33-7.5c6.834-.0008 13.9468.0029 20.7835-.002z"/><path d="m38.1135.0116h8.66c1.0875 1.8775 8.1553 14.1034 10.39 18-2.24 3.8957-9.4148 16.32-10.39 18h-8.66c3.4162-5.9188 6.9758-12.0768 10.39-18z"/><path d="m11.2658 7.51 4.33-7.5c2.17-.0031 16.2915-.011 20.7835.002 2.2539 3.888 9.426 16.3136 10.3934 17.998l-4.33 7.5c-3.4177-5.9179-6.9709-12.08-10.3935-17.998z"/><path d="m4.3358 34.51-4.33-7.5c1.0822-1.88 8.1362-14.1142 10.3934-17.9978 4.4937-.0082 18.8408-.0065 20.7835-.0022l4.33 7.5c-6.8339.0008-13.9467-.0028-20.7835.002z"/></g></svg>