<svg xmlns="http://www.w3.org/2000/svg" viewBox="0 0 496 496" xml:space="preserve">
  <path d="M136 416V230c0-36-30-67-68-67S0 194 0 230v186h136z" fill="#a3b2b0"/>
  <path d="M72 416h64V230c0-36-30-67-68-67" fill="#90a09d"/>
  <path d="M144 480c0 4-7 8-11 8H7c-4 0-7-4-7-8v-26c0-4 3-6 7-6h126c4 0 11 2 11 6v26z" fill="#a3b2b0"/>
  <path d="M0 454c0-4 3-6 7-6h126c4 0 11 2 11 6v26c0 4-5 8-10 8" fill="#90a09d"/>
  <path fill="#4c5655" d="M16 416h104v32H16z"/>
  <path fill="#414c4b" d="M72 416h48v32"/>
  <path d="M0 231v185h136V231l-2-15H2c-2 7-2 10-2 15z" fill="#798483"/>
  <g fill="#616b6a">
    <path d="M134 216H72v200h64V231c0-5 0-8-2-15z"/>
    <circle cx="70.4" cy="260" r="16"/>
  </g>
  <path d="M70 245c9 0 16 7 16 16s-7 15-16 15" fill="#798483"/>
  <path d="M86 316c0 9-8 16-16 16s-16-7-16-16 7-15 16-15 16 6 16 15z" fill="#616b6a"/>
  <path d="M70 300c9 0 16 7 16 15 0 9-7 16-16 16" fill="#798483"/>
  <circle cx="70.4" cy="371.2" r="16" fill="#616b6a"/>
  <path d="M70 356c9 0 16 7 16 15 0 9-7 16-16 16" fill="#798483"/>
  <path d="M312 416V230c0-36-26-222-64-222s-64 185-64 222v186h128z" fill="#f4cc25"/>
  <path d="M248 416h64V230c0-36-26-222-64-222" fill="#e8b21a"/>
  <path d="M320 480c0 4-5 8-9 8H185c-4 0-9-4-9-8v-26c0-4 5-5 9-5h125c4 0 9 1 9 5v26h1z" fill="#f4cc25"/>
  <path d="M176 454c0-4 5-6 9-6h125c4 0 9 2 9 6v26c0 4-4 8-8 8" fill="#e8b21a"/>
  <path fill="#4c5655" d="M200 416h96v32h-96z"/>
  <path fill="#414c4b" d="M248 416h48v32"/>
  <path d="M184 231v185h128V231l-1-15H185l-1 15z" fill="#eaaa0a"/>
  <g fill="#d87f09">
    <path d="M311 216h-63v200h64V231l-1-15z"/>
    <circle cx="248" cy="260" r="16"/>
  </g>
  <path d="M248 245c9 0 16 7 16 16s-7 15-16 15" fill="#eaaa0a"/>
  <path d="M264 316c0 9-7 16-16 16s-16-7-16-16 7-15 16-15 16 6 16 15z" fill="#d87f09"/>
  <path d="M248 300c9 0 16 7 16 15 0 9-7 16-16 16" fill="#eaaa0a"/>
  <circle cx="248" cy="371.2" r="16" fill="#d87f09"/>
  <path d="M248 356c9 0 16 7 16 15 0 9-7 16-16 16m120-123v184h112V248H370l-2 16z" fill="#eaaa0a"/>
  <path d="M480 248h-56v200h56V248z" fill="#d87f09"/>
  <path d="M496 480c0 4-3 8-7 8H363c-4 0-11-4-11-8v-26c0-4 7-5 11-5h126c4 0 7 1 7 5v26z" fill="#ce351b"/>
  <path d="M352 454c0-4 7-6 11-6h126c4 0 7 2 7 6v26c0 4-3 8-7 8" fill="#ad1905"/>
  <path d="M368 187v181h112V187c0-5-2-9-3-11H370l-2 11z" fill="#ce351b"/>
  <g fill="#ad1905">
    <path d="M478 176h-54v192h56V187c0-4 0-8-2-11z"/>
    <circle cx="425.6" cy="216.8" r="16"/>
  </g>
  <path d="M426 201c8 0 16 7 16 16s-8 15-16 15" fill="#ce351b"/>
  <circle cx="425.6" cy="272" r="16" fill="#ad1905"/>
  <path d="M426 256c8 0 16 7 16 15 0 9-8 16-16 16" fill="#ce351b"/>
  <circle cx="425.6" cy="327.2" r="16" fill="#ad1905"/>
  <path d="M426 312c8 0 16 7 16 16s-8 16-16 16m52-168c0 6-4 8-8 8h-95c-3 0-6-5-6-8s3-8 6-8h97c3 0 6 3 6 8z" fill="#ce351b"/>
</svg>
