<svg viewBox="0 0 496 496" xmlns="http://www.w3.org/2000/svg"><path d="m136 416v-186c0-36-30-67-68-67s-68 31-68 67v186z" fill="#a3b2b0"/><path d="m72 416h64v-186c0-36-30-67-68-67" fill="#90a09d"/><path d="m144 480c0 4-7 8-11 8h-126c-4 0-7-4-7-8v-26c0-4 3-6 7-6h126c4 0 11 2 11 6z" fill="#a3b2b0"/><path d="m0 454c0-4 3-6 7-6h126c4 0 11 2 11 6v26c0 4-5 8-10 8" fill="#90a09d"/><path d="m16 416h104v32h-104z" fill="#4c5655"/><path d="m72 416h48v32" fill="#414c4b"/><path d="m0 231v185h136v-185l-2-15h-132c-2 7-2 10-2 15z" fill="#798483"/><g fill="#616b6a"><path d="m134 216h-62v200h64v-185c0-5 0-8-2-15z"/><circle cx="70.4" cy="260" r="16"/></g><path d="m70 245c9 0 16 7 16 16s-7 15-16 15" fill="#798483"/><path d="m86 316c0 9-8 16-16 16s-16-7-16-16 7-15 16-15 16 6 16 15z" fill="#616b6a"/><path d="m70 300c9 0 16 7 16 15 0 9-7 16-16 16" fill="#798483"/><circle cx="70.4" cy="371.2" fill="#616b6a" r="16"/><path d="m70 356c9 0 16 7 16 15 0 9-7 16-16 16" fill="#798483"/><path d="m312 416v-186c0-36-26-222-64-222s-64 185-64 222v186z" fill="#f4cc25"/><path d="m248 416h64v-186c0-36-26-222-64-222" fill="#e8b21a"/><path d="m320 480c0 4-5 8-9 8h-126c-4 0-9-4-9-8v-26c0-4 5-5 9-5h125c4 0 9 1 9 5v26z" fill="#f4cc25"/><path d="m176 454c0-4 5-6 9-6h125c4 0 9 2 9 6v26c0 4-4 8-8 8" fill="#e8b21a"/><path d="m200 416h96v32h-96z" fill="#4c5655"/><path d="m248 416h48v32" fill="#414c4b"/><path d="m184 231v185h128v-185l-1-15h-126z" fill="#eaaa0a"/><g fill="#d87f09"><path d="m311 216h-63v200h64v-185z"/><circle cx="248" cy="260" r="16"/></g><path d="m248 245c9 0 16 7 16 16s-7 15-16 15" fill="#eaaa0a"/><path d="m264 316c0 9-7 16-16 16s-16-7-16-16 7-15 16-15 16 6 16 15z" fill="#d87f09"/><path d="m248 300c9 0 16 7 16 15 0 9-7 16-16 16" fill="#eaaa0a"/><circle cx="248" cy="371.2" fill="#d87f09" r="16"/><path d="m248 356c9 0 16 7 16 15 0 9-7 16-16 16m120-123v184h112v-200h-110z" fill="#eaaa0a"/><path d="m480 248h-56v200h56z" fill="#d87f09"/><path d="m496 480c0 4-3 8-7 8h-126c-4 0-11-4-11-8v-26c0-4 7-5 11-5h126c4 0 7 1 7 5z" fill="#ce351b"/><path d="m352 454c0-4 7-6 11-6h126c4 0 7 2 7 6v26c0 4-3 8-7 8" fill="#ad1905"/><path d="m368 187v181h112v-181c0-5-2-9-3-11h-107z" fill="#ce351b"/><g fill="#ad1905"><path d="m478 176h-54v192h56v-181c0-4 0-8-2-11z"/><circle cx="425.6" cy="216.8" r="16"/></g><path d="m426 201c8 0 16 7 16 16s-8 15-16 15" fill="#ce351b"/><circle cx="425.6" cy="272" fill="#ad1905" r="16"/><path d="m426 256c8 0 16 7 16 15 0 9-8 16-16 16" fill="#ce351b"/><circle cx="425.6" cy="327.2" fill="#ad1905" r="16"/><path d="m426 312c8 0 16 7 16 16s-8 16-16 16m52-168c0 6-4 8-8 8h-95c-3 0-6-5-6-8s3-8 6-8h97c3 0 6 3 6 8z" fill="#ce351b"/></svg>